{
classes = (
{
automatic = 1;

glyphs = (
{
glyphname = A;
lastChange = "2014-04-01 13:00:25 +0100";
layers = (
{
anchors = (
{
name = ogonek;
position = "{531, 0}";
},
{
name = top;
position = "{278, 680}";
},
{
name = topleft;
position = "{140, 680}";
}
);
layerId = "F257A41E-77B2-4FB8-8247-C188CBBE1401";
name = Light;
paths = (
{
closed = 1;
nodes = (
"276 680 LINE",
"35 0 LINE",
"37 0 LINE",
"277 678 LINE",
"519 0 LINE",
"521 0 LINE",
"278 680 LINE"
);
},
{
closed = 1;
nodes = (
"112 215 LINE",
"112 213 LINE",
"443 213 LINE",
"443 215 LINE"
);
}
);
width = 556;
},
{
anchors = (
{
name = ogonek;
position = "{526, 0}";
},
{
name = top;
position = "{301, 696}";
},
{
name = topleft;
position = "{150, 696}";
}
);
layerId = UUID0;
name = Bold;
paths = (
{
closed = 1;
nodes = (
"178 696 LINE",
"-25 0 LINE",
"190 0 LINE",
"298 552 LINE",
"408 0 LINE",
"626 0 LINE",
"424 696 LINE"
);
},
{
closed = 1;
nodes = (
"229 279 LINE",
"200 135 LINE",
"397 135 LINE",
"368 279 LINE"
);
}
);
width = 601;
},
{
anchors = (
{
name = ogonek;
position = "{543, 0}";
},
{
name = top;
position = "{279, 682}";
},
{
name = topleft;
position = "{170, 682}";
}
);
layerId = "BCC09A48-EAE1-493E-95CB-92D2C26BC05D";
name = Regular;
paths = (
{
closed = 1;
nodes = (
"260 682 LINE",
"25 0 LINE",
"56 0 LINE",
"279 657 LINE",
"500 0 LINE",
"533 0 LINE",
"298 682 LINE"
);
},
{
closed = 1;
nodes = (
"123 228 LINE",
"112 199 LINE",
"444 199 LINE",
"434 228 LINE"
);
}
);
width = 558;
},
{
anchors = (
{
name = ogonek;
position = "{537, 0}";
},
{
name = top;
position = "{287, 689}";
},
{
name = topleft;
position = "{140, 689}";
}
);
layerId = "A11F629A-ECF3-413E-B2EC-6C6F8C33A243";
name = Regular;
paths = (
{
closed = 1;
nodes = (
"227 689 LINE",
"6 0 LINE",
"102 0 LINE",
"285 610 LINE",
"467 0 LINE",
"567 0 LINE",
"347 689 LINE"
);
},
{
closed = 1;
nodes = (
"162 250 LINE",
"139 173 LINE",
"430 173 LINE",
"407 250 LINE"
);
}
);
width = 573;
}
);
leftKerningGroup = A;
rightKerningGroup = A;
unicode = 0041;
},
{
color = 7;
glyphname = Aogonek;
lastChange = "2014-03-19 16:32:47 +0100";
layers = (
{
background = {
paths = (
{
closed = 1;
nodes = (
"412 0 LINE",
"525 0 LINE",
"453 -34 OFFCURVE",
"413 -83 OFFCURVE",
"413 -140 CURVE SMOOTH",
"413 -220 OFFCURVE",
"476 -267 OFFCURVE",
"567 -267 CURVE SMOOTH",
"611 -267 OFFCURVE",
"656 -255 OFFCURVE",
"689 -238 CURVE",
"653 -148 LINE",
"638 -155 OFFCURVE",
"611 -162 OFFCURVE",
"586 -162 CURVE SMOOTH",
"556 -162 OFFCURVE",
"540 -141 OFFCURVE",
"540 -114 CURVE SMOOTH",
"540 -81 OFFCURVE",
"557 -42 OFFCURVE",
"634 0 CURVE",
"428 696 LINE",
"182 696 LINE",
"-25 0 LINE",
"194 0 LINE",
"220 135 LINE",
"385 135 LINE"
);
},
{
closed = 1;
nodes = (
"300 539 LINE",
"305 539 LINE",
"356 279 LINE",
"249 279 LINE"
);
}
);
};
components = (
{
name = A;
transform = "{1, 0, 0, 1, 0, 0}";
},
{
name = ogonek;
transform = "{1, 0, 0, 1, 265, 0}";
}
);
layerId = UUID0;
name = Bold;
width = 601;
},
{
components = (
{
name = A;
transform = "{1, 0, 0, 1, 0, 0}";
},
{
name = ogonek;
transform = "{1, 0, 0, 1, 398, 0}";
}
);
layerId = "F257A41E-77B2-4FB8-8247-C188CBBE1401";
name = Light;
width = 556;
},
{
components = (
{
name = A;
transform = "{1, 0, 0, 1, 0, 0}";
},
{
name = ogonek;
transform = "{1, 0, 0, 1, 381, 0}";
}
);
layerId = "BCC09A48-EAE1-493E-95CB-92D2C26BC05D";
name = Regular;
width = 558;
},
{
components = (
{
name = A;
transform = "{1, 0, 0, 1, 0, 0}";
},
{
name = ogonek;
transform = "{1, 0, 0, 1, 329, 0}";
}
);
layerId = "A11F629A-ECF3-413E-B2EC-6C6F8C33A243";
name = Regular;
width = 573;
}
);
leftKerningGroup = A;
rightKerningGroup = A;
unicode = 0104;
},
{
color = 4;
glyphname = AE;
lastChange = "2014-03-24 09:31:26 +0100";
layers = (
{
anchors = (
{
name = top;
position = "{489, 696}";
}
);
layerId = UUID0;
rightMetricsKey = E;
name = Bold;
paths = (
{
closed = 1;
nodes = (
"241 696 LINE",
"-30 0 LINE",
"194 0 LINE",
"362 549 LINE",
"436 0 LINE",
"843 0 LINE",
"843 144 LINE",
"610 144 LINE",
"540 553 LINE",
"787 553 LINE",
"808 696 LINE"
);
},
{
closed = 1;
nodes = (
"263 279 LINE",
"219 135 LINE",
"434 135 LINE",
"414 279 LINE"
);
},
{
closed = 1;
nodes = (
"546 421 LINE",
"571 282 LINE",
"799 282 LINE",
"799 421 LINE"
);
}
);
width = 863;
},
{
anchors = (
{
name = top;
position = "{457, 680}";
}
);
layerId = "F257A41E-77B2-4FB8-8247-C188CBBE1401";
rightMetricsKey = E;
name = Light;
paths = (
{
closed = 1;
nodes = (
"284 680 LINE",
"21 0 LINE",
"23 0 LINE",
"285 678 LINE",
"463 0 LINE",
"700 0 LINE",
"700 2 LINE",
"465 2 LINE",
"287 678 LINE",
"645 678 LINE",
"645 680 LINE"
);
},
{
closed = 1;
nodes = (
"102 207 LINE",
"101 205 LINE",
"410 205 LINE",
"410 207 LINE"
);
},
{
closed = 1;
nodes = (
"369 362 LINE",
"369 360 LINE",
"635 360 LINE",
"635 362 LINE"
);
}
);
width = 750;
},
{
anchors = (
{
name = top;
position = "{442, 682}";
}
);
layerId = "BCC09A48-EAE1-493E-95CB-92D2C26BC05D";
name = Regular;
paths = (
{
closed = 1;
nodes = (
"272 682 LINE",
"9 0 LINE",
"40 0 LINE",
"291 657 LINE",
"464 0 LINE",
"717 0 LINE",
"717 29 LINE",
"487 29 LINE",
"323 653 LINE",
"660 653 LINE",
"664 682 LINE"
);
},
{
closed = 1;
nodes = (
"119 222 LINE",
"106 193 LINE",
"420 193 LINE",
"413 222 LINE"
);
},
{
closed = 1;
nodes = (
"388 373 LINE",
"396 345 LINE",
"657 345 LINE",
"657 373 LINE"
);
}
);
width = 757;
},
{
anchors = (
{
name = top;
position = "{474, 689}";
}
);
layerId = "A11F629A-ECF3-413E-B2EC-6C6F8C33A243";
rightMetricsKey = E;
name = Regular;
paths = (
{
closed = 1;
nodes = (
"262 689 LINE",
"-12 0 LINE",
"85 0 LINE",
"316 613 LINE",
"458 0 LINE",
"762 0 LINE",
"762 76 LINE",
"535 76 LINE",
"401 613 LINE",
"710 613 LINE",
"721 689 LINE"
);
},
{
closed = 1;
nodes = (
"162 250 LINE",
"134 173 LINE",
"433 173 LINE",
"416 250 LINE"
);
},
{
closed = 1;
nodes = (
"441 387 LINE",
"461 311 LINE",
"712 311 LINE",
"712 387 LINE"
);
}
);
width = 816;
}
);
leftKerningGroup = AE;
rightKerningGroup = AE;
rightMetricsKey = E;
unicode = 00C6;
},
{
color = 4;
glyphname = B;
lastChange = "2014-03-24 14:20:17 +0100";
layers = (
{
layerId = UUID0;
name = Bold;
paths = (
{
closed = 1;
nodes = (
"43 696 LINE",
"43 0 LINE",
"287 0 LINE SMOOTH",
"470 0 OFFCURVE",
"607 41 OFFCURVE",
"607 206 CURVE SMOOTH",
"607 315 OFFCURVE",
"528 353 OFFCURVE",
"452 369 CURVE",
"514 385 OFFCURVE",
"578 426 OFFCURVE",
"578 516 CURVE SMOOTH",
"578 652 OFFCURVE",
"455 696 OFFCURVE",
"260 696 CURVE SMOOTH"
);
},
{
closed = 1;
nodes = (
"345 555 OFFCURVE",
"369 536 OFFCURVE",
"369 495 CURVE",
"369 446 OFFCURVE",
"347 427 OFFCURVE",
"284 427 CURVE SMOOTH",
"233 427 LINE",
"233 297 LINE",
"297 297 LINE SMOOTH",
"361 297 OFFCURVE",
"395 274 OFFCURVE",
"395 220 CURVE SMOOTH",
"395 158 OFFCURVE",
"352 145 OFFCURVE",
"289 145 CURVE SMOOTH",
"249 145 LINE",
"249 555 LINE",
"279 555 LINE SMOOTH"
);
}
);
width = 622;
},
{
layerId = "F257A41E-77B2-4FB8-8247-C188CBBE1401";
name = Light;
paths = (
{
closed = 1;
nodes = (
"130 680 LINE",
"130 0 LINE",
"287 0 LINE SMOOTH",
"417 0 OFFCURVE",
"516 46 OFFCURVE",
"516 183 CURVE SMOOTH",
"516 294 OFFCURVE",
"432 355 OFFCURVE",
"336 360 CURVE",
"414 370 OFFCURVE",
"478 428 OFFCURVE",
"478 513 CURVE SMOOTH",
"478 619 OFFCURVE",
"403 680 OFFCURVE",
"264 680 CURVE SMOOTH"
);
},
{
closed = 1;
nodes = (
"403 678 OFFCURVE",
"476 617 OFFCURVE",
"476 513 CURVE SMOOTH",
"476 429 OFFCURVE",
"408 361 OFFCURVE",
"312 361 CURVE SMOOTH",
"131 361 LINE",
"131 359 LINE",
"317 359 LINE SMOOTH",
"430 359 OFFCURVE",
"514 292 OFFCURVE",
"514 183 CURVE SMOOTH",
"514 46 OFFCURVE",
"415 2 OFFCURVE",
"288 2 CURVE SMOOTH",
"132 2 LINE",
"132 678 LINE",
"265 678 LINE SMOOTH"
);
}
);
width = 581;
},
{
layerId = "BCC09A48-EAE1-493E-95CB-92D2C26BC05D";
leftMetricsKey = H;
name = Regular;
paths = (
{
closed = 1;
nodes = (
"120 682 LINE",
"120 0 LINE",
"304 0 LINE SMOOTH",
"447 0 OFFCURVE",
"529 67 OFFCURVE",
"529 185 CURVE SMOOTH",
"529 304 OFFCURVE",
"457 357 OFFCURVE",
"372 362 CURVE",
"447 375 OFFCURVE",
"495 422 OFFCURVE",
"495 513 CURVE SMOOTH",
"495 626 OFFCURVE",
"410 682 OFFCURVE",
"264 682 CURVE SMOOTH"
);
},
{
closed = 1;
nodes = (
"393 653 OFFCURVE",
"463 609 OFFCURVE",
"463 512 CURVE SMOOTH",
"463 426 OFFCURVE",
"405 374 OFFCURVE",
"317 374 CURVE SMOOTH",
"144 374 LINE",
"144 346 LINE",
"322 346 LINE SMOOTH",
"424 346 OFFCURVE",
"497 295 OFFCURVE",
"497 185 CURVE SMOOTH",
"497 81 OFFCURVE",
"425 29 OFFCURVE",
"305 29 CURVE SMOOTH",
"151 29 LINE",
"151 653 LINE",
"268 653 LINE SMOOTH"
);
}
);
width = 589;
},
{
layerId = "A11F629A-ECF3-413E-B2EC-6C6F8C33A243";
name = Regular;
paths = (
{
closed = 1;
nodes = (
"100 689 LINE",
"100 0 LINE",
"290 0 LINE SMOOTH",
"450 0 OFFCURVE",
"563 50 OFFCURVE",
"563 196 CURVE SMOOTH",
"563 313 OFFCURVE",
"484 350 OFFCURVE",
"404 364 CURVE",
"471 378 OFFCURVE",
"533 430 OFFCURVE",
"533 515 CURVE SMOOTH",
"533 635 OFFCURVE",
"433 689 OFFCURVE",
"263 689 CURVE SMOOTH"
);
},
{
closed = 1;
nodes = (
"375 614 OFFCURVE",
"436 593 OFFCURVE",
"436 508 CURVE SMOOTH",
"436 435 OFFCURVE",
"376 397 OFFCURVE",
"299 397 CURVE SMOOTH",
"179 397 LINE",
"179 324 LINE",
"308 324 LINE SMOOTH",
"391 324 OFFCURVE",
"463 293 OFFCURVE",
"463 196 CURVE SMOOTH",
"463 96 OFFCURVE",
"390 76 OFFCURVE",
"290 76 CURVE SMOOTH",
"195 76 LINE",
"195 614 LINE",
"273 614 LINE SMOOTH"
);
}
);
width = 608;
}
);
leftKerningGroup = H;
leftMetricsKey = H;
rightKerningGroup = B;
unicode = 0042;
},
{
color = 4;
glyphname = C;
lastChange = "2014-03-24 14:20:17 +0100";
layers = (
{
anchors = (
{
name = bottom;
position = "{339, 0}";
},
{
name = top;
position = "{358, 696}";
}
);
background = {
paths = (
{
closed = 1;
nodes = (
"156 716 OFFCURVE",
"20 582 OFFCURVE",
"20 350 CURVE SMOOTH",
"20 109 OFFCURVE",
"148 -20 OFFCURVE",
"342 -20 CURVE SMOOTH",
"449 -20 OFFCURVE",
"533 26 OFFCURVE",
"584 77 CURVE",
"494 193 LINE",
"453 161 OFFCURVE",
"412 135 OFFCURVE",
"354 135 CURVE SMOOTH",
"280 135 OFFCURVE",
"234 203 OFFCURVE",
"234 350 CURVE SMOOTH",
"234 497 OFFCURVE",
"282 568 OFFCURVE",
"360 568 CURVE SMOOTH",
"408 568 OFFCURVE",
"445 549 OFFCURVE",
"478 519 CURVE",
"576 634 LINE",
"517 685 OFFCURVE",
"445 716 OFFCURVE",
"348 716 CURVE SMOOTH"
);
}
);
};
layerId = UUID0;
name = Bold;
paths = (
{
closed = 1;
nodes = (
"156 716 OFFCURVE",
"20 582 OFFCURVE",
"20 350 CURVE SMOOTH",
"20 109 OFFCURVE",
"151 -20 OFFCURVE",
"354 -20 CURVE SMOOTH",
"452 -20 OFFCURVE",
"533 26 OFFCURVE",
"584 77 CURVE",
"494 193 LINE",
"453 161 OFFCURVE",
"415 135 OFFCURVE",
"366 135 CURVE SMOOTH",
"283 135 OFFCURVE",
"234 203 OFFCURVE",
"234 350 CURVE SMOOTH",
"234 497 OFFCURVE",
"282 568 OFFCURVE",
"360 568 CURVE SMOOTH",
"408 568 OFFCURVE",
"445 549 OFFCURVE",
"478 519 CURVE",
"576 634 LINE",
"517 685 OFFCURVE",
"445 716 OFFCURVE",
"348 716 CURVE SMOOTH"
);
}
);
width = 584;
},
{
anchors = (
{
name = bottom;
position = "{341, 0}";
},
{
name = top;
position = "{343, 680}";
}
);
layerId = "F257A41E-77B2-4FB8-8247-C188CBBE1401";
leftMetricsKey = O;
name = Light;
paths = (
{
closed = 1;
nodes = (
"191 690 OFFCURVE",
"85 577 OFFCURVE",
"85 339 CURVE SMOOTH",
"85 114 OFFCURVE",
"188 -9 OFFCURVE",
"341 -9 CURVE SMOOTH",
"423 -9 OFFCURVE",
"471 23 OFFCURVE",
"503 50 CURVE",
"502 52 LINE",
"470 25 OFFCURVE",
"422 -7 OFFCURVE",
"341 -7 CURVE SMOOTH",
"190 -7 OFFCURVE",
"87 115 OFFCURVE",
"87 339 CURVE SMOOTH",
"87 575 OFFCURVE",
"193 688 OFFCURVE",
"342 688 CURVE SMOOTH",
"415 688 OFFCURVE",
"458 662 OFFCURVE",
"493 631 CURVE",
"494 633 LINE",
"459 664 OFFCURVE",
"416 690 OFFCURVE",
"342 690 CURVE SMOOTH"
);
}
);
width = 529;
},
{
anchors = (
{
name = bottom;
position = "{341, 0}";
},
{
name = top;
position = "{342, 682}";
}
);
layerId = "BCC09A48-EAE1-493E-95CB-92D2C26BC05D";
leftMetricsKey = O;
name = Regular;
paths = (
{
closed = 1;
nodes = (
"196 692 OFFCURVE",
"75 577 OFFCURVE",
"75 341 CURVE SMOOTH",
"75 112 OFFCURVE",
"190 -10 OFFCURVE",
"342 -10 CURVE SMOOTH",
"420 -10 OFFCURVE",
"473 17 OFFCURVE",
"517 55 CURVE",
"498 78 LINE",
"457 44 OFFCURVE",
"418 20 OFFCURVE",
"343 20 CURVE SMOOTH",
"212 20 OFFCURVE",
"107 126 OFFCURVE",
"107 341 CURVE SMOOTH",
"107 568 OFFCURVE",
"215 663 OFFCURVE",
"347 663 CURVE SMOOTH",
"409 663 OFFCURVE",
"445 647 OFFCURVE",
"492 611 CURVE",
"509 633 LINE",
"465 669 OFFCURVE",
"420 692 OFFCURVE",
"345 692 CURVE SMOOTH"
);
}
);
width = 542;
},
{
anchors = (
{
name = bottom;
position = "{346, 0}";
},
{
name = top;
position = "{347, 689}";
}
);
layerId = "A11F629A-ECF3-413E-B2EC-6C6F8C33A243";
name = Regular;
paths = (
{
closed = 1;
nodes = (
"185 701 OFFCURVE",
"55 578 OFFCURVE",
"55 345 CURVE SMOOTH",
"55 113 OFFCURVE",
"176 -12 OFFCURVE",
"343 -12 CURVE SMOOTH",
"436 -12 OFFCURVE",
"503 26 OFFCURVE",
"540 65 CURVE",
"492 126 LINE",
"453 97 OFFCURVE",
"411 68 OFFCURVE",
"346 68 CURVE SMOOTH",
"239 68 OFFCURVE",
"156 146 OFFCURVE",
"156 345 CURVE SMOOTH",
"156 553 OFFCURVE",
"243 623 OFFCURVE",
"347 623 CURVE SMOOTH",
"395 623 OFFCURVE",
"437 607 OFFCURVE",
"480 572 CURVE",
"532 633 LINE",
"477 677 OFFCURVE",
"428 701 OFFCURVE",
"341 701 CURVE SMOOTH"
);
}
);
width = 560;
}
);
leftKerningGroup = O;
leftMetricsKey = O;
rightKerningGroup = C;
unicode = 0043;
},
{
color = 7;
glyphname = Ccedilla;
lastChange = "2014-03-03 18:40:37 +0100";
layers = (
{
background = {
paths = (
{
closed = 1;
nodes = (
"347 -167 OFFCURVE",
"330 -173 OFFCURVE",
"300 -173 CURVE SMOOTH",
"278 -173 OFFCURVE",
"258 -166 OFFCURVE",
"238 -155 CURVE",
"195 -241 LINE",
"222 -258 OFFCURVE",
"268 -275 OFFCURVE",
"320 -275 CURVE SMOOTH",
"425 -275 OFFCURVE",
"484 -220 OFFCURVE",
"484 -151 CURVE SMOOTH",
"484 -89 OFFCURVE",
"447 -52 OFFCURVE",
"374 -43 CURVE",
"374 -18 LINE",
"466 -10 OFFCURVE",
"538 31 OFFCURVE",
"584 77 CURVE",
"494 193 LINE",
"453 161 OFFCURVE",
"412 135 OFFCURVE",
"354 135 CURVE SMOOTH",
"280 135 OFFCURVE",
"234 203 OFFCURVE",
"234 350 CURVE SMOOTH",
"234 497 OFFCURVE",
"282 568 OFFCURVE",
"360 568 CURVE SMOOTH",
"408 568 OFFCURVE",
"445 549 OFFCURVE",
"478 519 CURVE",
"576 634 LINE",
"517 685 OFFCURVE",
"445 716 OFFCURVE",
"348 716 CURVE SMOOTH",
"156 716 OFFCURVE",
"20 582 OFFCURVE",
"20 350 CURVE SMOOTH",
"20 142 OFFCURVE",
"115 17 OFFCURVE",
"266 -13 CURVE",
"253 -120 LINE",
"318 -120 OFFCURVE",
"347 -127 OFFCURVE",
"347 -148 CURVE SMOOTH"
);
}
);
};
components = (
{
name = C;
transform = "{1, 0, 0, 1, 0, 0}";
},
{
name = cedilla.case;
transform = "{1, 0, 0, 1, 179, 0}";
}
);
layerId = UUID0;
name = Bold;
width = 584;
},
{
background = {
paths = (
{
closed = 1;
nodes = (
"327 -8 LINE",
"322 -74 LINE",
"373 -76 OFFCURVE",
"403 -95 OFFCURVE",
"402 -136 CURVE SMOOTH",
"401 -176 OFFCURVE",
"368 -190 OFFCURVE",
"335 -190 CURVE SMOOTH",
"311 -190 OFFCURVE",
"293 -185 OFFCURVE",
"282 -179 CURVE",
"281 -181 LINE",
"295 -187 OFFCURVE",
"309 -192 OFFCURVE",
"335 -192 CURVE SMOOTH",
"369 -192 OFFCURVE",
"403 -178 OFFCURVE",
"404 -136 CURVE SMOOTH",
"405 -88 OFFCURVE",
"365 -74 OFFCURVE",
"324 -72 CURVE",
"329 -8 LINE"
);
}
);
};
components = (
{
name = C;
transform = "{1, 0, 0, 1, 0, 0}";
},
{
name = cedilla.case;
transform = "{1, 0, 0, 1, 266, 0}";
}
);
layerId = "F257A41E-77B2-4FB8-8247-C188CBBE1401";
name = Light;
width = 529;
},
{
components = (
{
name = C;
transform = "{1, 0, 0, 1, 0, 0}";
},
{
name = cedilla.case;
transform = "{1, 0, 0, 1, 245, 0}";
}
);
layerId = "BCC09A48-EAE1-493E-95CB-92D2C26BC05D";
name = Regular;
width = 542;
},
{
components = (
{
name = C;
transform = "{1, 0, 0, 1, 0, 0}";
},
{
name = cedilla.case;
transform = "{1, 0, 0, 1, 224, 0}";
}
);
layerId = "A11F629A-ECF3-413E-B2EC-6C6F8C33A243";
name = Regular;
width = 560;
}
);
leftKerningGroup = O;
rightKerningGroup = C;
unicode = 00C7;
},
{
color = 4;
glyphname = D;
lastChange = "2014-03-24 14:20:17 +0100";
layers = (
{
anchors = (
{
name = center;
position = "{328, 348}";
},
{
name = top;
position = "{291, 696}";
}
);
layerId = UUID0;
leftMetricsKey = H;
rightMetricsKey = O;
name = Bold;
paths = (
{
closed = 1;
nodes = (
"43 696 LINE",
"43 0 LINE",
"278 0 LINE SMOOTH",
"472 0 OFFCURVE",
"636 73 OFFCURVE",
"636 351 CURVE SMOOTH",
"636 637 OFFCURVE",
"457 696 OFFCURVE",
"266 696 CURVE SMOOTH"
);
},
{
closed = 1;
nodes = (
"379 551 OFFCURVE",
"424 509 OFFCURVE",
"424 351 CURVE SMOOTH",
"424 193 OFFCURVE",
"383 145 OFFCURVE",
"290 145 CURVE SMOOTH",
"249 145 LINE",
"249 551 LINE",
"291 551 LINE SMOOTH"
);
}
);
width = 656;
},
{
anchors = (
{
name = center;
position = "{309, 340}";
},
{
name = top;
position = "{289, 680}";
}
);
layerId = "F257A41E-77B2-4FB8-8247-C188CBBE1401";
leftMetricsKey = H;
rightMetricsKey = O;
name = Light;
paths = (
{
closed = 1;
nodes = (
"130 680 LINE",
"130 0 LINE",
"241 0 LINE SMOOTH",
"380 0 OFFCURVE",
"528 69 OFFCURVE",
"528 348 CURVE SMOOTH",
"528 626 OFFCURVE",
"378 680 OFFCURVE",
"234 680 CURVE SMOOTH"
);
},
{
closed = 1;
nodes = (
"377 678 OFFCURVE",
"526 624 OFFCURVE",
"526 348 CURVE SMOOTH",
"526 71 OFFCURVE",
"380 2 OFFCURVE",
"241 2 CURVE SMOOTH",
"132 2 LINE",
"132 678 LINE",
"234 678 LINE SMOOTH"
);
}
);
width = 613;
},
{
anchors = (
{
name = center;
position = "{317, 341}";
},
{
name = top;
position = "{297, 682}";
}
);
layerId = "BCC09A48-EAE1-493E-95CB-92D2C26BC05D";
leftMetricsKey = H;
rightMetricsKey = O;
name = Regular;
paths = (
{
closed = 1;
nodes = (
"120 682 LINE",
"120 0 LINE",
"252 0 LINE SMOOTH",
"386 0 OFFCURVE",
"547 61 OFFCURVE",
"547 348 CURVE SMOOTH",
"547 627 OFFCURVE",
"395 682 OFFCURVE",
"249 682 CURVE SMOOTH"
);
},
{
closed = 1;
nodes = (
"375 653 OFFCURVE",
"515 614 OFFCURVE",
"515 348 CURVE SMOOTH",
"515 87 OFFCURVE",
"380 29 OFFCURVE",
"253 29 CURVE SMOOTH",
"151 29 LINE",
"151 653 LINE",
"246 653 LINE SMOOTH"
);
}
);
width = 622;
},
{
anchors = (
{
name = center;
position = "{323, 345}";
},
{
name = top;
position = "{303, 689}";
}
);
layerId = "A11F629A-ECF3-413E-B2EC-6C6F8C33A243";
name = Regular;
paths = (
{
closed = 1;
nodes = (
"100 689 LINE",
"100 0 LINE",
"265 0 LINE SMOOTH",
"414 0 OFFCURVE",
"589 67 OFFCURVE",
"589 348 CURVE SMOOTH",
"589 634 OFFCURVE",
"420 689 OFFCURVE",
"244 689 CURVE SMOOTH"
);
},
{
closed = 1;
nodes = (
"375 613 OFFCURVE",
"488 581 OFFCURVE",
"488 348 CURVE SMOOTH",
"488 121 OFFCURVE",
"380 75 OFFCURVE",
"272 75 CURVE SMOOTH",
"195 75 LINE",
"195 613 LINE",
"265 613 LINE SMOOTH"
);
}
);
width = 644;
}
);
leftKerningGroup = H;
leftMetricsKey = H;
rightKerningGroup = O;
rightMetricsKey = O;
unicode = 0044;
},
{
color = 7;
glyphname = Eth;
lastChange = "2014-03-17 16:12:10 +0100";
layers = (
{
background = {
paths = (
{
closed = 1;
nodes = (
"643 637 OFFCURVE",
"464 696 OFFCURVE",
"273 696 CURVE SMOOTH",
"50 696 LINE",
"50 411 LINE",
"0 411 LINE",
"0 295 LINE",
"50 295 LINE",
"50 0 LINE",
"285 0 LINE SMOOTH",
"479 0 OFFCURVE",
"643 73 OFFCURVE",
"643 351 CURVE SMOOTH"
);
},
{
closed = 1;
nodes = (
"431 193 OFFCURVE",
"390 145 OFFCURVE",
"297 145 CURVE SMOOTH",
"256 145 LINE",
"256 295 LINE",
"375 295 LINE",
"375 411 LINE",
"256 411 LINE",
"256 551 LINE",
"298 551 LINE SMOOTH",
"386 551 OFFCURVE",
"431 509 OFFCURVE",
"431 351 CURVE SMOOTH"
);
}
);
};
components = (
{
disableAlignment = 1;
name = D;
transform = "{1, 0, 0, 1, 7, 0}";
}
);
layerId = UUID0;
name = Bold;
paths = (
{
closed = 1;
nodes = (
"49 411 LINE",
"0 411 LINE",
"0 295 LINE",
"375 295 LINE",
"375 411 LINE"
);
}
);
width = 663;
},
{
components = (
{
name = D;
transform = "{1, 0, 0, 1, 0, 0}";
}
);
layerId = "F257A41E-77B2-4FB8-8247-C188CBBE1401";
rightMetricsKey = D;
name = Light;
paths = (
{
closed = 1;
nodes = (
"130 354 LINE",
"36 354 LINE",
"36 352 LINE",
"328 352 LINE",
"328 354 LINE"
);
}
);
width = 613;
},
{
components = (
{
name = D;
transform = "{1, 0, 0, 1, 0, 0}";
}
);
layerId = "BCC09A48-EAE1-493E-95CB-92D2C26BC05D";
name = Regular;
paths = (
{
closed = 1;
nodes = (
"120 367 LINE",
"29 367 LINE",
"29 339 LINE",
"341 339 LINE",
"341 367 LINE"
);
}
);
width = 622;
},
{
components = (
{
disableAlignment = 1;
name = D;
transform = "{1, 0, 0, 1, 7, 0}";
}
);
layerId = "A11F629A-ECF3-413E-B2EC-6C6F8C33A243";
rightMetricsKey = D;
name = Regular;
paths = (
{
closed = 1;
nodes = (
"107 388 LINE",
"15 388 LINE",
"15 318 LINE",
"359 318 LINE",
"359 388 LINE"
);
}
);
width = 651;
}
);
leftKerningGroup = H;
rightKerningGroup = O;
rightMetricsKey = D;
unicode = 00D0;
},
{
color = 7;
glyphname = Dcroat;
lastChange = "2014-03-03 17:56:36 +0100";
layers = (
{
components = (
{
name = Eth;
transform = "{1, 0, 0, 1, 0, 0}";
}
);
layerId = UUID0;
leftMetricsKey = Eth;
rightMetricsKey = Eth;
name = Bold;
width = 663;
},
{
background = {
paths = (
{
closed = 1;
nodes = (
"23 369 LINE",
"23 337 LINE",
"145 337 LINE",
"335 337 LINE",
"335 369 LINE",
"114 369 LINE"
);
}
);
};
components = (
{
name = Eth;
transform = "{1, 0, 0, 1, 0, 0}";
}
);
layerId = "F257A41E-77B2-4FB8-8247-C188CBBE1401";
name = Light;
width = 613;
},
{
components = (
{
name = Eth;
transform = "{1, 0, 0, 1, 0, 0}";
}
);
layerId = "BCC09A48-EAE1-493E-95CB-92D2C26BC05D";
name = Regular;
width = 622;
},
{
components = (
{
name = Eth;
transform = "{1, 0, 0, 1, 0, 0}";
}
);
layerId = "A11F629A-ECF3-413E-B2EC-6C6F8C33A243";
name = Regular;
width = 651;
}
);
leftKerningGroup = H;
leftMetricsKey = Eth;
rightKerningGroup = O;
rightMetricsKey = Eth;
unicode = 0110;
},
{
color = 0;
glyphname = E;
lastChange = "2014-04-03 13:36:26 +0100";
layers = (
{
anchors = (
{
name = bottom;
position = "{269, 0}";
},
{
name = ogonek;
position = "{465, 0}";
},
{
name = top;
position = "{272, 696}";
},
{
name = topleft;
position = "{43, 696}";
}
);
layerId = UUID0;
name = Bold;
paths = (
{
closed = 1;
nodes = (
"43 696 LINE",
"43 0 LINE",
"495 0 LINE",
"495 144 LINE",
"249 144 LINE",
"249 284 LINE",
"451 284 LINE",
"451 423 LINE",
"249 423 LINE",
"249 553 LINE",
"479 553 LINE",
"500 696 LINE"
);
}
);
width = 520;
},
{
anchors = (
{
name = bottom;
position = "{284, 0}";
},
{
name = ogonek;
position = "{425, 0}";
},
{
name = top;
position = "{284, 680}";
},
{
name = topleft;
position = "{80, 680}";
}
);
layerId = "F257A41E-77B2-4FB8-8247-C188CBBE1401";
leftMetricsKey = H;
name = Light;
paths = (
{
closed = 1;
nodes = (
"130 680 LINE",
"130 0 LINE",
"445 0 LINE",
"445 2 LINE",
"132 2 LINE",
"132 360 LINE",
"392 360 LINE",
"392 362 LINE",
"132 362 LINE",
"132 678 LINE",
"435 678 LINE",
"435 680 LINE"
);
}
);
width = 495;
},
{
anchors = (
{
name = bottom;
position = "{283, 0}";
},
{
name = ogonek;
position = "{438, 0}";
},
{
name = top;
position = "{288, 682}";
},
{
name = topleft;
position = "{90, 682}";
}
);
background = {
paths = (
{
closed = 1;
nodes = (
"114 682 LINE",
"114 0 LINE",
"447 0 LINE",
"447 30 LINE",
"145 30 LINE",
"145 344 LINE",
"397 344 LINE",
"397 374 LINE",
"145 374 LINE",
"145 652 LINE",
"435 652 LINE",
"439 682 LINE"
);
}
);
};
layerId = "BCC09A48-EAE1-493E-95CB-92D2C26BC05D";
leftMetricsKey = H;
name = Regular;
paths = (
{
closed = 1;
nodes = (
"120 682 LINE",
"120 0 LINE",
"453 0 LINE",
"453 29 LINE",
"151 29 LINE",
"151 345 LINE",
"403 345 LINE",
"403 373 LINE",
"151 373 LINE",
"151 653 LINE",
"443 653 LINE",
"447 682 LINE"
);
}
);
width = 493;
},
{
anchors = (
{
name = bottom;
position = "{291, 0}";
},
{
name = ogonek;
position = "{451, 0}";
},
{
name = top;
position = "{290, 689}";
},
{
name = topleft;
position = "{90, 689}";
}
);
layerId = "A11F629A-ECF3-413E-B2EC-6C6F8C33A243";
name = Regular;
paths = (
{
closed = 1;
nodes = (
"100 689 LINE",
"100 0 LINE",
"481 0 LINE",
"481 76 LINE",
"195 76 LINE",
"195 312 LINE",
"427 312 LINE",
"427 388 LINE",
"195 388 LINE",
"195 613 LINE",
"462 613 LINE",
"473 689 LINE"
);
}
);
width = 535;
}
);
leftKerningGroup = H;
leftMetricsKey = H;
rightKerningGroup = E;
unicode = 0045;
},
{
color = 0;
glyphname = Eogonek;
lastChange = "2014-03-21 08:57:37 +0100";
layers = (
{
background = {
paths = (
{
closed = 1;
nodes = (
"479 553 LINE",
"500 696 LINE",
"43 696 LINE",
"43 0 LINE",
"386 0 LINE",
"314 -34 OFFCURVE",
"274 -83 OFFCURVE",
"274 -140 CURVE SMOOTH",
"274 -220 OFFCURVE",
"337 -267 OFFCURVE",
"428 -267 CURVE SMOOTH",
"472 -267 OFFCURVE",
"517 -255 OFFCURVE",
"550 -238 CURVE",
"514 -148 LINE",
"499 -155 OFFCURVE",
"472 -162 OFFCURVE",
"447 -162 CURVE SMOOTH",
"417 -162 OFFCURVE",
"401 -141 OFFCURVE",
"401 -114 CURVE SMOOTH",
"401 -81 OFFCURVE",
"418 -42 OFFCURVE",
"495 0 CURVE",
"495 144 LINE",
"249 144 LINE",
"249 284 LINE",
"451 284 LINE",
"451 423 LINE",
"249 423 LINE",
"249 553 LINE"
);
}
);
};
components = (
{
name = E;
transform = "{1, 0, 0, 1, 0, 0}";
},
{
name = ogonek;
transform = "{1, 0, 0, 1, 204, 0}";
}
);
layerId = UUID0;
name = Bold;
width = 520;
},
{
components = (
{
name = E;
transform = "{1, 0, 0, 1, 0, 0}";
},
{
name = ogonek;
transform = "{1, 0, 0, 1, 292, 0}";
}
);
layerId = "F257A41E-77B2-4FB8-8247-C188CBBE1401";
name = Light;
width = 495;
},
{
components = (
{
name = E;
transform = "{1, 0, 0, 1, 0, 0}";
},
{
name = ogonek;
transform = "{1, 0, 0, 1, 276, 0}";
}
);
layerId = "BCC09A48-EAE1-493E-95CB-92D2C26BC05D";
name = Regular;
width = 493;
},
{
components = (
{
name = E;
transform = "{1, 0, 0, 1, 0, 0}";
},
{
name = ogonek;
transform = "{1, 0, 0, 1, 243, 0}";
}
);
layerId = "A11F629A-ECF3-413E-B2EC-6C6F8C33A243";
name = Regular;
width = 535;
}
);
leftKerningGroup = H;
rightKerningGroup = E;
unicode = 0118;
},
{
color = 4;
glyphname = F;
lastChange = "2014-05-22 15:56:41 +0100";
layers = (
{
layerId = UUID0;
name = Bold;
paths = (
{
closed = 1;
nodes = (
"43 696 LINE SMOOTH",
"43 0 LINE SMOOTH",
"249 0 LINE SMOOTH",
"249 258 LINE SMOOTH",
"438 258 LINE SMOOTH",
"438 401 LINE SMOOTH",
"249 401 LINE SMOOTH",
"249 553 LINE SMOOTH",
"464 553 LINE SMOOTH",
"485 696 LINE SMOOTH"
);
}
);
width = 485;
},
{
layerId = "F257A41E-77B2-4FB8-8247-C188CBBE1401";
leftMetricsKey = H;
name = Light;
paths = (
{
closed = 1;
nodes = (
"130 680 LINE",
"130 0 LINE",
"132 0 LINE",
"132 345 LINE",
"390 345 LINE",
"390 347 LINE",
"132 347 LINE",
"132 678 LINE",
"430 678 LINE",
"430 680 LINE"
);
}
);
width = 470;
},
{
background = {
paths = (
{
closed = 1;
nodes = (
"114 682 LINE",
"114 0 LINE",
"145 0 LINE",
"145 330 LINE",
"393 330 LINE",
"393 360 LINE",
"145 360 LINE",
"145 652 LINE",
"432 652 LINE",
"436 682 LINE"
);
}
);
};
layerId = "BCC09A48-EAE1-493E-95CB-92D2C26BC05D";
leftMetricsKey = H;
name = Regular;
paths = (
{
closed = 1;
nodes = (
"120 682 LINE",
"120 0 LINE",
"151 0 LINE",
"151 331 LINE",
"399 331 LINE",
"399 359 LINE",
"151 359 LINE",
"151 653 LINE",
"438 653 LINE",
"442 682 LINE"
);
}
);
width = 472;
},
{
layerId = "A11F629A-ECF3-413E-B2EC-6C6F8C33A243";
name = Regular;
paths = (
{
closed = 1;
nodes = (
"100 689 LINE",
"100 0 LINE",
"195 0 LINE",
"195 303 LINE",
"420 303 LINE",
"420 378 LINE",
"195 378 LINE",
"195 613 LINE",
"455 613 LINE",
"466 689 LINE"
);
}
);
width = 491;
}
);
leftKerningGroup = H;
leftMetricsKey = H;
rightKerningGroup = F;
unicode = 0046;
},
{
color = 4;
glyphname = G;
lastChange = "2014-03-24 14:20:05 +0100";
layers = (
{
anchors = (
{
name = bottom;
position = "{350, 0}";
},
{
name = top;
position = "{350, 696}";
}
);
layerId = UUID0;
name = Bold;
paths = (
{
closed = 1;
nodes = (
"170 716 OFFCURVE",
"20 585 OFFCURVE",
"20 349 CURVE SMOOTH",
"20 112 OFFCURVE",
"122 -20 OFFCURVE",
"355 -20 CURVE SMOOTH",
"442 -20 OFFCURVE",
"543 9 OFFCURVE",
"618 60 CURVE",
"618 409 LINE",
"331 409 LINE",
"350 270 LINE",
"420 270 LINE",
"420 143 LINE",
"398 132 OFFCURVE",
"376 126 OFFCURVE",
"349 126 CURVE SMOOTH",
"268 126 OFFCURVE",
"232 176 OFFCURVE",
"232 348 CURVE SMOOTH",
"232 501 OFFCURVE",
"287 572 OFFCURVE",
"383 572 CURVE SMOOTH",
"436 572 OFFCURVE",
"472 554 OFFCURVE",
"514 518 CURVE",
"618 625 LINE",
"562 676 OFFCURVE",
"476 716 OFFCURVE",
"371 716 CURVE SMOOTH"
);
}
);
width = 653;
},
{
anchors = (
{
name = bottom;
position = "{338, 0}";
},
{
name = top;
position = "{337, 680}";
}
);
layerId = "F257A41E-77B2-4FB8-8247-C188CBBE1401";
leftMetricsKey = O;
name = Light;
paths = (
{
closed = 1;
nodes = (
"217 690 OFFCURVE",
"85 582 OFFCURVE",
"85 345 CURVE SMOOTH",
"85 114 OFFCURVE",
"190 -9 OFFCURVE",
"353 -9 CURVE SMOOTH",
"423 -9 OFFCURVE",
"479 15 OFFCURVE",
"519 39 CURVE",
"519 342 LINE",
"366 342 LINE",
"366 340 LINE",
"517 340 LINE",
"517 40 LINE",
"479 17 OFFCURVE",
"424 -7 OFFCURVE",
"353 -7 CURVE SMOOTH",
"190 -7 OFFCURVE",
"87 116 OFFCURVE",
"87 345 CURVE SMOOTH",
"87 580 OFFCURVE",
"218 688 OFFCURVE",
"343 688 CURVE SMOOTH",
"404 688 OFFCURVE",
"452 669 OFFCURVE",
"499 633 CURVE",
"500 635 LINE",
"452 671 OFFCURVE",
"405 690 OFFCURVE",
"343 690 CURVE SMOOTH"
);
}
);
width = 599;
},
{
anchors = (
{
name = bottom;
position = "{337, 0}";
},
{
name = top;
position = "{349, 682}";
}
);
layerId = "BCC09A48-EAE1-493E-95CB-92D2C26BC05D";
leftMetricsKey = O;
name = Regular;
paths = (
{
closed = 1;
nodes = (
"215 692 OFFCURVE",
"75 583 OFFCURVE",
"75 345 CURVE SMOOTH",
"75 109 OFFCURVE",
"189 -10 OFFCURVE",
"353 -10 CURVE SMOOTH",
"416 -10 OFFCURVE",
"481 8 OFFCURVE",
"538 42 CURVE",
"538 359 LINE",
"360 359 LINE",
"364 330 LINE",
"507 330 LINE",
"507 58 LINE",
"462 33 OFFCURVE",
"418 19 OFFCURVE",
"353 19 CURVE SMOOTH",
"207 19 OFFCURVE",
"107 125 OFFCURVE",
"107 345 CURVE SMOOTH",
"107 574 OFFCURVE",
"233 663 OFFCURVE",
"348 663 CURVE SMOOTH",
"411 663 OFFCURVE",
"456 647 OFFCURVE",
"504 610 CURVE",
"523 631 LINE",
"470 672 OFFCURVE",
"422 692 OFFCURVE",
"348 692 CURVE SMOOTH"
);
}
);
width = 608;
},
{
anchors = (
{
name = bottom;
position = "{343, 0}";
},
{
name = top;
position = "{355, 689}";
}
);
layerId = "A11F629A-ECF3-413E-B2EC-6C6F8C33A243";
name = Regular;
paths = (
{
closed = 1;
nodes = (
"197 701 OFFCURVE",
"55 577 OFFCURVE",
"55 345 CURVE SMOOTH",
"55 107 OFFCURVE",
"166 -12 OFFCURVE",
"337 -12 CURVE SMOOTH",
"434 -12 OFFCURVE",
"506 12 OFFCURVE",
"569 49 CURVE",
"569 382 LINE",
"342 382 LINE",
"353 305 LINE",
"475 305 LINE",
"475 98 LINE",
"436 75 OFFCURVE",
"390 66 OFFCURVE",
"344 66 CURVE SMOOTH",
"223 66 OFFCURVE",
"156 147 OFFCURVE",
"156 345 CURVE SMOOTH",
"156 548 OFFCURVE",
"255 623 OFFCURVE",
"354 623 CURVE SMOOTH",
"416 623 OFFCURVE",
"457 606 OFFCURVE",
"505 567 CURVE",
"561 625 LINE",
"502 674 OFFCURVE",
"445 701 OFFCURVE",
"352 701 CURVE SMOOTH"
);
}
);
width = 631;
}
);
leftKerningGroup = O;
leftMetricsKey = O;
rightKerningGroup = G;
unicode = 0047;
},
{
color = 4;
glyphname = H;
lastChange = "2014-03-03 18:31:58 +0100";
layers = (
{
anchors = (
{
name = bottomright;
position = "{624, 0}";
},
{
name = center;
position = "{329, 348}";
},
{
name = top;
position = "{329, 696}";
},
{
name = topleft;
position = "{43, 696}";
}
);
layerId = UUID0;
name = Bold;
paths = (
{
closed = 1;
nodes = (
"614 0 LINE",
"614 696 LINE",
"408 696 LINE",
"408 439 LINE",
"249 439 LINE",
"249 696 LINE",
"43 696 LINE",
"43 0 LINE",
"249 0 LINE",
"249 281 LINE",
"408 281 LINE",
"408 0 LINE"
);
}
);
width = 657;
},
{
anchors = (
{
name = bottomright;
position = "{534, 0}";
},
{
name = center;
position = "{326, 340}";
},
{
name = top;
position = "{326, 680}";
},
{
name = topleft;
position = "{80, 680}";
}
);
layerId = "F257A41E-77B2-4FB8-8247-C188CBBE1401";
name = Light;
paths = (
{
closed = 1;
nodes = (
"524 0 LINE",
"524 680 LINE",
"522 680 LINE",
"522 362 LINE",
"132 362 LINE",
"132 680 LINE",
"130 680 LINE",
"130 0 LINE",
"132 0 LINE",
"132 360 LINE",
"522 360 LINE",
"522 0 LINE"
);
}
);
width = 654;
},
{
anchors = (
{
name = bottomright;
position = "{552, 0}";
},
{
name = center;
position = "{329, 341}";
},
{
name = top;
position = "{329, 682}";
},
{
name = topleft;
position = "{90, 682}";
}
);
layerId = "BCC09A48-EAE1-493E-95CB-92D2C26BC05D";
name = Regular;
paths = (
{
closed = 1;
nodes = (
"542 0 LINE",
"542 682 LINE",
"511 682 LINE",
"511 374 LINE",
"151 374 LINE",
"151 682 LINE",
"120 682 LINE",
"120 0 LINE",
"151 0 LINE",
"151 345 LINE",
"511 345 LINE",
"511 0 LINE"
);
}
);
width = 662;
},
{
anchors = (
{
name = bottomright;
position = "{590, 0}";
},
{
name = center;
position = "{340, 345}";
},
{
name = top;
position = "{340, 689}";
},
{
name = topleft;
position = "{90, 689}";
}
);
layerId = "A11F629A-ECF3-413E-B2EC-6C6F8C33A243";
name = Regular;
paths = (
{
closed = 1;
nodes = (
"580 0 LINE",
"580 689 LINE",
"485 689 LINE",
"485 401 LINE",
"195 401 LINE",
"195 689 LINE",
"100 689 LINE",
"100 0 LINE",
"195 0 LINE",
"195 323 LINE",
"485 323 LINE",
"485 0 LINE"
);
}
);
width = 680;
}
);
leftKerningGroup = H;
rightKerningGroup = H;
unicode = 0048;
},
{
color = 7;
glyphname = Hbar;
lastChange = "2014-03-03 17:56:36 +0100";
layers = (
{
background = {
paths = (
{
closed = 1;
nodes = (
"621 0 LINE",
"621 495 LINE",
"671 495 LINE",
"671 601 LINE",
"621 601 LINE",
"621 696 LINE",
"415 696 LINE",
"415 601 LINE",
"256 601 LINE",
"256 696 LINE",
"50 696 LINE",
"50 601 LINE",
"0 601 LINE",
"0 495 LINE",
"50 495 LINE",
"50 0 LINE",
"256 0 LINE",
"256 281 LINE",
"415 281 LINE",
"415 0 LINE"
);
},
{
closed = 1;
nodes = (
"256 439 LINE",
"256 495 LINE",
"415 495 LINE",
"415 439 LINE"
);
}
);
};
components = (
{
disableAlignment = 1;
name = H;
transform = "{1, 0, 0, 1, 7, 0}";
}
);
layerId = UUID0;
name = Bold;
paths = (
{
closed = 1;
nodes = (
"622 601 LINE",
"0 601 LINE",
"0 495 LINE",
"49 495 LINE",
"671 495 LINE",
"671 601 LINE"
);
}
);
width = 671;
},
{
components = (
{
disableAlignment = 1;
name = H;
transform = "{1, 0, 0, 1, 8, 0}";
}
);
layerId = "F257A41E-77B2-4FB8-8247-C188CBBE1401";
name = Light;
paths = (
{
closed = 1;
nodes = (
"530 528 LINE",
"85 528 LINE",
"85 526 LINE",
"138 526 LINE",
"583 526 LINE",
"583 528 LINE"
);
}
);
width = 668;
},
{
components = (
{
disableAlignment = 1;
name = H;
transform = "{1, 0, 0, 1, 4, 0}";
}
);
layerId = "BCC09A48-EAE1-493E-95CB-92D2C26BC05D";
name = Regular;
paths = (
{
closed = 1;
nodes = (
"534 542 LINE",
"55 542 LINE",
"55 518 LINE",
"118 518 LINE",
"597 518 LINE",
"597 542 LINE"
);
}
);
width = 652;
},
{
background = {
paths = (
{
closed = 1;
nodes = (
"583 0 LINE",
"583 508 LINE",
"660 508 LINE",
"660 577 LINE",
"583 577 LINE",
"583 689 LINE",
"488 689 LINE",
"488 577 LINE",
"207 577 LINE",
"207 689 LINE",
"112 689 LINE",
"112 577 LINE",
"35 577 LINE",
"35 508 LINE",
"112 508 LINE",
"112 0 LINE",
"207 0 LINE",
"207 323 LINE",
"488 323 LINE",
"488 0 LINE"
);
},
{
closed = 1;
nodes = (
"207 401 LINE",
"207 508 LINE",
"488 508 LINE",
"488 401 LINE"
);
}
);
};
components = (
{
disableAlignment = 1;
name = H;
transform = "{1, 0, 0, 1, 4, 0}";
}
);
layerId = "A11F629A-ECF3-413E-B2EC-6C6F8C33A243";
name = Regular;
paths = (
{
closed = 1;
nodes = (
"584 577 LINE",
"35 577 LINE",
"35 508 LINE",
"104 508 LINE",
"653 508 LINE",
"653 577 LINE"
);
}
);
width = 688;
}
);
leftKerningGroup = H;
rightKerningGroup = H;
unicode = 0126;
},
{
color = 4;
glyphname = I;
lastChange = "2014-03-24 14:20:17 +0100";
layers = (
{
anchors = (
{
name = ogonek;
position = "{213, 0}";
},
{
name = top;
position = "{146, 696}";
},
{
name = topleft;
position = "{43, 696}";
}
);
layerId = UUID0;
leftMetricsKey = H;
rightMetricsKey = H;
name = Bold;
paths = (
{
closed = 1;
nodes = (
"43 696 LINE",
"43 0 LINE",
"249 0 LINE",
"249 696 LINE"
);
}
);
width = 292;
},
{
anchors = (
{
name = ogonek;
position = "{142, 0}";
},
{
name = top;
position = "{131, 680}";
},
{
name = topleft;
position = "{80, 680}";
}
);
layerId = "F257A41E-77B2-4FB8-8247-C188CBBE1401";
leftMetricsKey = H;
rightMetricsKey = H;
name = Light;
paths = (
{
closed = 1;
nodes = (
"130 680 LINE",
"130 0 LINE",
"132 0 LINE",
"132 680 LINE"
);
}
);
width = 262;
},
{
anchors = (
{
name = ogonek;
position = "{161, 0}";
},
{
name = top;
position = "{135, 682}";
},
{
name = topleft;
position = "{90, 682}";
}
);
layerId = "BCC09A48-EAE1-493E-95CB-92D2C26BC05D";
leftMetricsKey = H;
rightMetricsKey = H;
name = Regular;
paths = (
{
closed = 1;
nodes = (
"120 682 LINE",
"120 0 LINE",
"151 0 LINE",
"151 682 LINE"
);
}
);
width = 271;
},
{
anchors = (
{
name = ogonek;
position = "{206, 0}";
},
{
name = top;
position = "{148, 689}";
},
{
name = topleft;
position = "{90, 689}";
}
);
layerId = "A11F629A-ECF3-413E-B2EC-6C6F8C33A243";
name = Regular;
paths = (
{
closed = 1;
nodes = (
"100 689 LINE",
"100 0 LINE",
"196 0 LINE",
"196 689 LINE"
);
}
);
width = 296;
}
);
leftKerningGroup = H;
leftMetricsKey = H;
rightKerningGroup = H;
rightMetricsKey = H;
unicode = 0049;
},
{
color = 4;
glyphname = J;
lastChange = "2014-03-28 10:21:59 +0100";
layers = (
{
anchors = (
{
name = top;
position = "{181, 696}";
}
);
layerId = UUID0;
rightMetricsKey = "=H*0.95";
name = Bold;
paths = (
{
closed = 1;
nodes = (
"78 696 LINE",
"78 118 LINE SMOOTH",
"78 41 OFFCURVE",
"69 -10 OFFCURVE",
"-20 -44 CURVE",
"35 -189 LINE",
"156 -149 OFFCURVE",
"284 -83 OFFCURVE",
"284 111 CURVE SMOOTH",
"284 696 LINE"
);
}
);
width = 324.85;
},
{
anchors = (
{
name = top;
position = "{150, 680}";
}
);
layerId = "F257A41E-77B2-4FB8-8247-C188CBBE1401";
rightMetricsKey = "=H*0.95";
name = Light;
paths = (
{
closed = 1;
nodes = (
"148 680 LINE",
"148 85 LINE SMOOTH",
"148 -6 OFFCURVE",
"129 -49 OFFCURVE",
"30 -89 CURVE",
"31 -91 LINE",
"131 -50 OFFCURVE",
"150 -7 OFFCURVE",
"150 85 CURVE SMOOTH",
"150 680 LINE"
);
}
);
width = 273.5;
},
{
anchors = (
{
name = top;
position = "{147, 682}";
}
);
layerId = "BCC09A48-EAE1-493E-95CB-92D2C26BC05D";
rightMetricsKey = "=H*0.95";
name = Regular;
paths = (
{
closed = 1;
nodes = (
"134 682 LINE",
"134 90 LINE SMOOTH",
"134 -3 OFFCURVE",
"111 -37 OFFCURVE",
"20 -81 CURVE",
"29 -104 LINE",
"141 -54 OFFCURVE",
"165 -15 OFFCURVE",
"165 88 CURVE SMOOTH",
"165 682 LINE"
);
}
);
width = 279;
},
{
anchors = (
{
name = top;
position = "{163, 689}";
}
);
layerId = "A11F629A-ECF3-413E-B2EC-6C6F8C33A243";
rightMetricsKey = "=H*0.95";
name = Regular;
paths = (
{
closed = 1;
nodes = (
"115 689 LINE",
"115 100 LINE SMOOTH",
"115 8 OFFCURVE",
"96 -32 OFFCURVE",
"5 -68 CURVE",
"30 -137 LINE",
"141 -102 OFFCURVE",
"210 -48 OFFCURVE",
"210 96 CURVE SMOOTH",
"210 689 LINE"
);
}
);
width = 305;
}
);
leftKerningGroup = J;
rightKerningGroup = J;
rightMetricsKey = "=H-5";
unicode = 004A;
},
{
color = 4;
glyphname = K;
lastChange = "2014-03-24 14:20:17 +0100";
layers = (
{
anchors = (
{
name = bottom;
position = "{330, 0}";
},
{
name = top;
position = "{330, 696}";
}
);
layerId = UUID0;
name = Bold;
paths = (
{
closed = 1;
nodes = (
"449 696 LINE",
"255 371 LINE",
"445 0 LINE",
"679 0 LINE",
"464 387 LINE",
"661 696 LINE"
);
},
{
closed = 1;
nodes = (
"43 696 LINE",
"43 0 LINE",
"249 0 LINE",
"249 696 LINE"
);
}
);
width = 659;
},
{
anchors = (
{
name = bottom;
position = "{284, 0}";
},
{
name = top;
position = "{284, 680}";
}
);
layerId = "F257A41E-77B2-4FB8-8247-C188CBBE1401";
leftMetricsKey = H;
name = Light;
paths = (
{
closed = 1;
nodes = (
"470 680 LINE",
"135 366 LINE",
"486 0 LINE",
"489 0 LINE",
"138 366 LINE",
"473 680 LINE"
);
},
{
closed = 1;
nodes = (
"130 680 LINE",
"130 1 LINE",
"132 1 LINE",
"132 680 LINE"
);
}
);
width = 504;
},
{
anchors = (
{
name = bottom;
position = "{300, 0}";
},
{
name = top;
position = "{290, 682}";
}
);
layerId = "BCC09A48-EAE1-493E-95CB-92D2C26BC05D";
leftMetricsKey = H;
name = Regular;
paths = (
{
closed = 1;
nodes = (
"460 682 LINE",
"154 367 LINE",
"475 0 LINE",
"513 0 LINE",
"194 367 LINE",
"497 682 LINE"
);
},
{
closed = 1;
nodes = (
"120 682 LINE",
"120 0 LINE",
"151 0 LINE",
"151 682 LINE"
);
}
);
width = 513;
},
{
anchors = (
{
name = bottom;
position = "{315, 0}";
},
{
name = top;
position = "{328, 689}";
}
);
layerId = "A11F629A-ECF3-413E-B2EC-6C6F8C33A243";
name = Regular;
paths = (
{
closed = 1;
nodes = (
"462 689 LINE",
"200 368 LINE",
"472 0 LINE",
"589 0 LINE",
"309 374 LINE",
"570 689 LINE"
);
},
{
closed = 1;
nodes = (
"100 689 LINE",
"100 0 LINE",
"195 0 LINE",
"195 689 LINE"
);
}
);
width = 589;
}
);
leftKerningGroup = H;
leftMetricsKey = H;
rightKerningGroup = K;
unicode = 004B;
},
{
color = 4;
glyphname = L;
lastChange = "2014-05-14 16:18:34 +0100";
layers = (
{
anchors = (
{
name = bottom;
position = "{267, 0}";
},
{
name = center;
position = "{403, 404}";
},
{
name = top;
position = "{146, 696}";
},
{
name = topright;
position = "{269, 696}";
}
);
layerId = UUID0;
name = Bold;
paths = (
{
closed = 1;
nodes = (
"43 696 LINE",
"43 0 LINE",
"491 0 LINE",
"512 158 LINE",
"249 158 LINE",
"249 696 LINE"
);
}
);
width = 522;
},
{
anchors = (
{
name = bottom;
position = "{275, 0}";
},
{
name = center;
position = "{350, 355}";
},
{
name = top;
position = "{131, 680}";
},
{
name = topright;
position = "{192, 680}";
}
);
layerId = "F257A41E-77B2-4FB8-8247-C188CBBE1401";
leftMetricsKey = H;
name = Light;
paths = (
{
closed = 1;
nodes = (
"130 680 LINE",
"130 0 LINE",
"420 0 LINE",
"420 2 LINE",
"132 2 LINE",
"132 680 LINE"
);
}
);
width = 445;
},
{
anchors = (
{
name = bottom;
position = "{281, 0}";
},
{
name = center;
position = "{352, 354}";
},
{
name = top;
position = "{136, 682}";
},
{
name = topright;
position = "{191, 682}";
}
);
background = {
paths = (
{
closed = 1;
nodes = (
"114 682 LINE",
"114 0 LINE",
"428 0 LINE",
"434 32 LINE",
"145 32 LINE",
"145 682 LINE"
);
}
);
};
layerId = "BCC09A48-EAE1-493E-95CB-92D2C26BC05D";
leftMetricsKey = H;
name = Regular;
paths = (
{
closed = 1;
nodes = (
"120 682 LINE",
"120 0 LINE",
"434 0 LINE",
"440 30 LINE",
"151 30 LINE",
"151 682 LINE"
);
}
);
width = 455;
},
{
anchors = (
{
name = bottom;
position = "{284, 0}";
},
{
name = center;
position = "{390, 390}";
},
{
name = top;
position = "{148, 689}";
},
{
name = topright;
position = "{220, 689}";
}
);
layerId = "A11F629A-ECF3-413E-B2EC-6C6F8C33A243";
name = Regular;
paths = (
{
closed = 1;
nodes = (
"100 689 LINE",
"100 0 LINE",
"467 0 LINE",
"478 83 LINE",
"195 83 LINE",
"195 689 LINE"
);
}
);
width = 498;
}
);
leftKerningGroup = H;
leftMetricsKey = H;
rightKerningGroup = L;
unicode = 004C;
},
{
color = 7;
glyphname = Lslash;
lastChange = "2014-05-14 16:19:22 +0100";
layers = (
{
components = (
{
disableAlignment = 1;
name = L;
transform = "{1, 0, 0, 1, 54, 0}";
}
);
layerId = UUID0;
name = Bold;
paths = (
{
closed = 1;
nodes = (
"97 347 LINE",
"0 287 LINE",
"63 184 LINE",
"475 439 LINE",
"411 541 LINE"
);
}
);
width = 576;
},
{
components = (
{
disableAlignment = 1;
name = L;
transform = "{1, 0, 0, 1, 2, 0}";
}
);
layerId = "F257A41E-77B2-4FB8-8247-C188CBBE1401";
rightMetricsKey = L;
name = Light;
paths = (
{
closed = 1;
nodes = (
"132 327 LINE",
"52 278 LINE",
"53 276 LINE",
"342 454 LINE",
"341 456 LINE"
);
}
);
width = 447;
},
{
components = (
{
disableAlignment = 1;
name = L;
transform = "{1, 0, 0, 1, 6, 0}";
}
);
layerId = "BCC09A48-EAE1-493E-95CB-92D2C26BC05D";
name = Regular;
paths = (
{
closed = 1;
nodes = (
"126 331 LINE",
"42 279 LINE",
"55 257 LINE",
"368 453 LINE",
"355 475 LINE"
);
}
);
width = 461;
},
{
background = {
paths = (
{
closed = 1;
nodes = (
"115 689 LINE",
"115 347 LINE",
"21 289 LINE",
"59 229 LINE",
"115 263 LINE",
"115 0 LINE",
"482 0 LINE",
"493 83 LINE",
"210 83 LINE",
"210 322 LINE",
"409 446 LINE",
"370 505 LINE",
"210 406 LINE",
"210 689 LINE"
);
}
);
};
components = (
{
disableAlignment = 1;
name = L;
transform = "{1, 0, 0, 1, 16, 0}";
}
);
layerId = "A11F629A-ECF3-413E-B2EC-6C6F8C33A243";
rightMetricsKey = L;
name = Regular;
paths = (
{
closed = 1;
nodes = (
"116 340 LINE",
"22 282 LINE",
"60 222 LINE",
"409 438 LINE",
"371 498 LINE"
);
}
);
width = 514;
}
);
leftKerningGroup = H;
rightKerningGroup = L;
rightMetricsKey = L;
unicode = 0141;
},
{
color = 4;
glyphname = M;
lastChange = "2014-04-07 14:26:02 +0100";
layers = (
{
layerId = UUID0;
name = Bold;
paths = (
{
closed = 1;
nodes = (
"471 696 LINE",
"399 245 LINE",
"319 696 LINE",
"65 696 LINE",
"15 0 LINE",
"218 0 LINE",
"223 248 LINE SMOOTH",
"225 342 OFFCURVE",
"221 416 OFFCURVE",
"210 531 CURVE",
"298 70 LINE",
"493 70 LINE",
"575 531 LINE",
"566 427 OFFCURVE",
"566 337 OFFCURVE",
"568 247 CURVE SMOOTH",
"573 0 LINE",
"776 0 LINE",
"726 696 LINE"
);
}
);
width = 791;
},
{
layerId = "F257A41E-77B2-4FB8-8247-C188CBBE1401";
name = Light;
paths = (
{
closed = 1;
nodes = (
"589 680 LINE",
"378 88 LINE",
"167 680 LINE",
"164 680 LINE",
"85 0 LINE",
"87 0 LINE",
"129 361 LINE SMOOTH",
"142 474 OFFCURVE",
"161 628 OFFCURVE",
"166 676 CURVE",
"377 85 LINE",
"379 85 LINE",
"590 676 LINE",
"598 604 OFFCURVE",
"615 468 OFFCURVE",
"628 354 CURVE SMOOTH",
"670 0 LINE",
"672 0 LINE",
"592 680 LINE"
);
}
);
width = 757;
},
{
background = {
paths = (
{
closed = 1;
nodes = (
"570 682 LINE",
"384 129 LINE",
"380 129 LINE",
"193 682 LINE",
"147 682 LINE",
"76 0 LINE",
"106 0 LINE",
"140 342 LINE SMOOTH",
"149 430 OFFCURVE",
"164 571 OFFCURVE",
"172 651 CURVE",
"173 651 LINE",
"366 87 LINE",
"399 87 LINE",
"589 651 LINE",
"590 651 LINE",
"596 588 OFFCURVE",
"606 480 OFFCURVE",
"621 342 CURVE SMOOTH",
"660 0 LINE",
"690 0 LINE",
"617 682 LINE"
);
}
);
};
layerId = "BCC09A48-EAE1-493E-95CB-92D2C26BC05D";
name = Regular;
paths = (
{
closed = 1;
nodes = (
"569 682 LINE",
"382 121 LINE",
"192 682 LINE",
"146 682 LINE",
"75 0 LINE",
"105 0 LINE",
"140 351 LINE",
"151 459 OFFCURVE",
"167 597 OFFCURVE",
"171 655 CURVE",
"367 83 LINE",
"397 83 LINE",
"589 655 LINE",
"595 588 OFFCURVE",
"609 454 OFFCURVE",
"621 342 CURVE SMOOTH",
"659 0 LINE",
"689 0 LINE",
"616 682 LINE"
);
}
);
width = 764;
},
{
layerId = "A11F629A-ECF3-413E-B2EC-6C6F8C33A243";
name = Regular;
paths = (
{
closed = 1;
nodes = (
"530 689 LINE",
"392 188 LINE",
"247 689 LINE",
"119 689 LINE",
"62 0 LINE",
"152 0 LINE",
"175 304 LINE SMOOTH",
"183 405 OFFCURVE",
"188 512 OFFCURVE",
"188 593 CURVE",
"345 78 LINE",
"434 78 LINE",
"583 592 LINE",
"584 535 OFFCURVE",
"591 419 OFFCURVE",
"600 311 CURVE SMOOTH",
"624 0 LINE",
"716 0 LINE",
"659 689 LINE"
);
}
);
width = 796;
}
);
leftKerningGroup = M;
rightKerningGroup = M;
unicode = 004D;
},
{
color = 4;
glyphname = N;
lastChange = "2014-04-07 14:23:24 +0100";
layers = (
{
anchors = (
{
name = bottom;
position = "{326, 0}";
},
{
name = top;
position = "{326, 696}";
}
);
layerId = UUID0;
rightMetricsKey = H;
name = Bold;
paths = (
{
closed = 1;
nodes = (
"426 696 LINE",
"426 473 LINE SMOOTH",
"426 347 OFFCURVE",
"441 267 OFFCURVE",
"454 186 CURVE",
"296 696 LINE",
"43 696 LINE",
"43 0 LINE",
"225 0 LINE",
"225 216 LINE SMOOTH",
"225 345 OFFCURVE",
"208 441 OFFCURVE",
"198 508 CURVE",
"350 0 LINE",
"608 0 LINE",
"608 696 LINE"
);
}
);
width = 651;
},
{
anchors = (
{
name = bottom;
position = "{321, 0}";
},
{
name = top;
position = "{331, 680}";
}
);
layerId = "F257A41E-77B2-4FB8-8247-C188CBBE1401";
leftMetricsKey = H;
rightMetricsKey = H;
name = Light;
paths = (
{
closed = 1;
nodes = (
"522 680 LINE",
"522 136 LINE",
"522 95 OFFCURVE",
"522 43 OFFCURVE",
"522 2 CURVE",
"133 680 LINE",
"130 680 LINE",
"130 0 LINE",
"132 0 LINE",
"132 575 LINE",
"132 622 OFFCURVE",
"132 655 OFFCURVE",
"132 678 CURVE",
"521 0 LINE",
"524 0 LINE",
"524 680 LINE"
);
}
);
width = 654;
},
{
anchors = (
{
name = bottom;
position = "{332, 0}";
},
{
name = top;
position = "{339, 682}";
}
);
layerId = "BCC09A48-EAE1-493E-95CB-92D2C26BC05D";
leftMetricsKey = H;
rightMetricsKey = H;
name = Regular;
paths = (
{
closed = 1;
nodes = (
"514 682 LINE",
"514 232 LINE",
"514 140 OFFCURVE",
"516 75 OFFCURVE",
"518 35 CURVE",
"159 682 LINE",
"120 682 LINE",
"120 0 LINE",
"150 0 LINE",
"150 438 LINE",
"150 557 OFFCURVE",
"149 608 OFFCURVE",
"146 647 CURVE",
"506 0 LINE",
"544 0 LINE",
"544 682 LINE"
);
}
);
width = 664;
},
{
anchors = (
{
name = bottom;
position = "{343, 0}";
},
{
name = top;
position = "{353, 689}";
}
);
layerId = "A11F629A-ECF3-413E-B2EC-6C6F8C33A243";
rightMetricsKey = H;
name = Regular;
paths = (
{
closed = 1;
nodes = (
"494 689 LINE",
"494 313 LINE SMOOTH",
"494 229 OFFCURVE",
"505 119 OFFCURVE",
"507 103 CURVE",
"224 689 LINE",
"100 689 LINE",
"100 0 LINE",
"189 0 LINE",
"189 316 LINE SMOOTH",
"189 444 OFFCURVE",
"181 528 OFFCURVE",
"176 585 CURVE",
"456 0 LINE",
"583 0 LINE",
"583 689 LINE"
);
}
);
width = 683;
}
);
leftKerningGroup = H;
leftMetricsKey = H;
rightKerningGroup = H;
rightMetricsKey = H;
unicode = 004E;
},
{
color = 4;
glyphname = Eng;
lastChange = "2014-03-24 14:20:05 +0100";
layers = (
{
anchors = (
{
name = bottom;
position = "{326, 0}";
},
{
name = top;
position = "{326, 696}";
}
);
background = {
paths = (
{
closed = 1;
nodes = (
"410 534 LINE",
"410 65 LINE SMOOTH",
"410 -22 OFFCURVE",
"365 -52 OFFCURVE",
"298 -83 CURVE",
"366 -227 LINE",
"498 -184 OFFCURVE",
"608 -111 OFFCURVE",
"608 77 CURVE SMOOTH",
"608 534 LINE"
);
},
{
closed = 1;
nodes = (
"426 696 LINE",
"426 473 LINE SMOOTH",
"426 347 OFFCURVE",
"441 267 OFFCURVE",
"458 198 CURVE",
"454 198 LINE",
"296 696 LINE",
"43 696 LINE",
"43 0 LINE",
"225 0 LINE",
"225 216 LINE SMOOTH",
"225 345 OFFCURVE",
"207 441 OFFCURVE",
"193 498 CURVE",
"197 498 LINE",
"350 0 LINE",
"608 0 LINE",
"608 696 LINE"
);
}
);
};
layerId = UUID0;
rightMetricsKey = N;
name = Bold;
paths = (
{
closed = 1;
nodes = (
"426 696 LINE",
"426 473 LINE SMOOTH",
"426 347 OFFCURVE",
"441 267 OFFCURVE",
"458 198 CURVE",
"454 198 LINE",
"296 696 LINE",
"43 696 LINE",
"43 0 LINE",
"225 0 LINE",
"225 216 LINE SMOOTH",
"225 345 OFFCURVE",
"207 441 OFFCURVE",
"193 498 CURVE",
"197 498 LINE",
"350 0 LINE",
"422 0 LINE",
"608 77 LINE",
"608 696 LINE"
);
},
{
closed = 1;
nodes = (
"425 65 LINE",
"425 -32 OFFCURVE",
"390 -60 OFFCURVE",
"305 -95 CURVE",
"366 -227 LINE",
"498 -184 OFFCURVE",
"608 -111 OFFCURVE",
"608 77 CURVE"
);
}
);
width = 651;
},
{
background = {
paths = (
{
closed = 1;
nodes = (
"522 680 LINE",
"522 136 LINE",
"522 95 OFFCURVE",
"522 44 OFFCURVE",
"522 3 CURVE",
"521 3 LINE",
"134 680 LINE",
"130 680 LINE",
"130 0 LINE",
"132 0 LINE",
"132 575 LINE",
"132 622 OFFCURVE",
"132 654 OFFCURVE",
"132 677 CURVE",
"133 677 LINE",
"520 0 LINE",
"524 0 LINE",
"524 680 LINE"
);
},
{
closed = 1;
nodes = (
"522 680 LINE",
"522 36 LINE",
"522 25 OFFCURVE",
"522 14 OFFCURVE",
"522 3 CURVE",
"521 3 LINE",
"134 680 LINE",
"130 680 LINE",
"130 0 LINE",
"132 0 LINE",
"132 631 LINE",
"132 648 OFFCURVE",
"132 660 OFFCURVE",
"132 677 CURVE",
"133 677 LINE",
"520 0 LINE",
"522 0 LINE",
"522 -110 OFFCURVE",
"483 -149 OFFCURVE",
"402 -189 CURVE",
"403 -191 LINE",
"485 -150 OFFCURVE",
"524 -112 OFFCURVE",
"524 0 CURVE SMOOTH",
"524 680 LINE"
);
}
);
};
layerId = "F257A41E-77B2-4FB8-8247-C188CBBE1401";
leftMetricsKey = N;
rightMetricsKey = N;
name = Light;
paths = (
{
closed = 1;
nodes = (
"522 680 LINE",
"522 136 LINE",
"522 95 OFFCURVE",
"522 44 OFFCURVE",
"522 3 CURVE",
"521 3 LINE",
"134 680 LINE",
"130 680 LINE",
"130 0 LINE",
"132 0 LINE",
"132 575 LINE",
"132 622 OFFCURVE",
"132 654 OFFCURVE",
"132 677 CURVE",
"133 677 LINE",
"520 0 LINE",
"523 0 LINE",
"524 1 LINE",
"524 680 LINE"
);
},
{
closed = 1;
nodes = (
"522 1 LINE",
"522 -117 OFFCURVE",
"493 -153 OFFCURVE",
"425 -189 CURVE",
"426 -191 LINE",
"495 -154 OFFCURVE",
"524 -118 OFFCURVE",
"524 1 CURVE"
);
}
);
width = 654;
},
{
background = {
paths = (
{
closed = 1;
nodes = (
"514 682 LINE",
"514 232 LINE",
"514 140 OFFCURVE",
"516 75 OFFCURVE",
"518 35 CURVE",
"517 35 LINE",
"161 682 LINE",
"120 682 LINE",
"120 0 LINE",
"150 0 LINE",
"150 438 LINE",
"150 557 OFFCURVE",
"149 608 OFFCURVE",
"146 647 CURVE",
"147 647 LINE",
"504 0 LINE",
"544 0 LINE",
"544 682 LINE"
);
},
{
closed = 1;
nodes = (
"514 682 LINE",
"514 232 LINE",
"514 140 OFFCURVE",
"516 75 OFFCURVE",
"518 35 CURVE",
"517 35 LINE",
"161 682 LINE",
"120 682 LINE",
"120 0 LINE",
"150 0 LINE",
"150 438 LINE",
"150 557 OFFCURVE",
"149 608 OFFCURVE",
"146 647 CURVE",
"147 647 LINE",
"504 0 LINE",
"516 0 LINE",
"544 8 LINE",
"544 682 LINE"
);
},
{
closed = 1;
nodes = (
"514 9 LINE SMOOTH",
"514 -108 OFFCURVE",
"486 -138 OFFCURVE",
"417 -174 CURVE",
"426 -196 LINE",
"506 -156 OFFCURVE",
"544 -124 OFFCURVE",
"544 8 CURVE SMOOTH"
);
}
);
};
layerId = "BCC09A48-EAE1-493E-95CB-92D2C26BC05D";
leftMetricsKey = N;
rightMetricsKey = N;
name = Regular;
paths = (
{
closed = 1;
nodes = (
"514 682 LINE",
"514 232 LINE",
"514 140 OFFCURVE",
"516 75 OFFCURVE",
"518 35 CURVE",
"517 35 LINE",
"161 682 LINE",
"120 682 LINE",
"120 0 LINE",
"150 0 LINE",
"150 438 LINE",
"150 557 OFFCURVE",
"149 608 OFFCURVE",
"146 647 CURVE",
"147 647 LINE",
"504 0 LINE",
"520 0 LINE",
"544 8 LINE",
"544 682 LINE"
);
},
{
closed = 1;
nodes = (
"517 9 LINE",
"517 -108 OFFCURVE",
"487 -138 OFFCURVE",
"417 -175 CURVE",
"426 -196 LINE",
"506 -156 OFFCURVE",
"544 -124 OFFCURVE",
"544 8 CURVE"
);
}
);
width = 664;
},
{
background = {
paths = (
{
closed = 1;
nodes = (
"494 689 LINE",
"494 313 LINE SMOOTH",
"494 229 OFFCURVE",
"505 119 OFFCURVE",
"507 103 CURVE",
"503 103 LINE",
"226 689 LINE",
"100 689 LINE",
"100 0 LINE",
"189 0 LINE",
"189 316 LINE SMOOTH",
"189 444 OFFCURVE",
"181 526 OFFCURVE",
"176 583 CURVE",
"180 583 LINE",
"454 0 LINE",
"502 0 LINE",
"583 32 LINE",
"583 689 LINE"
);
},
{
closed = 1;
nodes = (
"491 26 LINE SMOOTH",
"491 -87 OFFCURVE",
"458 -113 OFFCURVE",
"389 -145 CURVE",
"416 -212 LINE",
"528 -162 OFFCURVE",
"583 -117 OFFCURVE",
"583 32 CURVE SMOOTH"
);
}
);
};
layerId = "A11F629A-ECF3-413E-B2EC-6C6F8C33A243";
rightMetricsKey = N;
name = Regular;
paths = (
{
closed = 1;
nodes = (
"494 689 LINE",
"494 313 LINE SMOOTH",
"494 229 OFFCURVE",
"505 119 OFFCURVE",
"507 103 CURVE",
"503 103 LINE",
"226 689 LINE",
"100 689 LINE",
"100 0 LINE",
"189 0 LINE",
"189 316 LINE SMOOTH",
"189 444 OFFCURVE",
"181 526 OFFCURVE",
"176 583 CURVE",
"180 583 LINE",
"454 0 LINE",
"512 0 LINE",
"583 32 LINE",
"583 689 LINE"
);
},
{
closed = 1;
nodes = (
"503 26 LINE",
"503 -90 OFFCURVE",
"465 -115 OFFCURVE",
"391 -150 CURVE",
"416 -212 LINE",
"528 -162 OFFCURVE",
"583 -117 OFFCURVE",
"583 32 CURVE"
);
}
);
width = 683;
}
);
leftKerningGroup = Eng;
leftMetricsKey = N;
rightKerningGroup = Eng;
rightMetricsKey = J;
unicode = 014A;
},
{
color = 4;
glyphname = O;
lastChange = "2014-03-28 10:49:47 +0100";
layers = (
{
anchors = (
{
name = top;
position = "{345, 696}";
},
{
name = topleft;
position = "{103, 696}";
}
);
layerId = UUID0;
name = Bold;
paths = (
{
closed = 1;
nodes = (
"136 716 OFFCURVE",
"20 575 OFFCURVE",
"20 349 CURVE SMOOTH",
"20 118 OFFCURVE",
"136 -20 OFFCURVE",
"345 -20 CURVE SMOOTH",
"554 -20 OFFCURVE",
"670 123 OFFCURVE",
"670 349 CURVE SMOOTH",
"670 580 OFFCURVE",
"554 716 OFFCURVE",
"345 716 CURVE SMOOTH"
);
},
{
closed = 1;
nodes = (
"423 570 OFFCURVE",
"456 510 OFFCURVE",
"456 349 CURVE SMOOTH",
"456 188 OFFCURVE",
"425 126 OFFCURVE",
"345 126 CURVE SMOOTH",
"267 126 OFFCURVE",
"234 188 OFFCURVE",
"234 349 CURVE SMOOTH",
"234 510 OFFCURVE",
"267 570 OFFCURVE",
"345 570 CURVE SMOOTH"
);
}
);
width = 690;
},
{
anchors = (
{
name = top;
position = "{342, 680}";
},
{
name = topleft;
position = "{102, 680}";
}
);
layerId = "F257A41E-77B2-4FB8-8247-C188CBBE1401";
name = Light;
paths = (
{
closed = 1;
nodes = (
"188 690 OFFCURVE",
"85 557 OFFCURVE",
"85 338 CURVE SMOOTH",
"85 119 OFFCURVE",
"184 -9 OFFCURVE",
"343 -9 CURVE SMOOTH",
"510 -9 OFFCURVE",
"602 120 OFFCURVE",
"602 340 CURVE SMOOTH",
"602 563 OFFCURVE",
"504 690 OFFCURVE",
"343 690 CURVE SMOOTH"
);
},
{
closed = 1;
nodes = (
"503 688 OFFCURVE",
"600 561 OFFCURVE",
"600 340 CURVE SMOOTH",
"600 122 OFFCURVE",
"509 -7 OFFCURVE",
"343 -7 CURVE SMOOTH",
"185 -7 OFFCURVE",
"87 121 OFFCURVE",
"87 338 CURVE SMOOTH",
"87 555 OFFCURVE",
"189 688 OFFCURVE",
"343 688 CURVE SMOOTH"
);
}
);
width = 687;
},
{
anchors = (
{
name = top;
position = "{330, 682}";
},
{
name = topleft;
position = "{103, 682}";
}
);
layerId = "BCC09A48-EAE1-493E-95CB-92D2C26BC05D";
name = Regular;
paths = (
{
closed = 1;
nodes = (
"186 692 OFFCURVE",
"75 565 OFFCURVE",
"75 339 CURVE SMOOTH",
"75 114 OFFCURVE",
"185 -10 OFFCURVE",
"345 -10 CURVE SMOOTH",
"511 -10 OFFCURVE",
"615 118 OFFCURVE",
"615 340 CURVE SMOOTH",
"615 571 OFFCURVE",
"506 692 OFFCURVE",
"345 692 CURVE SMOOTH"
);
},
{
closed = 1;
nodes = (
"488 663 OFFCURVE",
"583 556 OFFCURVE",
"583 340 CURVE SMOOTH",
"583 129 OFFCURVE",
"493 19 OFFCURVE",
"345 19 CURVE SMOOTH",
"205 19 OFFCURVE",
"107 129 OFFCURVE",
"107 339 CURVE SMOOTH",
"107 554 OFFCURVE",
"204 663 OFFCURVE",
"345 663 CURVE"
);
}
);
width = 690;
},
{
anchors = (
{
name = top;
position = "{350, 689}";
},
{
name = topleft;
position = "{113, 689}";
}
);
layerId = "A11F629A-ECF3-413E-B2EC-6C6F8C33A243";
name = Regular;
paths = (
{
closed = 1;
nodes = (
"174 701 OFFCURVE",
"55 570 OFFCURVE",
"55 343 CURVE SMOOTH",
"55 112 OFFCURVE",
"174 -12 OFFCURVE",
"346 -12 CURVE SMOOTH",
"519 -12 OFFCURVE",
"637 116 OFFCURVE",
"637 344 CURVE SMOOTH",
"637 576 OFFCURVE",
"519 701 OFFCURVE",
"346 701 CURVE SMOOTH"
);
},
{
closed = 1;
nodes = (
"464 623 OFFCURVE",
"536 542 OFFCURVE",
"536 344 CURVE SMOOTH",
"536 144 OFFCURVE",
"462 66 OFFCURVE",
"346 66 CURVE SMOOTH",
"234 66 OFFCURVE",
"156 144 OFFCURVE",
"156 343 CURVE SMOOTH",
"156 542 OFFCURVE",
"231 623 OFFCURVE",
"346 623 CURVE SMOOTH"
);
}
);
width = 692;
}
);
leftKerningGroup = O;
rightKerningGroup = O;
unicode = 004F;
},
{
color = 4;
glyphname = Oslash;
lastChange = "2014-03-24 14:20:17 +0100";
layers = (
{
anchors = (
{
name = top;
position = "{345, 741}";
}
);
layerId = UUID0;
name = Bold;
paths = (
{
closed = 1;
nodes = (
"136 716 OFFCURVE",
"20 575 OFFCURVE",
"20 349 CURVE SMOOTH",
"20 118 OFFCURVE",
"136 -20 OFFCURVE",
"345 -20 CURVE SMOOTH",
"554 -20 OFFCURVE",
"670 123 OFFCURVE",
"670 349 CURVE SMOOTH",
"670 580 OFFCURVE",
"554 716 OFFCURVE",
"345 716 CURVE SMOOTH"
);
},
{
closed = 1;
nodes = (
"423 570 OFFCURVE",
"456 540 OFFCURVE",
"456 349 CURVE SMOOTH",
"456 188 OFFCURVE",
"425 126 OFFCURVE",
"345 126 CURVE SMOOTH",
"267 126 OFFCURVE",
"234 158 OFFCURVE",
"234 349 CURVE SMOOTH",
"234 510 OFFCURVE",
"267 570 OFFCURVE",
"345 570 CURVE SMOOTH"
);
},
{
closed = 1;
nodes = (
"382 709 LINE",
"363 570 LINE",
"246 180 LINE",
"160 33 LINE",
"119 -99 LINE",
"269 -139 LINE",
"308 -12 LINE",
"327 124 LINE",
"444 514 LINE",
"530 664 LINE",
"571 793 LINE",
"421 833 LINE"
);
}
);
width = 690;
},
{
anchors = (
{
name = top;
position = "{335, 687}";
}
);
layerId = "F257A41E-77B2-4FB8-8247-C188CBBE1401";
rightMetricsKey = O;
name = Light;
paths = (
{
closed = 1;
nodes = (
"188 690 OFFCURVE",
"85 557 OFFCURVE",
"85 338 CURVE SMOOTH",
"85 119 OFFCURVE",
"184 -9 OFFCURVE",
"343 -9 CURVE SMOOTH",
"510 -9 OFFCURVE",
"602 120 OFFCURVE",
"602 340 CURVE SMOOTH",
"602 563 OFFCURVE",
"504 690 OFFCURVE",
"343 690 CURVE SMOOTH"
);
},
{
closed = 1;
nodes = (
"504 688 OFFCURVE",
"600 561 OFFCURVE",
"600 340 CURVE SMOOTH",
"600 122 OFFCURVE",
"509 -7 OFFCURVE",
"343 -7 CURVE SMOOTH",
"184 -7 OFFCURVE",
"87 121 OFFCURVE",
"87 338 CURVE SMOOTH",
"87 555 OFFCURVE",
"189 688 OFFCURVE",
"343 688 CURVE SMOOTH"
);
},
{
closed = 1;
nodes = (
"439 672 LINE",
"439 671 LINE",
"247 11 LINE",
"247 10 LINE",
"213 -102 LINE",
"215 -103 LINE",
"249 9 LINE",
"249 10 LINE",
"441 670 LINE",
"441 671 LINE",
"475 786 LINE",
"473 787 LINE"
);
}
);
width = 687;
},
{
anchors = (
{
name = top;
position = "{337, 692}";
}
);
layerId = "BCC09A48-EAE1-493E-95CB-92D2C26BC05D";
leftMetricsKey = O;
rightMetricsKey = O;
name = Regular;
paths = (
{
closed = 1;
nodes = (
"186 692 OFFCURVE",
"75 565 OFFCURVE",
"75 339 CURVE SMOOTH",
"75 114 OFFCURVE",
"185 -10 OFFCURVE",
"345 -10 CURVE SMOOTH",
"511 -10 OFFCURVE",
"615 118 OFFCURVE",
"615 340 CURVE SMOOTH",
"615 571 OFFCURVE",
"506 692 OFFCURVE",
"345 692 CURVE SMOOTH"
);
},
{
closed = 1;
nodes = (
"488 663 OFFCURVE",
"583 556 OFFCURVE",
"583 340 CURVE SMOOTH",
"583 129 OFFCURVE",
"493 19 OFFCURVE",
"345 19 CURVE SMOOTH",
"205 19 OFFCURVE",
"107 129 OFFCURVE",
"107 339 CURVE SMOOTH",
"107 554 OFFCURVE",
"204 663 OFFCURVE",
"345 663 CURVE"
);
},
{
closed = 1;
nodes = (
"429 680 LINE",
"424 656 LINE",
"241 34 LINE",
"233 14 LINE",
"196 -105 LINE",
"227 -114 LINE",
"258 3 LINE",
"264 27 LINE",
"447 649 LINE",
"454 669 LINE",
"493 794 LINE",
"462 803 LINE"
);
}
);
width = 690;
},
{
anchors = (
{
name = top;
position = "{341, 704}";
}
);
layerId = "A11F629A-ECF3-413E-B2EC-6C6F8C33A243";
rightMetricsKey = O;
name = Regular;
paths = (
{
closed = 1;
nodes = (
"174 701 OFFCURVE",
"55 570 OFFCURVE",
"55 343 CURVE SMOOTH",
"55 112 OFFCURVE",
"174 -12 OFFCURVE",
"346 -12 CURVE SMOOTH",
"519 -12 OFFCURVE",
"637 116 OFFCURVE",
"637 344 CURVE SMOOTH",
"637 576 OFFCURVE",
"519 701 OFFCURVE",
"346 701 CURVE SMOOTH"
);
},
{
closed = 1;
nodes = (
"464 623 OFFCURVE",
"536 552 OFFCURVE",
"536 344 CURVE SMOOTH",
"536 144 OFFCURVE",
"462 66 OFFCURVE",
"346 66 CURVE SMOOTH",
"234 66 OFFCURVE",
"156 134 OFFCURVE",
"156 343 CURVE SMOOTH",
"156 542 OFFCURVE",
"231 623 OFFCURVE",
"346 623 CURVE SMOOTH"
);
},
{
closed = 1;
nodes = (
"410 689 LINE",
"398 626 LINE",
"235 86 LINE",
"208 32 LINE",
"165 -106 LINE",
"244 -127 LINE",
"281 0 LINE",
"293 63 LINE",
"456 606 LINE",
"483 657 LINE",
"528 798 LINE",
"449 819 LINE"
);
}
);
width = 692;
}
);
leftKerningGroup = O;
leftMetricsKey = O;
rightKerningGroup = O;
rightMetricsKey = O;
unicode = 00D8;
},
{
color = 4;
glyphname = OE;
lastChange = "2014-03-24 14:20:18 +0100";
layers = (
{
layerId = UUID0;
rightMetricsKey = E;
name = Bold;
paths = (
{
closed = 1;
nodes = (
"136 716 OFFCURVE",
"20 575 OFFCURVE",
"20 349 CURVE SMOOTH",
"20 118 OFFCURVE",
"136 -20 OFFCURVE",
"327 -20 CURVE SMOOTH",
"410 -20 OFFCURVE",
"480 9 OFFCURVE",
"524 69 CURVE",
"608 125 OFFCURVE",
"650 237 OFFCURVE",
"650 349 CURVE SMOOTH",
"650 465 OFFCURVE",
"607 576 OFFCURVE",
"516 640 CURVE",
"478 689 OFFCURVE",
"409 716 OFFCURVE",
"327 716 CURVE SMOOTH"
);
},
{
closed = 1;
nodes = (
"573 144 LINE",
"427 0 LINE",
"885 0 LINE",
"885 144 LINE"
);
},
{
closed = 1;
nodes = (
"633 423 LINE",
"633 284 LINE",
"841 284 LINE",
"841 423 LINE"
);
},
{
closed = 1;
nodes = (
"427 696 LINE",
"583 553 LINE",
"869 553 LINE",
"890 696 LINE"
);
},
{
closed = 1;
nodes = (
"403 570 OFFCURVE",
"436 510 OFFCURVE",
"436 349 CURVE SMOOTH",
"436 188 OFFCURVE",
"405 126 OFFCURVE",
"335 126 CURVE SMOOTH",
"267 126 OFFCURVE",
"234 188 OFFCURVE",
"234 349 CURVE SMOOTH",
"234 510 OFFCURVE",
"267 570 OFFCURVE",
"335 570 CURVE SMOOTH"
);
}
);
width = 910;
},
{
layerId = "F257A41E-77B2-4FB8-8247-C188CBBE1401";
leftMetricsKey = O;
rightMetricsKey = E;
name = Light;
paths = (
{
closed = 1;
nodes = (
"182 690 OFFCURVE",
"85 557 OFFCURVE",
"85 338 CURVE SMOOTH",
"85 119 OFFCURVE",
"178 -9 OFFCURVE",
"324 -9 CURVE SMOOTH",
"353 -9 OFFCURVE",
"376 -5 OFFCURVE",
"396 1 CURVE",
"509 35 OFFCURVE",
"572 156 OFFCURVE",
"572 361 CURVE SMOOTH",
"572 525 OFFCURVE",
"510 644 OFFCURVE",
"398 679 CURVE",
"380 685 OFFCURVE",
"353 690 OFFCURVE",
"324 690 CURVE SMOOTH"
);
},
{
closed = 1;
nodes = (
"397 2 LINE",
"392 0 LINE",
"788 0 LINE",
"788 2 LINE"
);
},
{
closed = 1;
nodes = (
"570 362 LINE",
"570 360 LINE",
"735 360 LINE",
"735 362 LINE"
);
},
{
closed = 1;
nodes = (
"394 680 LINE",
"399 678 LINE",
"778 678 LINE",
"778 680 LINE"
);
},
{
closed = 1;
nodes = (
"478 688 OFFCURVE",
"570 561 OFFCURVE",
"570 361 CURVE SMOOTH",
"570 122 OFFCURVE",
"484 -7 OFFCURVE",
"324 -7 CURVE SMOOTH",
"179 -7 OFFCURVE",
"87 121 OFFCURVE",
"87 338 CURVE SMOOTH",
"87 555 OFFCURVE",
"183 688 OFFCURVE",
"324 688 CURVE SMOOTH"
);
}
);
width = 838;
},
{
layerId = "BCC09A48-EAE1-493E-95CB-92D2C26BC05D";
rightMetricsKey = E;
name = Regular;
paths = (
{
closed = 1;
nodes = (
"186 692 OFFCURVE",
"75 565 OFFCURVE",
"75 339 CURVE SMOOTH",
"75 114 OFFCURVE",
"185 -10 OFFCURVE",
"335 -10 CURVE SMOOTH",
"373 -10 OFFCURVE",
"410 -1 OFFCURVE",
"440 18 CURVE",
"537 61 OFFCURVE",
"595 172 OFFCURVE",
"595 349 CURVE SMOOTH",
"595 513 OFFCURVE",
"537 619 OFFCURVE",
"440 666 CURVE",
"413 683 OFFCURVE",
"375 692 OFFCURVE",
"335 692 CURVE SMOOTH"
);
},
{
closed = 1;
nodes = (
"440 29 LINE",
"396 0 LINE",
"808 0 LINE",
"808 29 LINE"
);
},
{
closed = 1;
nodes = (
"584 373 LINE",
"584 345 LINE",
"758 345 LINE",
"758 373 LINE"
);
},
{
closed = 1;
nodes = (
"399 682 LINE",
"430 653 LINE",
"798 653 LINE",
"802 682 LINE"
);
},
{
closed = 1;
nodes = (
"468 663 OFFCURVE",
"563 556 OFFCURVE",
"563 349 CURVE SMOOTH",
"563 129 OFFCURVE",
"473 19 OFFCURVE",
"335 19 CURVE SMOOTH",
"205 19 OFFCURVE",
"107 129 OFFCURVE",
"107 339 CURVE SMOOTH",
"107 554 OFFCURVE",
"204 663 OFFCURVE",
"335 663 CURVE"
);
}
);
width = 848;
},
{
anchors = (
{
name = top;
position = "{448, 689}";
}
);
layerId = "A11F629A-ECF3-413E-B2EC-6C6F8C33A243";
name = Regular;
paths = (
{
closed = 1;
nodes = (
"174 701 OFFCURVE",
"55 570 OFFCURVE",
"55 343 CURVE SMOOTH",
"55 112 OFFCURVE",
"174 -12 OFFCURVE",
"333 -12 CURVE SMOOTH",
"383 -12 OFFCURVE",
"434 4 OFFCURVE",
"467 37 CURVE",
"564 92 OFFCURVE",
"617 204 OFFCURVE",
"617 344 CURVE SMOOTH",
"617 483 OFFCURVE",
"571 592 OFFCURVE",
"486 644 CURVE",
"444 683 OFFCURVE",
"390 701 OFFCURVE",
"333 701 CURVE SMOOTH"
);
},
{
closed = 1;
nodes = (
"501 76 LINE",
"405 0 LINE",
"843 0 LINE",
"843 76 LINE"
);
},
{
closed = 1;
nodes = (
"551 388 LINE",
"551 312 LINE",
"789 312 LINE",
"789 388 LINE"
);
},
{
closed = 1;
nodes = (
"406 689 LINE",
"511 613 LINE",
"824 613 LINE",
"835 689 LINE"
);
},
{
closed = 1;
nodes = (
"444 623 OFFCURVE",
"516 542 OFFCURVE",
"516 344 CURVE SMOOTH",
"516 144 OFFCURVE",
"442 66 OFFCURVE",
"336 66 CURVE SMOOTH",
"234 66 OFFCURVE",
"156 144 OFFCURVE",
"156 343 CURVE SMOOTH",
"156 542 OFFCURVE",
"231 623 OFFCURVE",
"336 623 CURVE SMOOTH"
);
}
);
width = 908;
}
);
leftKerningGroup = O;
leftMetricsKey = O;
rightKerningGroup = E;
rightMetricsKey = auto;
unicode = 0152;
},
{
color = 4;
glyphname = P;
lastChange = "2014-03-24 14:20:05 +0100";
layers = (
{
layerId = UUID0;
name = Bold;
paths = (
{
closed = 1;
nodes = (
"249 553 LINE",
"291 553 LINE SMOOTH",
"359 553 OFFCURVE",
"386 519 OFFCURVE",
"386 462 CURVE SMOOTH",
"386 394 OFFCURVE",
"355 362 OFFCURVE",
"297 362 CURVE SMOOTH",
"233 362 LINE",
"233 217 LINE",
"317 217 LINE SMOOTH",
"482 217 OFFCURVE",
"596 299 OFFCURVE",
"596 462 CURVE SMOOTH",
"596 618 OFFCURVE",
"481 696 OFFCURVE",
"294 696 CURVE SMOOTH",
"43 696 LINE",
"43 0 LINE",
"249 0 LINE"
);
}
);
width = 611;
},
{
layerId = "F257A41E-77B2-4FB8-8247-C188CBBE1401";
leftMetricsKey = H;
name = Light;
paths = (
{
closed = 1;
nodes = (
"132 678 LINE",
"252 678 LINE SMOOTH",
"410 678 OFFCURVE",
"485 621 OFFCURVE",
"485 485 CURVE SMOOTH",
"485 347 OFFCURVE",
"394 293 OFFCURVE",
"249 293 CURVE SMOOTH",
"131 293 LINE",
"131 291 LINE",
"249 291 LINE SMOOTH",
"396 291 OFFCURVE",
"487 346 OFFCURVE",
"487 485 CURVE SMOOTH",
"487 622 OFFCURVE",
"411 680 OFFCURVE",
"252 680 CURVE SMOOTH",
"130 680 LINE",
"130 0 LINE",
"132 0 LINE"
);
}
);
width = 552;
},
{
layerId = "BCC09A48-EAE1-493E-95CB-92D2C26BC05D";
leftMetricsKey = H;
name = Regular;
paths = (
{
closed = 1;
nodes = (
"151 653 LINE",
"264 653 LINE SMOOTH",
"399 653 OFFCURVE",
"474 609 OFFCURVE",
"474 482 CURVE SMOOTH",
"474 348 OFFCURVE",
"385 307 OFFCURVE",
"262 307 CURVE SMOOTH",
"144 307 LINE",
"144 278 LINE",
"259 278 LINE SMOOTH",
"404 278 OFFCURVE",
"506 333 OFFCURVE",
"506 483 CURVE SMOOTH",
"506 623 OFFCURVE",
"418 682 OFFCURVE",
"264 682 CURVE SMOOTH",
"120 682 LINE",
"120 0 LINE",
"151 0 LINE"
);
}
);
width = 561;
},
{
layerId = "A11F629A-ECF3-413E-B2EC-6C6F8C33A243";
name = Regular;
paths = (
{
closed = 1;
nodes = (
"195 615 LINE",
"280 615 LINE SMOOTH",
"382 615 OFFCURVE",
"448 578 OFFCURVE",
"448 475 CURVE SMOOTH",
"448 358 OFFCURVE",
"380 328 OFFCURVE",
"278 328 CURVE SMOOTH",
"179 328 LINE",
"179 253 LINE",
"282 253 LINE SMOOTH",
"434 253 OFFCURVE",
"549 318 OFFCURVE",
"549 476 CURVE SMOOTH",
"549 621 OFFCURVE",
"447 689 OFFCURVE",
"281 689 CURVE SMOOTH",
"100 689 LINE",
"100 0 LINE",
"195 0 LINE"
);
}
);
width = 581;
}
);
leftKerningGroup = H;
leftMetricsKey = H;
rightKerningGroup = P;
unicode = 0050;
},
{
color = 4;
glyphname = Thorn;
lastChange = "2014-03-24 14:20:17 +0100";
layers = (
{
anchors = (
{
name = top;
position = "{146, 696}";
}
);
layerId = UUID0;
rightMetricsKey = P;
name = Bold;
paths = (
{
closed = 1;
nodes = (
"243 593 LINE",
"249 450 LINE",
"291 450 LINE SMOOTH",
"359 450 OFFCURVE",
"386 416 OFFCURVE",
"386 358 CURVE SMOOTH",
"386 283 OFFCURVE",
"355 251 OFFCURVE",
"297 251 CURVE SMOOTH",
"233 251 LINE",
"233 106 LINE",
"317 106 LINE SMOOTH",
"482 106 OFFCURVE",
"596 188 OFFCURVE",
"596 358 CURVE SMOOTH",
"596 515 OFFCURVE",
"481 593 OFFCURVE",
"294 593 CURVE SMOOTH"
);
},
{
closed = 1;
nodes = (
"43 696 LINE",
"43 0 LINE",
"249 0 LINE",
"249 696 LINE"
);
}
);
width = 611;
},
{
layerId = "F257A41E-77B2-4FB8-8247-C188CBBE1401";
leftMetricsKey = H;
rightMetricsKey = P;
name = Light;
paths = (
{
closed = 1;
nodes = (
"130 550 LINE",
"132 548 LINE",
"252 548 LINE SMOOTH",
"410 548 OFFCURVE",
"485 491 OFFCURVE",
"485 351 CURVE SMOOTH",
"485 210 OFFCURVE",
"394 156 OFFCURVE",
"249 156 CURVE SMOOTH",
"131 156 LINE",
"131 154 LINE",
"249 154 LINE SMOOTH",
"396 154 OFFCURVE",
"487 209 OFFCURVE",
"487 351 CURVE SMOOTH",
"487 492 OFFCURVE",
"411 550 OFFCURVE",
"252 550 CURVE SMOOTH"
);
},
{
closed = 1;
nodes = (
"130 680 LINE",
"130 0 LINE",
"132 0 LINE",
"132 680 LINE"
);
}
);
width = 552;
},
{
anchors = (
{
name = top;
position = "{-157, -532}";
}
);
layerId = "BCC09A48-EAE1-493E-95CB-92D2C26BC05D";
leftMetricsKey = H;
rightMetricsKey = P;
name = Regular;
paths = (
{
closed = 1;
nodes = (
"130 556 LINE",
"151 527 LINE",
"264 527 LINE SMOOTH",
"399 527 OFFCURVE",
"474 483 OFFCURVE",
"474 356 CURVE SMOOTH",
"474 214 OFFCURVE",
"385 173 OFFCURVE",
"262 173 CURVE SMOOTH",
"144 173 LINE",
"144 144 LINE",
"259 144 LINE SMOOTH",
"404 144 OFFCURVE",
"506 199 OFFCURVE",
"506 357 CURVE SMOOTH",
"506 497 OFFCURVE",
"418 556 OFFCURVE",
"264 556 CURVE SMOOTH"
);
},
{
closed = 1;
nodes = (
"120 682 LINE",
"120 0 LINE",
"151 0 LINE",
"151 682 LINE"
);
}
);
width = 561;
},
{
layerId = "A11F629A-ECF3-413E-B2EC-6C6F8C33A243";
rightMetricsKey = P;
name = Regular;
paths = (
{
closed = 1;
nodes = (
"180 571 LINE",
"195 497 LINE",
"280 497 LINE SMOOTH",
"382 497 OFFCURVE",
"448 460 OFFCURVE",
"448 353 CURVE SMOOTH",
"448 232 OFFCURVE",
"380 202 OFFCURVE",
"278 202 CURVE SMOOTH",
"179 202 LINE",
"179 127 LINE",
"282 127 LINE SMOOTH",
"434 127 OFFCURVE",
"549 192 OFFCURVE",
"549 354 CURVE SMOOTH",
"549 503 OFFCURVE",
"447 571 OFFCURVE",
"281 571 CURVE SMOOTH"
);
},
{
closed = 1;
nodes = (
"100 689 LINE",
"100 0 LINE",
"195 0 LINE",
"195 689 LINE"
);
}
);
width = 581;
}
);
leftKerningGroup = H;
leftMetricsKey = H;
rightKerningGroup = Thorn;
rightMetricsKey = P;
unicode = 00DE;
},
{
color = 4;
glyphname = Q;
lastChange = "2014-03-24 14:20:17 +0100";
layers = (
{
background = {
paths = (
{
closed = 1;
nodes = (
"136 716 OFFCURVE",
"20 575 OFFCURVE",
"20 349 CURVE SMOOTH",
"20 118 OFFCURVE",
"127 -16 OFFCURVE",
"330 -16 CURVE SMOOTH",
"462 -16 OFFCURVE",
"543 -100 OFFCURVE",
"599 -173 CURVE",
"720 -15 LINE",
"661 29 OFFCURVE",
"601 48 OFFCURVE",
"512 48 CURVE",
"511 52 LINE",
"616 112 OFFCURVE",
"670 227 OFFCURVE",
"670 349 CURVE SMOOTH",
"670 580 OFFCURVE",
"554 716 OFFCURVE",
"345 716 CURVE SMOOTH"
);
},
{
closed = 1;
nodes = (
"423 570 OFFCURVE",
"456 510 OFFCURVE",
"456 349 CURVE SMOOTH",
"456 188 OFFCURVE",
"425 126 OFFCURVE",
"345 126 CURVE SMOOTH",
"267 126 OFFCURVE",
"234 188 OFFCURVE",
"234 349 CURVE SMOOTH",
"234 510 OFFCURVE",
"267 570 OFFCURVE",
"345 570 CURVE SMOOTH"
);
}
);
};
layerId = UUID0;
name = Bold;
paths = (
{
closed = 1;
nodes = (
"136 716 OFFCURVE",
"20 575 OFFCURVE",
"20 349 CURVE SMOOTH",
"20 118 OFFCURVE",
"136 -16 OFFCURVE",
"330 -16 CURVE SMOOTH",
"356 -16 OFFCURVE",
"381 -14 OFFCURVE",
"404 -10 CURVE",
"504 48 LINE",
"582 94 OFFCURVE",
"670 182 OFFCURVE",
"670 349 CURVE SMOOTH",
"670 580 OFFCURVE",
"554 716 OFFCURVE",
"345 716 CURVE SMOOTH"
);
},
{
closed = 1;
nodes = (
"330 -16 LINE",
"462 -16 OFFCURVE",
"543 -100 OFFCURVE",
"599 -173 CURVE",
"720 -15 LINE",
"661 29 OFFCURVE",
"601 48 OFFCURVE",
"504 48 CURVE"
);
},
{
closed = 1;
nodes = (
"423 570 OFFCURVE",
"456 510 OFFCURVE",
"456 349 CURVE SMOOTH",
"456 188 OFFCURVE",
"425 126 OFFCURVE",
"345 126 CURVE SMOOTH",
"267 126 OFFCURVE",
"234 188 OFFCURVE",
"234 349 CURVE SMOOTH",
"234 510 OFFCURVE",
"267 570 OFFCURVE",
"345 570 CURVE SMOOTH"
);
}
);
width = 690;
},
{
layerId = "F257A41E-77B2-4FB8-8247-C188CBBE1401";
leftMetricsKey = O;
name = Light;
paths = (
{
closed = 1;
nodes = (
"188 690 OFFCURVE",
"85 557 OFFCURVE",
"85 338 CURVE SMOOTH",
"85 119 OFFCURVE",
"184 -9 OFFCURVE",
"343 -9 CURVE SMOOTH",
"348 -9 OFFCURVE",
"353 -9 OFFCURVE",
"366 -8 CURVE",
"373 -7 LINE",
"520 6 OFFCURVE",
"602 133 OFFCURVE",
"602 340 CURVE SMOOTH",
"602 563 OFFCURVE",
"504 690 OFFCURVE",
"343 690 CURVE SMOOTH"
);
},
{
closed = 1;
nodes = (
"343 -9 LINE",
"485 -7 OFFCURVE",
"553 -24 OFFCURVE",
"614 -73 CURVE",
"616 -72 LINE",
"553 -21 OFFCURVE",
"480 -8 OFFCURVE",
"373 -7 CURVE"
);
},
{
closed = 1;
nodes = (
"503 688 OFFCURVE",
"600 561 OFFCURVE",
"600 340 CURVE SMOOTH",
"600 122 OFFCURVE",
"509 -7 OFFCURVE",
"343 -7 CURVE SMOOTH",
"185 -7 OFFCURVE",
"87 121 OFFCURVE",
"87 338 CURVE SMOOTH",
"87 555 OFFCURVE",
"189 688 OFFCURVE",
"343 688 CURVE SMOOTH"
);
}
);
width = 674;
},
{
layerId = "BCC09A48-EAE1-493E-95CB-92D2C26BC05D";
leftMetricsKey = O;
name = Regular;
paths = (
{
closed = 1;
nodes = (
"186 692 OFFCURVE",
"75 565 OFFCURVE",
"75 339 CURVE SMOOTH",
"75 114 OFFCURVE",
"185 -8 OFFCURVE",
"345 -8 CURVE SMOOTH",
"359 -8 OFFCURVE",
"373 -7 OFFCURVE",
"387 -5 CURVE",
"429 11 LINE",
"533 38 OFFCURVE",
"615 136 OFFCURVE",
"615 340 CURVE SMOOTH",
"615 571 OFFCURVE",
"506 692 OFFCURVE",
"345 692 CURVE SMOOTH"
);
},
{
closed = 1;
nodes = (
"345 -8 LINE",
"465 -8 OFFCURVE",
"542 -22 OFFCURVE",
"614 -84 CURVE",
"635 -58 LINE",
"579 -7 OFFCURVE",
"501 9 OFFCURVE",
"429 11 CURVE"
);
},
{
closed = 1;
nodes = (
"488 663 OFFCURVE",
"583 556 OFFCURVE",
"583 340 CURVE SMOOTH",
"583 129 OFFCURVE",
"493 19 OFFCURVE",
"345 19 CURVE SMOOTH",
"205 19 OFFCURVE",
"107 129 OFFCURVE",
"107 339 CURVE SMOOTH",
"107 554 OFFCURVE",
"204 663 OFFCURVE",
"345 663 CURVE"
);
}
);
width = 674;
},
{
background = {
paths = (
{
closed = 1;
nodes = (
"180 701 OFFCURVE",
"63 573 OFFCURVE",
"63 343 CURVE SMOOTH",
"63 109 OFFCURVE",
"180 -10 OFFCURVE",
"352 -10 CURVE SMOOTH",
"477 -10 OFFCURVE",
"549 -33 OFFCURVE",
"627 -103 CURVE",
"689 -23 LINE",
"640 11 OFFCURVE",
"581 39 OFFCURVE",
"495 39 CURVE",
"494 43 LINE",
"588 93 OFFCURVE",
"635 193 OFFCURVE",
"635 344 CURVE SMOOTH",
"635 578 OFFCURVE",
"518 701 OFFCURVE",
"349 701 CURVE SMOOTH"
);
},
{
closed = 1;
nodes = (
"461 623 OFFCURVE",
"534 546 OFFCURVE",
"534 344 CURVE SMOOTH",
"534 142 OFFCURVE",
"461 66 OFFCURVE",
"349 66 CURVE SMOOTH",
"240 66 OFFCURVE",
"164 141 OFFCURVE",
"164 343 CURVE SMOOTH",
"164 545 OFFCURVE",
"237 623 OFFCURVE",
"349 623 CURVE SMOOTH"
);
}
);
};
layerId = "A11F629A-ECF3-413E-B2EC-6C6F8C33A243";
name = Regular;
paths = (
{
closed = 1;
nodes = (
"174 701 OFFCURVE",
"55 570 OFFCURVE",
"55 343 CURVE SMOOTH",
"55 112 OFFCURVE",
"174 -10 OFFCURVE",
"344 -10 CURVE SMOOTH",
"365 -10 OFFCURVE",
"384 -8 OFFCURVE",
"403 -5 CURVE",
"479 39 LINE",
"577 90 OFFCURVE",
"637 175 OFFCURVE",
"637 344 CURVE SMOOTH",
"637 576 OFFCURVE",
"519 701 OFFCURVE",
"346 701 CURVE SMOOTH"
);
},
{
closed = 1;
nodes = (
"344 -10 LINE",
"469 -10 OFFCURVE",
"526 -33 OFFCURVE",
"604 -103 CURVE",
"666 -23 LINE",
"617 11 OFFCURVE",
"558 39 OFFCURVE",
"479 39 CURVE"
);
},
{
closed = 1;
nodes = (
"464 623 OFFCURVE",
"536 542 OFFCURVE",
"536 344 CURVE SMOOTH",
"536 144 OFFCURVE",
"462 66 OFFCURVE",
"346 66 CURVE SMOOTH",
"234 66 OFFCURVE",
"156 144 OFFCURVE",
"156 343 CURVE SMOOTH",
"156 542 OFFCURVE",
"231 623 OFFCURVE",
"346 623 CURVE SMOOTH"
);
}
);
width = 689;
}
);
leftKerningGroup = O;
leftMetricsKey = O;
rightKerningGroup = O;
unicode = 0051;
},
{
color = 4;
glyphname = R;
lastChange = "2014-03-24 14:20:17 +0100";
layers = (
{
anchors = (
{
name = bottom;
position = "{312, 0}";
},
{
name = top;
position = "{312, 696}";
}
);
layerId = UUID0;
name = Bold;
paths = (
{
closed = 1;
nodes = (
"43 696 LINE",
"43 0 LINE",
"249 0 LINE",
"249 555 LINE",
"293 555 LINE SMOOTH",
"354 555 OFFCURVE",
"387 530 OFFCURVE",
"387 475 CURVE SMOOTH",
"387 414 OFFCURVE",
"359 386 OFFCURVE",
"303 386 CURVE SMOOTH",
"233 386 LINE",
"233 248 LINE",
"401 248 LINE",
"537 311 OFFCURVE",
"597 365 OFFCURVE",
"597 475 CURVE SMOOTH",
"597 628 OFFCURVE",
"497 696 OFFCURVE",
"298 696 CURVE SMOOTH"
);
},
{
closed = 1;
nodes = (
"280 262 LINE",
"416 0 LINE",
"644 0 LINE",
"466 300 LINE"
);
}
);
width = 624;
},
{
anchors = (
{
name = bottom;
position = "{301, 0}";
},
{
name = top;
position = "{281, 680}";
}
);
layerId = "F257A41E-77B2-4FB8-8247-C188CBBE1401";
leftMetricsKey = H;
name = Light;
paths = (
{
closed = 1;
nodes = (
"130 680 LINE",
"130 0 LINE",
"132 0 LINE",
"132 678 LINE",
"267 678 LINE SMOOTH",
"426 678 OFFCURVE",
"480 611 OFFCURVE",
"480 506 CURVE SMOOTH",
"480 383 OFFCURVE",
"392 336 OFFCURVE",
"306 336 CURVE SMOOTH",
"131 336 LINE",
"131 334 LINE",
"312 334 LINE",
"393 336 OFFCURVE",
"482 382 OFFCURVE",
"482 506 CURVE SMOOTH",
"482 612 OFFCURVE",
"427 680 OFFCURVE",
"267 680 CURVE SMOOTH"
);
},
{
closed = 1;
nodes = (
"311 335 LINE",
"503 0 LINE",
"506 0 LINE",
"313 335 LINE"
);
}
);
width = 561;
},
{
anchors = (
{
name = bottom;
position = "{305, 0}";
},
{
name = top;
position = "{290, 682}";
}
);
layerId = "BCC09A48-EAE1-493E-95CB-92D2C26BC05D";
name = Regular;
paths = (
{
closed = 1;
nodes = (
"120 682 LINE",
"120 0 LINE",
"151 0 LINE",
"151 653 LINE",
"270 653 LINE SMOOTH",
"417 653 OFFCURVE",
"470 599 OFFCURVE",
"470 503 CURVE SMOOTH",
"470 397 OFFCURVE",
"400 349 OFFCURVE",
"280 349 CURVE SMOOTH",
"144 349 LINE",
"144 320 LINE",
"316 320 LINE",
"426 336 OFFCURVE",
"502 385 OFFCURVE",
"502 503 CURVE SMOOTH",
"502 618 OFFCURVE",
"433 682 OFFCURVE",
"274 682 CURVE SMOOTH"
);
},
{
closed = 1;
nodes = (
"309 327 LINE",
"498 0 LINE",
"537 0 LINE",
"343 332 LINE"
);
}
);
width = 577;
},
{
anchors = (
{
name = bottom;
position = "{309, 0}";
},
{
name = top;
position = "{299, 689}";
}
);
layerId = "A11F629A-ECF3-413E-B2EC-6C6F8C33A243";
name = Regular;
paths = (
{
closed = 1;
nodes = (
"100 689 LINE",
"100 0 LINE",
"195 0 LINE",
"195 615 LINE",
"280 615 LINE SMOOTH",
"393 615 OFFCURVE",
"442 580 OFFCURVE",
"442 494 CURVE SMOOTH",
"442 401 OFFCURVE",
"387 365 OFFCURVE",
"291 365 CURVE SMOOTH",
"179 365 LINE",
"179 292 LINE",
"309 292 LINE",
"464 312 OFFCURVE",
"543 372 OFFCURVE",
"543 494 CURVE SMOOTH",
"543 623 OFFCURVE",
"453 689 OFFCURVE",
"281 689 CURVE SMOOTH"
);
},
{
closed = 1;
nodes = (
"294 306 LINE",
"467 0 LINE",
"580 0 LINE",
"389 317 LINE"
);
}
);
width = 605;
}
);
leftKerningGroup = H;
leftMetricsKey = H;
rightKerningGroup = R;
unicode = 0052;
},
{
color = 4;
glyphname = S;
lastChange = "2014-03-28 10:56:57 +0100";
layers = (
{
anchors = (
{
name = bottom;
position = "{293, 0}";
},
{
name = top;
position = "{307, 696}";
}
);
layerId = UUID0;
name = Bold;
paths = (
{
closed = 1;
nodes = (
"145 716 OFFCURVE",
"29 635 OFFCURVE",
"29 503 CURVE SMOOTH",
"29 402 OFFCURVE",
"78 331 OFFCURVE",
"246 278 CURVE SMOOTH",
"337 250 OFFCURVE",
"359 232 OFFCURVE",
"359 191 CURVE SMOOTH",
"359 155 OFFCURVE",
"332 128 OFFCURVE",
"272 128 CURVE SMOOTH",
"207 128 OFFCURVE",
"151 153 OFFCURVE",
"101 196 CURVE",
"0 85 LINE",
"57 30 OFFCURVE",
"147 -20 OFFCURVE",
"280 -20 CURVE SMOOTH",
"463 -20 OFFCURVE",
"573 74 OFFCURVE",
"573 208 CURVE SMOOTH",
"573 333 OFFCURVE",
"509 395 OFFCURVE",
"366 441 CURVE SMOOTH",
"267 473 OFFCURVE",
"241 484 OFFCURVE",
"241 520 CURVE SMOOTH",
"241 551 OFFCURVE",
"266 570 OFFCURVE",
"316 570 CURVE SMOOTH",
"371 570 OFFCURVE",
"419 551 OFFCURVE",
"465 514 CURVE",
"556 621 LINE",
"493 682 OFFCURVE",
"411 716 OFFCURVE",
"299 716 CURVE SMOOTH"
);
}
);
width = 588;
},
{
anchors = (
{
name = bottom;
position = "{261, 0}";
},
{
name = top;
position = "{273, 680}";
}
);
layerId = "F257A41E-77B2-4FB8-8247-C188CBBE1401";
name = Light;
paths = (
{
closed = 1;
nodes = (
"158 690 OFFCURVE",
"88 624 OFFCURVE",
"88 538 CURVE SMOOTH",
"88 447 OFFCURVE",
"132 412 OFFCURVE",
"269 368 CURVE SMOOTH",
"397 327 OFFCURVE",
"458 287 OFFCURVE",
"458 178 CURVE SMOOTH",
"458 69 OFFCURVE",
"378 -7 OFFCURVE",
"260 -7 CURVE SMOOTH",
"168 -7 OFFCURVE",
"115 24 OFFCURVE",
"66 71 CURVE",
"65 69 LINE",
"114 22 OFFCURVE",
"168 -9 OFFCURVE",
"260 -9 CURVE SMOOTH",
"380 -9 OFFCURVE",
"460 68 OFFCURVE",
"460 178 CURVE SMOOTH",
"460 288 OFFCURVE",
"399 329 OFFCURVE",
"270 370 CURVE SMOOTH",
"132 414 OFFCURVE",
"90 449 OFFCURVE",
"90 538 CURVE SMOOTH",
"90 622 OFFCURVE",
"159 688 OFFCURVE",
"264 688 CURVE SMOOTH",
"345 688 OFFCURVE",
"394 662 OFFCURVE",
"436 624 CURVE",
"437 626 LINE",
"395 663 OFFCURVE",
"347 690 OFFCURVE",
"264 690 CURVE SMOOTH"
);
}
);
width = 540;
},
{
anchors = (
{
name = bottom;
position = "{262, 0}";
},
{
name = top;
position = "{268, 682}";
}
);
layerId = "BCC09A48-EAE1-493E-95CB-92D2C26BC05D";
name = Regular;
paths = (
{
closed = 1;
nodes = (
"151 692 OFFCURVE",
"77 623 OFFCURVE",
"77 533 CURVE SMOOTH",
"77 442 OFFCURVE",
"126 397 OFFCURVE",
"265 354 CURVE SMOOTH",
"391 315 OFFCURVE",
"438 278 OFFCURVE",
"438 182 CURVE SMOOTH",
"438 82 OFFCURVE",
"365 19 OFFCURVE",
"256 19 CURVE SMOOTH",
"172 19 OFFCURVE",
"119 49 OFFCURVE",
"70 94 CURVE",
"50 73 LINE",
"105 23 OFFCURVE",
"168 -10 OFFCURVE",
"257 -10 CURVE SMOOTH",
"381 -10 OFFCURVE",
"469 68 OFFCURVE",
"469 183 CURVE SMOOTH",
"469 295 OFFCURVE",
"410 340 OFFCURVE",
"275 381 CURVE SMOOTH",
"154 418 OFFCURVE",
"108 452 OFFCURVE",
"108 533 CURVE SMOOTH",
"108 609 OFFCURVE",
"169 663 OFFCURVE",
"265 663 CURVE SMOOTH",
"333 663 OFFCURVE",
"378 644 OFFCURVE",
"428 598 CURVE",
"448 620 LINE",
"398 664 OFFCURVE",
"349 692 OFFCURVE",
"265 692 CURVE SMOOTH"
);
}
);
width = 534;
},
{
anchors = (
{
name = bottom;
position = "{267, 0}";
},
{
name = top;
position = "{276, 689}";
}
);
layerId = "A11F629A-ECF3-413E-B2EC-6C6F8C33A243";
name = Regular;
paths = (
{
closed = 1;
nodes = (
"143 701 OFFCURVE",
"53 627 OFFCURVE",
"53 521 CURVE SMOOTH",
"53 414 OFFCURVE",
"123 363 OFFCURVE",
"257 322 CURVE SMOOTH",
"374 286 OFFCURVE",
"406 256 OFFCURVE",
"406 189 CURVE SMOOTH",
"406 106 OFFCURVE",
"339 66 OFFCURVE",
"258 66 CURVE SMOOTH",
"183 66 OFFCURVE",
"127 93 OFFCURVE",
"80 138 CURVE",
"25 77 LINE",
"82 21 OFFCURVE",
"160 -12 OFFCURVE",
"259 -12 CURVE SMOOTH",
"414 -12 OFFCURVE",
"505 72 OFFCURVE",
"505 192 CURVE SMOOTH",
"505 324 OFFCURVE",
"411 367 OFFCURVE",
"301 401 CURVE SMOOTH",
"177 439 OFFCURVE",
"150 467 OFFCURVE",
"150 525 CURVE SMOOTH",
"150 591 OFFCURVE",
"205 623 OFFCURVE",
"274 623 CURVE SMOOTH",
"331 623 OFFCURVE",
"379 605 OFFCURVE",
"429 561 CURVE",
"483 621 LINE",
"425 673 OFFCURVE",
"365 701 OFFCURVE",
"270 701 CURVE SMOOTH"
);
}
);
width = 545;
}
);
leftKerningGroup = S;
rightKerningGroup = S;
unicode = 0053;
},
{
color = 7;
glyphname = Scedilla;
lastChange = "2014-03-03 18:34:24 +0100";
layers = (
{
background = {
paths = (
{
closed = 1;
nodes = (
"318 -167 OFFCURVE",
"301 -173 OFFCURVE",
"271 -173 CURVE SMOOTH",
"249 -173 OFFCURVE",
"229 -166 OFFCURVE",
"209 -155 CURVE",
"166 -241 LINE",
"193 -258 OFFCURVE",
"239 -275 OFFCURVE",
"291 -275 CURVE SMOOTH",
"396 -275 OFFCURVE",
"455 -220 OFFCURVE",
"455 -151 CURVE SMOOTH",
"455 -89 OFFCURVE",
"418 -52 OFFCURVE",
"345 -43 CURVE",
"345 -15 LINE",
"487 5 OFFCURVE",
"571 91 OFFCURVE",
"571 209 CURVE SMOOTH",
"571 333 OFFCURVE",
"507 394 OFFCURVE",
"364 441 CURVE SMOOTH",
"267 473 OFFCURVE",
"246 484 OFFCURVE",
"246 520 CURVE SMOOTH",
"246 551 OFFCURVE",
"273 570 OFFCURVE",
"327 570 CURVE SMOOTH",
"378 570 OFFCURVE",
"427 551 OFFCURVE",
"473 514 CURVE",
"564 621 LINE",
"501 682 OFFCURVE",
"417 716 OFFCURVE",
"308 716 CURVE SMOOTH",
"161 716 OFFCURVE",
"32 643 OFFCURVE",
"32 503 CURVE SMOOTH",
"32 402 OFFCURVE",
"76 331 OFFCURVE",
"249 277 CURVE SMOOTH",
"335 250 OFFCURVE",
"357 232 OFFCURVE",
"357 191 CURVE SMOOTH",
"357 156 OFFCURVE",
"330 128 OFFCURVE",
"270 128 CURVE SMOOTH",
"205 128 OFFCURVE",
"143 153 OFFCURVE",
"91 198 CURVE",
"-10 87 LINE",
"41 36 OFFCURVE",
"124 -9 OFFCURVE",
"236 -18 CURVE",
"224 -120 LINE",
"289 -120 OFFCURVE",
"318 -127 OFFCURVE",
"318 -148 CURVE SMOOTH"
);
}
);
};
components = (
{
name = S;
transform = "{1, 0, 0, 1, 0, 0}";
},
{
name = cedilla.case;
transform = "{1, 0, 0, 1, 133, 0}";
}
);
layerId = UUID0;
name = Bold;
width = 588;
},
{
components = (
{
name = S;
transform = "{1, 0, 0, 1, 0, 0}";
},
{
name = cedilla.case;
transform = "{1, 0, 0, 1, 186, 0}";
}
);
layerId = "F257A41E-77B2-4FB8-8247-C188CBBE1401";
name = Light;
width = 540;
},
{
components = (
{
name = S;
transform = "{1, 0, 0, 1, 0, 0}";
},
{
name = cedilla.case;
transform = "{1, 0, 0, 1, 166, 0}";
}
);
layerId = "BCC09A48-EAE1-493E-95CB-92D2C26BC05D";
name = Regular;
width = 534;
},
{
background = {
paths = (
{
closed = 1;
nodes = (
"311 -170 OFFCURVE",
"287 -181 OFFCURVE",
"251 -181 CURVE SMOOTH",
"230 -181 OFFCURVE",
"204 -175 OFFCURVE",
"185 -165 CURVE",
"157 -216 LINE",
"183 -231 OFFCURVE",
"222 -241 OFFCURVE",
"263 -241 CURVE SMOOTH",
"330 -241 OFFCURVE",
"388 -207 OFFCURVE",
"388 -141 CURVE SMOOTH",
"388 -100 OFFCURVE",
"360 -62 OFFCURVE",
"294 -56 CURVE",
"294 -11 LINE",
"432 -1 OFFCURVE",
"507 79 OFFCURVE",
"507 192 CURVE SMOOTH",
"507 324 OFFCURVE",
"415 367 OFFCURVE",
"305 401 CURVE SMOOTH",
"181 439 OFFCURVE",
"152 467 OFFCURVE",
"152 525 CURVE SMOOTH",
"152 591 OFFCURVE",
"207 623 OFFCURVE",
"276 623 CURVE SMOOTH",
"334 623 OFFCURVE",
"383 605 OFFCURVE",
"431 561 CURVE",
"485 621 LINE",
"429 673 OFFCURVE",
"368 701 OFFCURVE",
"272 701 CURVE SMOOTH",
"143 701 OFFCURVE",
"55 627 OFFCURVE",
"55 521 CURVE SMOOTH",
"55 414 OFFCURVE",
"126 361 OFFCURVE",
"260 320 CURVE SMOOTH",
"376 284 OFFCURVE",
"408 254 OFFCURVE",
"408 189 CURVE SMOOTH",
"408 106 OFFCURVE",
"341 66 OFFCURVE",
"260 66 CURVE SMOOTH",
"183 66 OFFCURVE",
"129 93 OFFCURVE",
"82 138 CURVE",
"27 77 LINE",
"78 27 OFFCURVE",
"145 -5 OFFCURVE",
"231 -11 CURVE",
"224 -99 LINE",
"278 -99 OFFCURVE",
"311 -106 OFFCURVE",
"311 -141 CURVE SMOOTH"
);
}
);
};
components = (
{
name = S;
transform = "{1, 0, 0, 1, 0, 0}";
},
{
name = cedilla.case;
transform = "{1, 0, 0, 1, 145, 0}";
}
);
layerId = "A11F629A-ECF3-413E-B2EC-6C6F8C33A243";
name = Regular;
width = 545;
}
);
leftKerningGroup = S;
rightKerningGroup = S;
unicode = 015E;
},
{
color = 4;
glyphname = T;
lastChange = "2014-03-28 11:01:37 +0100";
layers = (
{
anchors = (
{
name = bottom;
position = "{277, 0}";
},
{
name = bottomright;
position = "{390, 0}";
},
{
name = center;
position = "{277, 348}";
},
{
name = top;
position = "{277, 696}";
}
);
layerId = UUID0;
name = Bold;
paths = (
{
closed = 1;
nodes = (
"5 696 LINE",
"5 542 LINE",
"174 542 LINE",
"174 0 LINE",
"380 0 LINE",
"380 542 LINE",
"538 542 LINE",
"559 696 LINE"
);
}
);
width = 554;
},
{
anchors = (
{
name = bottom;
position = "{236, 0}";
},
{
name = bottomright;
position = "{247, 0}";
},
{
name = center;
position = "{223, 340}";
},
{
name = top;
position = "{223, 680}";
}
);
layerId = "F257A41E-77B2-4FB8-8247-C188CBBE1401";
name = Light;
paths = (
{
closed = 1;
nodes = (
"20 680 LINE",
"20 678 LINE",
"235 678 LINE",
"235 0 LINE",
"237 0 LINE",
"237 678 LINE",
"452 678 LINE",
"452 680 LINE"
);
}
);
width = 472;
},
{
anchors = (
{
name = bottom;
position = "{239, 0}";
},
{
name = bottomright;
position = "{264, 0}";
},
{
name = top;
position = "{229, 682}";
}
);
layerId = "BCC09A48-EAE1-493E-95CB-92D2C26BC05D";
name = Regular;
paths = (
{
closed = 1;
nodes = (
"15 682 LINE",
"15 652 LINE",
"223 652 LINE",
"223 0 LINE",
"254 0 LINE",
"254 652 LINE",
"462 652 LINE",
"467 682 LINE"
);
}
);
width = 477;
},
{
anchors = (
{
name = bottom;
position = "{259, 0}";
},
{
name = bottomright;
position = "{316, 0}";
},
{
name = center;
position = "{259, 345}";
},
{
name = top;
position = "{259, 689}";
}
);
layerId = "A11F629A-ECF3-413E-B2EC-6C6F8C33A243";
name = Regular;
paths = (
{
closed = 1;
nodes = (
"15 689 LINE",
"15 608 LINE",
"211 608 LINE",
"211 0 LINE",
"306 0 LINE",
"306 608 LINE",
"497 608 LINE",
"507 689 LINE"
);
}
);
width = 517;
}
);
leftKerningGroup = T;
rightKerningGroup = T;
unicode = 0054;
},
{
color = 4;
glyphname = Tbar;
lastChange = "2014-04-30 11:31:04 +0100";
layers = (
{
background = {
paths = (
{
closed = 1;
nodes = (
"489 391 LINE",
"380 391 LINE",
"380 542 LINE",
"538 542 LINE",
"559 696 LINE",
"5 696 LINE",
"5 542 LINE",
"174 542 LINE",
"174 391 LINE",
"64 391 LINE",
"64 285 LINE",
"174 285 LINE",
"174 0 LINE",
"380 0 LINE",
"380 285 LINE",
"489 285 LINE"
);
}
);
};
components = (
{
name = T;
transform = "{1, 0, 0, 1, 0, 0}";
}
);
layerId = UUID0;
name = Bold;
paths = (
{
closed = 1;
nodes = (
"64 391 LINE",
"64 285 LINE",
"174 285 LINE",
"489 285 LINE",
"489 391 LINE"
);
}
);
width = 554;
},
{
components = (
{
name = T;
transform = "{1, 0, 0, 1, 0, 0}";
}
);
layerId = "F257A41E-77B2-4FB8-8247-C188CBBE1401";
name = Light;
paths = (
{
closed = 1;
nodes = (
"113 376 LINE",
"113 374 LINE",
"236 374 LINE",
"361 374 LINE",
"361 376 LINE"
);
}
);
width = 455;
},
{
background = {
paths = (
{
closed = 1;
nodes = (
"23 682 LINE",
"23 652 LINE",
"228 652 LINE",
"228 414 LINE",
"104 414 LINE",
"104 382 LINE",
"228 382 LINE",
"228 0 LINE",
"259 0 LINE",
"259 382 LINE",
"383 382 LINE",
"383 414 LINE",
"259 414 LINE",
"259 652 LINE",
"460 652 LINE",
"465 682 LINE"
);
}
);
};
components = (
{
name = T;
transform = "{1, 0, 0, 1, 0, 0}";
}
);
layerId = "BCC09A48-EAE1-493E-95CB-92D2C26BC05D";
name = Regular;
paths = (
{
closed = 1;
nodes = (
"101 382 LINE",
"101 354 LINE",
"225 354 LINE",
"380 354 LINE",
"380 382 LINE"
);
}
);
width = 485;
},
{
components = (
{
name = T;
transform = "{1, 0, 0, 1, 0, -2}";
}
);
layerId = "A11F629A-ECF3-413E-B2EC-6C6F8C33A243";
name = Regular;
paths = (
{
closed = 1;
nodes = (
"88 387 LINE",
"88 317 LINE",
"212 317 LINE",
"431 317 LINE",
"431 387 LINE"
);
}
);
width = 519;
}
);
leftKerningGroup = T;
rightKerningGroup = T;
unicode = 0166;
},
{
color = 7;
glyphname = Tcedilla;
lastChange = "2014-03-03 17:56:36 +0100";
layers = (
{
background = {
paths = (
{
closed = 1;
nodes = (
"353 -167 OFFCURVE",
"336 -173 OFFCURVE",
"306 -173 CURVE SMOOTH",
"284 -173 OFFCURVE",
"264 -166 OFFCURVE",
"244 -155 CURVE",
"201 -241 LINE",
"228 -258 OFFCURVE",
"274 -275 OFFCURVE",
"326 -275 CURVE SMOOTH",
"431 -275 OFFCURVE",
"490 -220 OFFCURVE",
"490 -151 CURVE SMOOTH",
"490 -89 OFFCURVE",
"453 -52 OFFCURVE",
"380 -43 CURVE",
"380 542 LINE",
"538 542 LINE",
"559 696 LINE",
"5 696 LINE",
"5 542 LINE",
"174 542 LINE",
"174 0 LINE",
"274 0 LINE",
"259 -120 LINE",
"324 -120 OFFCURVE",
"353 -127 OFFCURVE",
"353 -148 CURVE SMOOTH"
);
},
{
closed = 1;
nodes = (
"353 -167 OFFCURVE",
"336 -173 OFFCURVE",
"306 -173 CURVE SMOOTH",
"284 -173 OFFCURVE",
"264 -166 OFFCURVE",
"244 -155 CURVE",
"201 -241 LINE",
"228 -258 OFFCURVE",
"274 -275 OFFCURVE",
"326 -275 CURVE SMOOTH",
"431 -275 OFFCURVE",
"490 -220 OFFCURVE",
"490 -151 CURVE SMOOTH",
"490 -89 OFFCURVE",
"453 -52 OFFCURVE",
"380 -43 CURVE",
"380 542 LINE",
"538 542 LINE",
"559 696 LINE",
"5 696 LINE",
"5 542 LINE",
"174 542 LINE",
"174 0 LINE",
"274 0 LINE",
"259 -120 LINE",
"324 -120 OFFCURVE",
"353 -127 OFFCURVE",
"353 -148 CURVE SMOOTH"
);
}
);
};
components = (
{
name = T;
transform = "{1, 0, 0, 1, 0, 0}";
},
{
name = cedillaTcedilla;
transform = "{1, 0, 0, 1, 171, 0}";
}
);
layerId = UUID0;
name = Bold;
width = 554;
},
{
components = (
{
name = T;
transform = "{1, 0, 0, 1, 0, 0}";
},
{
name = cedillaTcedilla;
transform = "{1, 0, 0, 1, 163, 0}";
}
);
layerId = "F257A41E-77B2-4FB8-8247-C188CBBE1401";
name = Light;
width = 472;
},
{
components = (
{
name = T;
transform = "{1, 0, 0, 1, 0, 0}";
},
{
name = cedillaTcedilla;
transform = "{1, 0, 0, 1, 154, 0}";
}
);
layerId = "BCC09A48-EAE1-493E-95CB-92D2C26BC05D";
name = Regular;
width = 477;
},
{
components = (
{
name = T;
transform = "{1, 0, 0, 1, 0, 0}";
},
{
name = cedillaTcedilla;
transform = "{1, 0, 0, 1, 157, 0}";
}
);
layerId = "A11F629A-ECF3-413E-B2EC-6C6F8C33A243";
name = Regular;
width = 517;
}
);
leftKerningGroup = T;
rightKerningGroup = T;
unicode = 0162;
},
{
color = 4;
glyphname = U;
lastChange = "2014-03-24 14:20:05 +0100";
layers = (
{
anchors = (
{
name = ogonek;
position = "{460, 0}";
},
{
name = top;
position = "{322, 696}";
}
);
layerId = UUID0;
leftMetricsKey = "=H-10";
rightMetricsKey = "=H-10";
name = Bold;
paths = (
{
closed = 1;
nodes = (
"405 696 LINE",
"405 242 LINE SMOOTH",
"405 165 OFFCURVE",
"382 128 OFFCURVE",
"322 128 CURVE SMOOTH",
"262 128 OFFCURVE",
"239 165 OFFCURVE",
"239 242 CURVE SMOOTH",
"239 696 LINE",
"33 696 LINE",
"33 236 LINE SMOOTH",
"33 84 OFFCURVE",
"126 -20 OFFCURVE",
"322 -20 CURVE SMOOTH",
"518 -20 OFFCURVE",
"611 94 OFFCURVE",
"611 236 CURVE SMOOTH",
"611 696 LINE"
);
}
);
width = 644;
},
{
anchors = (
{
name = ogonek;
position = "{397, 0}";
},
{
name = top;
position = "{322, 680}";
}
);
layerId = "F257A41E-77B2-4FB8-8247-C188CBBE1401";
leftMetricsKey = "=H-10";
rightMetricsKey = "=H-10";
name = Light;
paths = (
{
closed = 1;
nodes = (
"512 680 LINE",
"512 206 LINE SMOOTH",
"512 84 OFFCURVE",
"460 -7 OFFCURVE",
"317 -7 CURVE SMOOTH",
"173 -7 OFFCURVE",
"122 84 OFFCURVE",
"122 206 CURVE SMOOTH",
"122 680 LINE",
"120 680 LINE",
"120 206 LINE SMOOTH",
"120 83 OFFCURVE",
"171 -9 OFFCURVE",
"317 -9 CURVE SMOOTH",
"461 -9 OFFCURVE",
"514 83 OFFCURVE",
"514 206 CURVE SMOOTH",
"514 680 LINE"
);
}
);
width = 634;
},
{
anchors = (
{
name = ogonek;
position = "{407, 0}";
},
{
name = top;
position = "{325, 682}";
}
);
layerId = "BCC09A48-EAE1-493E-95CB-92D2C26BC05D";
leftMetricsKey = "=H-10";
rightMetricsKey = "=H-10";
name = Regular;
paths = (
{
closed = 1;
nodes = (
"502 682 LINE",
"502 211 LINE SMOOTH",
"502 100 OFFCURVE",
"451 19 OFFCURVE",
"322 19 CURVE SMOOTH",
"194 19 OFFCURVE",
"141 97 OFFCURVE",
"141 211 CURVE SMOOTH",
"141 682 LINE",
"110 682 LINE",
"110 208 LINE SMOOTH",
"110 81 OFFCURVE",
"173 -10 OFFCURVE",
"322 -10 CURVE SMOOTH",
"469 -10 OFFCURVE",
"533 81 OFFCURVE",
"533 208 CURVE SMOOTH",
"533 682 LINE"
);
}
);
width = 643;
},
{
anchors = (
{
name = ogonek;
position = "{428, 0}";
},
{
name = top;
position = "{331, 689}";
}
);
layerId = "A11F629A-ECF3-413E-B2EC-6C6F8C33A243";
name = Regular;
paths = (
{
closed = 1;
nodes = (
"476 689 LINE",
"476 228 LINE SMOOTH",
"476 121 OFFCURVE",
"429 68 OFFCURVE",
"330 68 CURVE SMOOTH",
"232 68 OFFCURVE",
"185 121 OFFCURVE",
"185 228 CURVE SMOOTH",
"185 689 LINE",
"90 689 LINE",
"90 221 LINE SMOOTH",
"90 84 OFFCURVE",
"173 -12 OFFCURVE",
"330 -12 CURVE SMOOTH",
"485 -12 OFFCURVE",
"572 84 OFFCURVE",
"572 221 CURVE SMOOTH",
"572 689 LINE"
);
}
);
width = 662;
}
);
leftKerningGroup = U;
leftMetricsKey = "=H-10";
rightKerningGroup = U;
rightMetricsKey = "=H-10";
unicode = 0055;
},
{
color = 0;
glyphname = Uogonek;
lastChange = "2014-04-01 09:32:22 +0100";
layers = (
{
background = {
paths = (
{
closed = 1;
nodes = (
"228 -220 OFFCURVE",
"291 -267 OFFCURVE",
"382 -267 CURVE SMOOTH",
"426 -267 OFFCURVE",
"471 -255 OFFCURVE",
"504 -238 CURVE",
"468 -148 LINE",
"453 -155 OFFCURVE",
"426 -162 OFFCURVE",
"401 -162 CURVE SMOOTH",
"371 -162 OFFCURVE",
"355 -141 OFFCURVE",
"355 -114 CURVE SMOOTH",
"355 -81 OFFCURVE",
"372 -42 OFFCURVE",
"447 -1 CURVE",
"558 37 OFFCURVE",
"611 128 OFFCURVE",
"611 236 CURVE SMOOTH",
"611 696 LINE",
"405 696 LINE",
"405 242 LINE SMOOTH",
"405 165 OFFCURVE",
"382 128 OFFCURVE",
"322 128 CURVE SMOOTH",
"262 128 OFFCURVE",
"239 165 OFFCURVE",
"239 242 CURVE SMOOTH",
"239 696 LINE",
"33 696 LINE",
"33 236 LINE SMOOTH",
"33 85 OFFCURVE",
"124 -17 OFFCURVE",
"315 -20 CURVE",
"259 -50 OFFCURVE",
"228 -90 OFFCURVE",
"228 -140 CURVE SMOOTH"
);
}
);
};
components = (
{
name = U;
transform = "{1, 0, 0, 1, 0, 0}";
},
{
name = ogonek.thin;
transform = "{1, 0, 0, 1, 199, 0}";
}
);
layerId = UUID0;
name = Bold;
width = 644;
},
{
components = (
{
name = U;
transform = "{1, 0, 0, 1, 0, 0}";
},
{
name = ogonek.thin;
transform = "{1, 0, 0, 1, 264, 0}";
}
);
layerId = "F257A41E-77B2-4FB8-8247-C188CBBE1401";
name = Light;
width = 634;
},
{
components = (
{
name = U;
transform = "{1, 0, 0, 1, 0, 0}";
},
{
name = ogonek.thin;
transform = "{1, 0, 0, 1, 245, 0}";
}
);
layerId = "BCC09A48-EAE1-493E-95CB-92D2C26BC05D";
name = Regular;
width = 643;
},
{
components = (
{
name = U;
transform = "{1, 0, 0, 1, 0, 0}";
},
{
name = ogonek.thin;
transform = "{1, 0, 0, 1, 220, 0}";
}
);
layerId = "A11F629A-ECF3-413E-B2EC-6C6F8C33A243";
name = Regular;
width = 662;
}
);
leftKerningGroup = U;
rightKerningGroup = U;
unicode = 0172;
},
{
color = 4;
glyphname = V;
lastChange = "2014-05-14 15:41:31 +0100";
layers = (
{
layerId = UUID0;
rightMetricsKey = A;
name = Bold;
paths = (
{
closed = 1;
nodes = (
"393 696 LINE",
"298 143 LINE",
"192 696 LINE",
"-25 696 LINE",
"162 0 LINE",
"428 0 LINE",
"604 696 LINE"
);
}
);
width = 579;
},
{
layerId = "F257A41E-77B2-4FB8-8247-C188CBBE1401";
leftMetricsKey = A;
rightMetricsKey = A;
name = Light;
paths = (
{
closed = 1;
nodes = (
"486 680 LINE",
"263 2 LINE",
"37 680 LINE",
"35 680 LINE",
"262 0 LINE",
"264 0 LINE",
"488 680 LINE"
);
}
);
width = 523;
},
{
layerId = "BCC09A48-EAE1-493E-95CB-92D2C26BC05D";
rightMetricsKey = A;
name = Regular;
paths = (
{
closed = 1;
nodes = (
"480 682 LINE",
"269 29 LINE",
"58 682 LINE",
"25 682 LINE",
"249 0 LINE",
"288 0 LINE",
"513 682 LINE"
);
}
);
width = 538;
},
{
layerId = "A11F629A-ECF3-413E-B2EC-6C6F8C33A243";
leftMetricsKey = A;
rightMetricsKey = A;
name = Regular;
paths = (
{
closed = 1;
nodes = (
"454 689 LINE",
"281 103 LINE",
"108 689 LINE",
"6 689 LINE",
"228 0 LINE",
"330 0 LINE",
"550 689 LINE"
);
}
);
width = 556;
}
);
leftKerningGroup = V;
leftMetricsKey = A;
rightKerningGroup = V;
rightMetricsKey = A;
unicode = 0056;
},
{
color = 4;
glyphname = W;
lastChange = "2014-03-28 11:09:20 +0100";
layers = (
{
anchors = (
{
name = top;
position = "{432, 696}";
}
);
layerId = UUID0;
name = Bold;
paths = (
{
closed = 1;
nodes = (
"661 696 LINE",
"601 149 LINE",
"539 696 LINE",
"324 696 LINE",
"250 149 LINE",
"206 696 LINE",
"0 696 LINE",
"97 0 LINE",
"359 0 LINE",
"428 500 LINE",
"490 0 LINE",
"758 0 LINE",
"859 696 LINE"
);
}
);
width = 859;
},
{
anchors = (
{
name = top;
position = "{388, 680}";
}
);
layerId = "F257A41E-77B2-4FB8-8247-C188CBBE1401";
name = Light;
paths = (
{
closed = 1;
nodes = (
"729 680 LINE",
"570 3 LINE",
"389 680 LINE",
"387 680 LINE",
"206 2 LINE",
"47 680 LINE",
"45 680 LINE",
"205 0 LINE",
"207 0 LINE",
"388 678 LINE",
"569 0 LINE",
"571 0 LINE",
"731 680 LINE"
);
}
);
width = 776;
},
{
anchors = (
{
name = top;
position = "{398, 682}";
}
);
layerId = "BCC09A48-EAE1-493E-95CB-92D2C26BC05D";
name = Regular;
paths = (
{
closed = 1;
nodes = (
"729 682 LINE",
"584 32 LINE",
"417 682 LINE",
"379 682 LINE",
"214 32 LINE",
"68 682 LINE",
"35 682 LINE",
"194 0 LINE",
"230 0 LINE",
"398 652 LINE",
"566 0 LINE",
"602 0 LINE",
"761 682 LINE"
);
}
);
width = 796;
},
{
anchors = (
{
name = top;
position = "{413, 689}";
}
);
layerId = "A11F629A-ECF3-413E-B2EC-6C6F8C33A243";
name = Regular;
paths = (
{
closed = 1;
nodes = (
"714 689 LINE",
"599 83 LINE",
"463 689 LINE",
"362 689 LINE",
"229 83 LINE",
"118 689 LINE",
"25 689 LINE",
"165 0 LINE",
"284 0 LINE",
"412 577 LINE",
"539 0 LINE",
"661 0 LINE",
"801 689 LINE"
);
}
);
width = 826;
}
);
leftKerningGroup = W;
rightKerningGroup = W;
unicode = 0057;
},
{
color = 4;
glyphname = X;
lastChange = "2014-03-28 11:11:26 +0100";
layers = (
{
anchors = (
{
name = bottomright;
position = "{546, 0}";
}
);
layerId = UUID0;
name = Bold;
paths = (
{
closed = 1;
nodes = (
"3 696 LINE",
"176 369 LINE",
"298 239 LINE",
"394 0 LINE",
"616 0 LINE",
"422 375 LINE",
"300 496 LINE",
"224 696 LINE"
);
},
{
closed = 1;
nodes = (
"385 696 LINE",
"300 496 LINE",
"176 369 LINE",
"-10 0 LINE",
"208 0 LINE",
"298 239 LINE",
"422 375 LINE",
"602 696 LINE"
);
}
);
width = 606;
},
{
anchors = (
{
name = bottomright;
position = "{454, 0}";
}
);
layerId = "F257A41E-77B2-4FB8-8247-C188CBBE1401";
name = Light;
paths = (
{
closed = 1;
nodes = (
"51 680 LINE",
"231 370 LINE",
"233 369 LINE",
"445 0 LINE",
"447 0 LINE",
"235 370 LINE",
"233 371 LINE",
"53 680 LINE"
);
},
{
closed = 1;
nodes = (
"414 680 LINE",
"233 371 LINE",
"231 370 LINE",
"20 0 LINE",
"22 0 LINE",
"233 369 LINE",
"235 370 LINE",
"416 680 LINE"
);
}
);
width = 467;
},
{
anchors = (
{
name = bottomright;
position = "{453, 0}";
}
);
layerId = "BCC09A48-EAE1-493E-95CB-92D2C26BC05D";
name = Regular;
paths = (
{
closed = 1;
nodes = (
"37 682 LINE",
"225 369 LINE",
"243 350 LINE",
"443 0 LINE",
"478 0 LINE",
"261 370 LINE",
"243 388 LINE",
"72 682 LINE"
);
},
{
closed = 1;
nodes = (
"412 682 LINE",
"243 388 LINE",
"225 369 LINE",
"15 0 LINE",
"49 0 LINE",
"243 350 LINE",
"261 370 LINE",
"446 682 LINE"
);
}
);
width = 489;
},
{
anchors = (
{
name = bottomright;
position = "{486, 0}";
}
);
layerId = "A11F629A-ECF3-413E-B2EC-6C6F8C33A243";
name = Regular;
paths = (
{
closed = 1;
nodes = (
"23 689 LINE",
"212 367 LINE",
"268 305 LINE",
"427 0 LINE",
"535 0 LINE",
"325 372 LINE",
"270 430 LINE",
"131 689 LINE"
);
},
{
closed = 1;
nodes = (
"410 689 LINE",
"270 430 LINE",
"212 367 LINE",
"5 0 LINE",
"107 0 LINE",
"268 305 LINE",
"325 372 LINE",
"512 689 LINE"
);
}
);
width = 540;
}
);
leftKerningGroup = X;
rightKerningGroup = X;
unicode = 0058;
},
{
color = 4;
glyphname = Y;
lastChange = "2014-03-28 11:13:54 +0100";
layers = (
{
anchors = (
{
name = top;
position = "{310, 696}";
},
{
name = topleft;
position = "{-10, 696}";
}
);
layerId = UUID0;
name = Bold;
paths = (
{
closed = 1;
nodes = (
"417 696 LINE",
"313 412 LINE",
"210 696 LINE",
"-15 696 LINE",
"207 256 LINE",
"207 0 LINE",
"413 0 LINE",
"413 257 LINE",
"635 696 LINE"
);
}
);
width = 620;
},
{
anchors = (
{
name = top;
position = "{240, 680}";
},
{
name = topleft;
position = "{15, 680}";
}
);
layerId = "F257A41E-77B2-4FB8-8247-C188CBBE1401";
name = Light;
paths = (
{
closed = 1;
nodes = (
"452 680 LINE",
"240 273 LINE",
"27 680 LINE",
"25 680 LINE",
"239 271 LINE",
"239 0 LINE",
"241 0 LINE",
"241 271 LINE",
"454 680 LINE"
);
}
);
width = 479;
},
{
anchors = (
{
name = top;
position = "{246, 682}";
},
{
name = topleft;
position = "{15, 682}";
}
);
layerId = "BCC09A48-EAE1-493E-95CB-92D2C26BC05D";
name = Regular;
paths = (
{
closed = 1;
nodes = (
"445 682 LINE",
"252 297 LINE",
"55 682 LINE",
"20 682 LINE",
"236 270 LINE",
"236 0 LINE",
"267 0 LINE",
"267 271 LINE",
"480 682 LINE"
);
}
);
width = 500;
},
{
anchors = (
{
name = top;
position = "{278, 689}";
},
{
name = topleft;
position = "{5, 689}";
}
);
layerId = "A11F629A-ECF3-413E-B2EC-6C6F8C33A243";
name = Regular;
paths = (
{
closed = 1;
nodes = (
"446 689 LINE",
"278 348 LINE",
"110 689 LINE",
"5 689 LINE",
"227 264 LINE",
"227 0 LINE",
"323 0 LINE",
"323 265 LINE",
"545 689 LINE"
);
}
);
width = 550;
}
);
leftKerningGroup = Y;
rightKerningGroup = Y;
unicode = 0059;
},
{
color = 4;
glyphname = Z;
lastChange = "2014-03-28 11:16:22 +0100";
layers = (
{
anchors = (
{
name = top;
position = "{279, 696}";
}
);
layerId = UUID0;
name = Bold;
paths = (
{
closed = 1;
nodes = (
"38 696 LINE",
"38 540 LINE",
"296 540 LINE",
"10 151 LINE",
"10 0 LINE",
"522 0 LINE",
"542 161 LINE",
"256 161 LINE",
"533 543 LINE",
"533 696 LINE"
);
}
);
width = 557;
},
{
anchors = (
{
name = top;
position = "{254, 680}";
}
);
layerId = "F257A41E-77B2-4FB8-8247-C188CBBE1401";
name = Light;
paths = (
{
closed = 1;
nodes = (
"82 680 LINE",
"82 678 LINE",
"451 678 LINE",
"45 2 LINE",
"45 0 LINE",
"437 0 LINE",
"437 2 LINE",
"48 2 LINE",
"454 678 LINE",
"454 680 LINE"
);
}
);
width = 504;
},
{
anchors = (
{
name = top;
position = "{256, 682}";
}
);
layerId = "BCC09A48-EAE1-493E-95CB-92D2C26BC05D";
name = Regular;
paths = (
{
closed = 1;
nodes = (
"78 682 LINE",
"78 653 LINE",
"425 653 LINE",
"40 28 LINE",
"40 0 LINE",
"445 0 LINE",
"449 30 LINE",
"77 30 LINE",
"461 655 LINE",
"461 682 LINE"
);
}
);
width = 511;
},
{
anchors = (
{
name = top;
position = "{272, 689}";
}
);
layerId = "A11F629A-ECF3-413E-B2EC-6C6F8C33A243";
name = Regular;
paths = (
{
closed = 1;
nodes = (
"66 689 LINE",
"66 609 LINE",
"374 609 LINE",
"30 76 LINE",
"30 0 LINE",
"466 0 LINE",
"477 81 LINE",
"136 81 LINE",
"477 612 LINE",
"477 689 LINE"
);
}
);
width = 522;
}
);
leftKerningGroup = Z;
rightKerningGroup = Z;
unicode = 005A;
},
{
color = 4;
glyphname = a;
lastChange = "2014-05-25 15:25:51 +0100";
layers = (
{
anchors = (
{
name = ogonek;
position = "{506, -16}";
},
{
name = top;
position = "{277, 534}";
}
);
layerId = UUID0;
name = Bold;
paths = (
{
closed = 1;
nodes = (
"203 554 OFFCURVE",
"120 539 OFFCURVE",
"53 512 CURVE",
"96 386 LINE",
"149 404 OFFCURVE",
"203 414 OFFCURVE",
"234 414 CURVE SMOOTH",
"293 414 OFFCURVE",
"311 400 OFFCURVE",
"311 346 CURVE",
"311 138 LINE",
"345 71 LINE",
"375 10 OFFCURVE",
"422 -11 OFFCURVE",
"496 -16 CURVE",
"536 111 LINE",
"512 120 OFFCURVE",
"504 135 OFFCURVE",
"504 173 CURVE SMOOTH",
"504 357 LINE SMOOTH",
"504 489 OFFCURVE",
"434 554 OFFCURVE",
"264 554 CURVE SMOOTH"
);
},
{
closed = 1;
nodes = (
"273 333 LINE SMOOTH",
"105 333 OFFCURVE",
"15 268 OFFCURVE",
"15 150 CURVE SMOOTH",
"15 51 OFFCURVE",
"84 -20 OFFCURVE",
"191 -20 CURVE SMOOTH",
"258 -20 OFFCURVE",
"324 3 OFFCURVE",
"362 75 CURVE",
"318 164 LINE",
"307 139 OFFCURVE",
"282 119 OFFCURVE",
"252 119 CURVE SMOOTH",
"225 119 OFFCURVE",
"208 139 OFFCURVE",
"208 169 CURVE SMOOTH",
"208 211 OFFCURVE",
"234 230 OFFCURVE",
"290 230 CURVE SMOOTH",
"337 230 LINE",
"337 333 LINE"
);
}
);
width = 551;
},
{
anchors = (
{
name = ogonek;
position = "{457, -9}";
},
{
name = top;
position = "{250, 517}";
}
);
layerId = "F257A41E-77B2-4FB8-8247-C188CBBE1401";
name = Light;
paths = (
{
closed = 1;
nodes = (
"208 527 OFFCURVE",
"161 516 OFFCURVE",
"106 493 CURVE",
"107 491 LINE",
"162 514 OFFCURVE",
"208 525 OFFCURVE",
"254 525 CURVE SMOOTH",
"357 525 OFFCURVE",
"393 466 OFFCURVE",
"393 372 CURVE SMOOTH",
"393 108 LINE",
"393 106 LINE",
"393 34 OFFCURVE",
"404 5 OFFCURVE",
"447 -9 CURVE",
"448 -7 LINE",
"405 6 OFFCURVE",
"395 37 OFFCURVE",
"395 110 CURVE SMOOTH",
"395 372 LINE SMOOTH",
"395 468 OFFCURVE",
"358 527 OFFCURVE",
"254 527 CURVE SMOOTH"
);
},
{
closed = 1;
nodes = (
"269 304 LINE SMOOTH",
"146 304 OFFCURVE",
"70 246 OFFCURVE",
"70 145 CURVE SMOOTH",
"70 56 OFFCURVE",
"123 -9 OFFCURVE",
"220 -9 CURVE SMOOTH",
"306 -9 OFFCURVE",
"359 32 OFFCURVE",
"394 107 CURVE",
"394 111 LINE",
"358 35 OFFCURVE",
"308 -7 OFFCURVE",
"220 -7 CURVE SMOOTH",
"124 -7 OFFCURVE",
"72 57 OFFCURVE",
"72 145 CURVE SMOOTH",
"72 244 OFFCURVE",
"147 302 OFFCURVE",
"269 302 CURVE SMOOTH",
"394 302 LINE",
"394 304 LINE"
);
}
);
width = 523;
},
{
anchors = (
{
name = ogonek;
position = "{463, -10}";
},
{
name = top;
position = "{256, 520}";
}
);
background = {
paths = (
{
closed = 1;
nodes = (
"405 98 LINE",
"402 32 OFFCURVE",
"425 2 OFFCURVE",
"468 -10 CURVE",
"475 11 LINE",
"445 23 OFFCURVE",
"431 42 OFFCURVE",
"431 110 CURVE SMOOTH",
"431 372 LINE SMOOTH",
"431 476 OFFCURVE",
"386 530 OFFCURVE",
"274 530 CURVE SMOOTH",
"221 530 OFFCURVE",
"172 517 OFFCURVE",
"120 496 CURVE",
"129 470 LINE",
"179 490 OFFCURVE",
"225 502 OFFCURVE",
"270 502 CURVE SMOOTH",
"369 502 OFFCURVE",
"401 457 OFFCURVE",
"401 368 CURVE",
"401 112 LINE"
);
}
);
};
layerId = "BCC09A48-EAE1-493E-95CB-92D2C26BC05D";
name = Regular;
paths = (
{
closed = 1;
nodes = (
"204 530 OFFCURVE",
"157 517 OFFCURVE",
"105 496 CURVE",
"114 470 LINE",
"164 490 OFFCURVE",
"210 502 OFFCURVE",
"256 502 CURVE SMOOTH",
"354 502 OFFCURVE",
"386 457 OFFCURVE",
"386 369 CURVE",
"386 112 LINE",
"390 98 LINE",
"389 31 OFFCURVE",
"410 3 OFFCURVE",
"453 -10 CURVE",
"460 11 LINE",
"430 23 OFFCURVE",
"416 42 OFFCURVE",
"416 110 CURVE SMOOTH",
"416 372 LINE SMOOTH",
"416 476 OFFCURVE",
"368 530 OFFCURVE",
"256 530 CURVE SMOOTH"
);
},
{
closed = 1;
nodes = (
"270 310 LINE SMOOTH",
"147 310 OFFCURVE",
"65 251 OFFCURVE",
"65 144 CURVE SMOOTH",
"65 51 OFFCURVE",
"124 -10 OFFCURVE",
"223 -10 CURVE SMOOTH",
"301 -10 OFFCURVE",
"357 26 OFFCURVE",
"395 94 CURVE",
"390 130 LINE",
"356 61 OFFCURVE",
"304 18 OFFCURVE",
"223 18 CURVE SMOOTH",
"146 18 OFFCURVE",
"97 64 OFFCURVE",
"97 144 CURVE SMOOTH",
"97 237 OFFCURVE",
"165 282 OFFCURVE",
"276 282 CURVE SMOOTH",
"393 282 LINE",
"393 310 LINE"
);
}
);
width = 530;
},
{
anchors = (
{
name = ogonek;
position = "{483, -12}";
},
{
name = top;
position = "{261, 527}";
}
);
layerId = "A11F629A-ECF3-413E-B2EC-6C6F8C33A243";
name = Regular;
paths = (
{
closed = 1;
nodes = (
"206 539 OFFCURVE",
"148 527 OFFCURVE",
"83 503 CURVE",
"106 436 LINE",
"160 454 OFFCURVE",
"209 464 OFFCURVE",
"248 464 CURVE SMOOTH",
"321 464 OFFCURVE",
"358 436 OFFCURVE",
"358 360 CURVE",
"358 123 LINE",
"365 86 LINE",
"378 20 OFFCURVE",
"414 -5 OFFCURVE",
"473 -12 CURVE",
"494 52 LINE",
"467 62 OFFCURVE",
"450 77 OFFCURVE",
"450 123 CURVE SMOOTH",
"450 364 LINE SMOOTH",
"450 474 OFFCURVE",
"392 539 OFFCURVE",
"265 539 CURVE SMOOTH"
);
},
{
closed = 1;
nodes = (
"277 321 LINE SMOOTH",
"130 321 OFFCURVE",
"45 260 OFFCURVE",
"45 147 CURVE SMOOTH",
"45 53 OFFCURVE",
"108 -12 OFFCURVE",
"213 -12 CURVE SMOOTH",
"283 -12 OFFCURVE",
"343 16 OFFCURVE",
"379 82 CURVE",
"367 157 LINE",
"336 90 OFFCURVE",
"294 57 OFFCURVE",
"234 57 CURVE SMOOTH",
"174 57 OFFCURVE",
"143 90 OFFCURVE",
"143 152 CURVE SMOOTH",
"143 224 OFFCURVE",
"192 260 OFFCURVE",
"289 260 CURVE SMOOTH",
"373 260 LINE",
"373 321 LINE"
);
}
);
width = 544;
}
);
leftKerningGroup = a;
rightKerningGroup = n;
unicode = 0061;
},
{
color = 7;
glyphname = aacute;
lastChange = "2014-03-17 16:09:48 +0100";
layers = (
{
background = {
paths = (
{
closed = 1;
nodes = (
"507 357 LINE SMOOTH",
"507 491 OFFCURVE",
"440 554 OFFCURVE",
"262 554 CURVE SMOOTH",
"204 554 OFFCURVE",
"121 539 OFFCURVE",
"51 512 CURVE",
"94 384 LINE",
"147 402 OFFCURVE",
"201 412 OFFCURVE",
"232 412 CURVE SMOOTH",
"301 412 OFFCURVE",
"319 398 OFFCURVE",
"319 344 CURVE SMOOTH",
"319 337 LINE",
"261 337 LINE SMOOTH",
"95 337 OFFCURVE",
"5 268 OFFCURVE",
"5 150 CURVE SMOOTH",
"5 51 OFFCURVE",
"73 -20 OFFCURVE",
"185 -20 CURVE SMOOTH",
"249 -20 OFFCURVE",
"312 1 OFFCURVE",
"351 50 CURVE",
"381 7 OFFCURVE",
"427 -11 OFFCURVE",
"499 -16 CURVE",
"539 111 LINE",
"515 120 OFFCURVE",
"507 135 OFFCURVE",
"507 173 CURVE SMOOTH"
);
},
{
closed = 1;
nodes = (
"226 119 OFFCURVE",
"211 138 OFFCURVE",
"211 165 CURVE SMOOTH",
"211 209 OFFCURVE",
"237 229 OFFCURVE",
"310 229 CURVE SMOOTH",
"319 229 LINE",
"319 169 LINE",
"305 137 OFFCURVE",
"278 119 OFFCURVE",
"253 119 CURVE SMOOTH"
);
},
{
closed = 1;
nodes = (
"182 600 LINE",
"438 714 LINE",
"354 856 LINE",
"123 699 LINE"
);
}
);
};
components = (
{
name = a;
transform = "{1, 0, 0, 1, 0, 0}";
},
{
name = acute;
transform = "{1, 0, 0, 1, 85, 0}";
}
);
layerId = UUID0;
name = Bold;
width = 551;
},
{
components = (
{
name = a;
transform = "{1, 0, 0, 1, 0, 0}";
},
{
name = acute;
transform = "{1, 0, 0, 1, 131, 0}";
}
);
layerId = "F257A41E-77B2-4FB8-8247-C188CBBE1401";
name = Light;
width = 523;
},
{
components = (
{
name = a;
transform = "{1, 0, 0, 1, 0, 0}";
},
{
name = acute;
transform = "{1, 0, 0, 1, 119, 0}";
}
);
layerId = "BCC09A48-EAE1-493E-95CB-92D2C26BC05D";
name = Regular;
width = 530;
},
{
components = (
{
name = a;
transform = "{1, 0, 0, 1, 0, 0}";
},
{
name = acute;
transform = "{1, 0, 0, 1, 101, 0}";
}
);
layerId = "A11F629A-ECF3-413E-B2EC-6C6F8C33A243";
name = Regular;
width = 544;
}
);
leftKerningGroup = a;
rightKerningGroup = n;
unicode = 00E1;
},
{
color = 4;
glyphname = ae;
lastChange = "2014-03-24 14:20:17 +0100";
layers = (
{
anchors = (
{
name = top;
position = "{431, 534}";
}
);
background = {
paths = (
{
closed = 1;
nodes = (
"211 554 OFFCURVE",
"128 539 OFFCURVE",
"61 512 CURVE",
"104 384 LINE",
"157 402 OFFCURVE",
"211 412 OFFCURVE",
"242 412 CURVE SMOOTH",
"301 412 OFFCURVE",
"319 398 OFFCURVE",
"319 344 CURVE",
"319 138 LINE",
"353 71 LINE",
"383 10 OFFCURVE",
"430 -11 OFFCURVE",
"509 -16 CURVE",
"549 111 LINE",
"525 120 OFFCURVE",
"517 135 OFFCURVE",
"517 173 CURVE SMOOTH",
"517 357 LINE SMOOTH",
"517 489 OFFCURVE",
"447 554 OFFCURVE",
"272 554 CURVE SMOOTH"
);
},
{
closed = 1;
nodes = (
"281 333 LINE SMOOTH",
"105 333 OFFCURVE",
"15 268 OFFCURVE",
"15 150 CURVE SMOOTH",
"15 51 OFFCURVE",
"83 -20 OFFCURVE",
"195 -20 CURVE SMOOTH",
"264 -20 OFFCURVE",
"333 5 OFFCURVE",
"370 71 CURVE",
"326 168 LINE",
"315 143 OFFCURVE",
"295 119 OFFCURVE",
"263 119 CURVE SMOOTH",
"236 119 OFFCURVE",
"221 138 OFFCURVE",
"221 165 CURVE SMOOTH",
"221 209 OFFCURVE",
"247 225 OFFCURVE",
"300 225 CURVE SMOOTH",
"345 225 LINE",
"345 333 LINE"
);
},
{
closed = 1;
nodes = (
"408 554 OFFCURVE",
"319 422 OFFCURVE",
"319 266 CURVE SMOOTH",
"319 101 OFFCURVE",
"411 -20 OFFCURVE",
"607 -20 CURVE SMOOTH",
"700 -20 OFFCURVE",
"774 16 OFFCURVE",
"827 59 CURVE",
"747 167 LINE",
"701 135 OFFCURVE",
"664 120 OFFCURVE",
"626 120 CURVE SMOOTH",
"557 120 OFFCURVE",
"516 140 OFFCURVE",
"516 263 CURVE SMOOTH",
"516 393 OFFCURVE",
"538 429 OFFCURVE",
"589 429 CURVE SMOOTH",
"640 429 OFFCURVE",
"651 384 OFFCURVE",
"652 330 CURVE SMOOTH",
"652 328 OFFCURVE",
"652 325 OFFCURVE",
"652 323 CURVE",
"501 323 LINE",
"503 211 LINE",
"843 211 LINE",
"845 230 OFFCURVE",
"847 257 OFFCURVE",
"847 274 CURVE SMOOTH",
"847 453 OFFCURVE",
"743 554 OFFCURVE",
"585 554 CURVE SMOOTH"
);
}
);
};
layerId = UUID0;
leftMetricsKey = a;
rightMetricsKey = e;
name = Bold;
paths = (
{
closed = 1;
nodes = (
"428 554 OFFCURVE",
"361 412 OFFCURVE",
"321 266 CURVE",
"323 220 LINE SMOOTH",
"329 93 OFFCURVE",
"424 -20 OFFCURVE",
"607 -20 CURVE SMOOTH",
"700 -20 OFFCURVE",
"774 16 OFFCURVE",
"827 59 CURVE",
"747 167 LINE",
"701 135 OFFCURVE",
"664 120 OFFCURVE",
"626 120 CURVE SMOOTH",
"557 120 OFFCURVE",
"516 140 OFFCURVE",
"516 263 CURVE SMOOTH",
"516 393 OFFCURVE",
"538 429 OFFCURVE",
"589 429 CURVE SMOOTH",
"640 429 OFFCURVE",
"651 384 OFFCURVE",
"652 330 CURVE SMOOTH",
"652 328 OFFCURVE",
"652 325 OFFCURVE",
"652 323 CURVE",
"501 323 LINE",
"503 211 LINE",
"843 211 LINE",
"845 230 OFFCURVE",
"847 257 OFFCURVE",
"847 274 CURVE SMOOTH",
"847 453 OFFCURVE",
"742 554 OFFCURVE",
"591 554 CURVE SMOOTH"
);
},
{
closed = 1;
nodes = (
"281 333 LINE SMOOTH",
"105 333 OFFCURVE",
"15 268 OFFCURVE",
"15 150 CURVE SMOOTH",
"15 51 OFFCURVE",
"83 -20 OFFCURVE",
"195 -20 CURVE SMOOTH",
"269 -20 OFFCURVE",
"343 3 OFFCURVE",
"390 77 CURVE",
"336 173 LINE",
"315 143 OFFCURVE",
"295 119 OFFCURVE",
"263 119 CURVE SMOOTH",
"236 119 OFFCURVE",
"221 138 OFFCURVE",
"221 165 CURVE SMOOTH",
"221 209 OFFCURVE",
"247 225 OFFCURVE",
"300 225 CURVE SMOOTH",
"345 225 LINE",
"345 333 LINE"
);
},
{
closed = 1;
nodes = (
"211 554 OFFCURVE",
"128 539 OFFCURVE",
"61 512 CURVE",
"104 384 LINE",
"157 402 OFFCURVE",
"211 412 OFFCURVE",
"242 412 CURVE SMOOTH",
"301 412 OFFCURVE",
"319 398 OFFCURVE",
"319 344 CURVE",
"321 266 LINE",
"516 263 LINE",
"497 357 LINE SMOOTH",
"475 466 OFFCURVE",
"427 554 OFFCURVE",
"272 554 CURVE SMOOTH"
);
}
);
width = 859;
},
{
anchors = (
{
name = top;
position = "{418, 517}";
}
);
background = {
paths = (
{
closed = 1;
nodes = (
"208 527 OFFCURVE",
"161 516 OFFCURVE",
"106 493 CURVE",
"107 491 LINE",
"162 514 OFFCURVE",
"208 525 OFFCURVE",
"254 525 CURVE SMOOTH",
"357 525 OFFCURVE",
"393 466 OFFCURVE",
"393 372 CURVE SMOOTH",
"393 108 LINE",
"393 106 LINE",
"393 34 OFFCURVE",
"404 5 OFFCURVE",
"447 -9 CURVE",
"448 -7 LINE",
"405 6 OFFCURVE",
"395 37 OFFCURVE",
"395 110 CURVE SMOOTH",
"395 372 LINE SMOOTH",
"395 468 OFFCURVE",
"358 527 OFFCURVE",
"254 527 CURVE SMOOTH"
);
},
{
closed = 1;
nodes = (
"269 304 LINE SMOOTH",
"146 304 OFFCURVE",
"70 246 OFFCURVE",
"70 145 CURVE SMOOTH",
"70 56 OFFCURVE",
"123 -9 OFFCURVE",
"220 -9 CURVE SMOOTH",
"306 -9 OFFCURVE",
"359 32 OFFCURVE",
"394 107 CURVE",
"394 111 LINE",
"358 35 OFFCURVE",
"308 -7 OFFCURVE",
"220 -7 CURVE SMOOTH",
"124 -7 OFFCURVE",
"72 57 OFFCURVE",
"72 145 CURVE SMOOTH",
"72 244 OFFCURVE",
"147 302 OFFCURVE",
"269 302 CURVE SMOOTH",
"394 302 LINE",
"394 304 LINE"
);
},
{
closed = 1;
nodes = (
"469 527 OFFCURVE",
"393 426 OFFCURVE",
"393 253 CURVE SMOOTH",
"393 85 OFFCURVE",
"470 -9 OFFCURVE",
"589 -9 CURVE SMOOTH",
"656 -9 OFFCURVE",
"698 13 OFFCURVE",
"743 50 CURVE",
"742 52 LINE",
"697 14 OFFCURVE",
"654 -7 OFFCURVE",
"589 -7 CURVE SMOOTH",
"472 -7 OFFCURVE",
"395 86 OFFCURVE",
"395 253 CURVE",
"395 424 OFFCURVE",
"470 525 OFFCURVE",
"589 525 CURVE SMOOTH",
"711 525 OFFCURVE",
"764 422 OFFCURVE",
"764 288 CURVE SMOOTH",
"764 275 OFFCURVE",
"764 267 OFFCURVE",
"763 254 CURVE",
"394 254 LINE",
"394 252 LINE",
"765 252 LINE",
"766 266 OFFCURVE",
"766 274 OFFCURVE",
"766 288 CURVE SMOOTH",
"766 424 OFFCURVE",
"712 527 OFFCURVE",
"589 527 CURVE SMOOTH"
);
}
);
};
layerId = "F257A41E-77B2-4FB8-8247-C188CBBE1401";
leftMetricsKey = a;
rightMetricsKey = e;
name = Light;
paths = (
{
closed = 1;
nodes = (
"477 527 OFFCURVE",
"404 439 OFFCURVE",
"394 288 CURVE",
"393 253 LINE",
"393 85 OFFCURVE",
"470 -9 OFFCURVE",
"589 -9 CURVE SMOOTH",
"656 -9 OFFCURVE",
"698 13 OFFCURVE",
"743 50 CURVE",
"742 52 LINE",
"697 14 OFFCURVE",
"654 -7 OFFCURVE",
"589 -7 CURVE SMOOTH",
"472 -7 OFFCURVE",
"395 86 OFFCURVE",
"395 253 CURVE",
"395 424 OFFCURVE",
"470 525 OFFCURVE",
"589 525 CURVE SMOOTH",
"711 525 OFFCURVE",
"764 422 OFFCURVE",
"764 288 CURVE SMOOTH",
"764 275 OFFCURVE",
"764 267 OFFCURVE",
"763 254 CURVE",
"394 254 LINE",
"394 252 LINE",
"765 252 LINE",
"766 266 OFFCURVE",
"766 274 OFFCURVE",
"766 288 CURVE SMOOTH",
"766 424 OFFCURVE",
"712 527 OFFCURVE",
"589 527 CURVE SMOOTH"
);
},
{
closed = 1;
nodes = (
"269 304 LINE SMOOTH",
"146 304 OFFCURVE",
"70 246 OFFCURVE",
"70 145 CURVE SMOOTH",
"70 56 OFFCURVE",
"123 -9 OFFCURVE",
"220 -9 CURVE SMOOTH",
"306 -9 OFFCURVE",
"358 30 OFFCURVE",
"411 122 CURVE",
"410 124 LINE",
"358 35 OFFCURVE",
"308 -7 OFFCURVE",
"220 -7 CURVE SMOOTH",
"124 -7 OFFCURVE",
"72 57 OFFCURVE",
"72 145 CURVE SMOOTH",
"72 244 OFFCURVE",
"147 302 OFFCURVE",
"269 302 CURVE SMOOTH",
"394 302 LINE",
"394 304 LINE"
);
},
{
closed = 1;
nodes = (
"208 527 OFFCURVE",
"161 516 OFFCURVE",
"106 493 CURVE",
"107 491 LINE",
"162 514 OFFCURVE",
"208 525 OFFCURVE",
"254 525 CURVE SMOOTH",
"357 525 OFFCURVE",
"393 466 OFFCURVE",
"393 372 CURVE SMOOTH",
"393 253 LINE",
"395 253 LINE",
"395 372 LINE SMOOTH",
"395 468 OFFCURVE",
"358 527 OFFCURVE",
"254 527 CURVE SMOOTH"
);
}
);
width = 841;
},
{
anchors = (
{
name = top;
position = "{423, 520}";
}
);
background = {
paths = (
{
closed = 1;
nodes = (
"466 530 OFFCURVE",
"386 426 OFFCURVE",
"386 256 CURVE SMOOTH",
"386 88 OFFCURVE",
"469 -10 OFFCURVE",
"598 -10 CURVE SMOOTH",
"665 -10 OFFCURVE",
"713 13 OFFCURVE",
"759 52 CURVE",
"742 74 LINE",
"697 38 OFFCURVE",
"659 18 OFFCURVE",
"598 18 CURVE SMOOTH",
"495 18 OFFCURVE",
"420 91 OFFCURVE",
"417 256 CURVE",
"417 428 OFFCURVE",
"496 502 OFFCURVE",
"589 502 CURVE SMOOTH",
"700 502 OFFCURVE",
"750 416 OFFCURVE",
"750 294 CURVE SMOOTH",
"750 280 OFFCURVE",
"750 276 OFFCURVE",
"750 270 CURVE",
"412 270 LINE",
"412 244 LINE",
"778 244 LINE",
"779 253 OFFCURVE",
"780 268 OFFCURVE",
"780 283 CURVE SMOOTH",
"780 431 OFFCURVE",
"717 530 OFFCURVE",
"587 530 CURVE SMOOTH"
);
},
{
closed = 1;
nodes = (
"206 530 OFFCURVE",
"157 517 OFFCURVE",
"105 496 CURVE",
"114 470 LINE",
"164 490 OFFCURVE",
"210 502 OFFCURVE",
"255 502 CURVE SMOOTH",
"354 502 OFFCURVE",
"386 457 OFFCURVE",
"386 368 CURVE",
"386 112 LINE",
"390 98 LINE",
"389 31 OFFCURVE",
"410 3 OFFCURVE",
"453 -10 CURVE",
"460 11 LINE",
"430 23 OFFCURVE",
"416 42 OFFCURVE",
"416 110 CURVE SMOOTH",
"416 372 LINE SMOOTH",
"416 476 OFFCURVE",
"371 530 OFFCURVE",
"259 530 CURVE SMOOTH"
);
},
{
closed = 1;
nodes = (
"270 310 LINE SMOOTH",
"147 310 OFFCURVE",
"65 251 OFFCURVE",
"65 144 CURVE SMOOTH",
"65 51 OFFCURVE",
"124 -10 OFFCURVE",
"223 -10 CURVE SMOOTH",
"301 -10 OFFCURVE",
"357 26 OFFCURVE",
"395 94 CURVE",
"390 130 LINE",
"356 61 OFFCURVE",
"304 18 OFFCURVE",
"223 18 CURVE SMOOTH",
"146 18 OFFCURVE",
"97 64 OFFCURVE",
"97 144 CURVE SMOOTH",
"97 237 OFFCURVE",
"165 282 OFFCURVE",
"276 282 CURVE SMOOTH",
"393 282 LINE",
"393 310 LINE"
);
}
);
};
layerId = "BCC09A48-EAE1-493E-95CB-92D2C26BC05D";
rightMetricsKey = e;
name = Regular;
paths = (
{
closed = 1;
nodes = (
"479 530 OFFCURVE",
"406 453 OFFCURVE",
"389 295 CURVE",
"386 256 LINE",
"386 88 OFFCURVE",
"469 -10 OFFCURVE",
"598 -10 CURVE SMOOTH",
"665 -10 OFFCURVE",
"713 13 OFFCURVE",
"759 52 CURVE",
"742 74 LINE",
"697 38 OFFCURVE",
"659 18 OFFCURVE",
"598 18 CURVE SMOOTH",
"495 18 OFFCURVE",
"420 91 OFFCURVE",
"417 256 CURVE",
"417 428 OFFCURVE",
"495 502 OFFCURVE",
"592 502 CURVE SMOOTH",
"700 502 OFFCURVE",
"750 416 OFFCURVE",
"750 294 CURVE SMOOTH",
"750 280 OFFCURVE",
"750 276 OFFCURVE",
"750 270 CURVE",
"412 270 LINE",
"412 244 LINE",
"778 244 LINE",
"779 253 OFFCURVE",
"780 268 OFFCURVE",
"780 283 CURVE SMOOTH",
"780 431 OFFCURVE",
"717 530 OFFCURVE",
"590 530 CURVE SMOOTH"
);
},
{
closed = 1;
nodes = (
"270 310 LINE SMOOTH",
"147 310 OFFCURVE",
"65 251 OFFCURVE",
"65 144 CURVE SMOOTH",
"65 51 OFFCURVE",
"124 -10 OFFCURVE",
"223 -10 CURVE SMOOTH",
"303 -10 OFFCURVE",
"363 26 OFFCURVE",
"425 122 CURVE",
"420 160 LINE",
"358 61 OFFCURVE",
"304 18 OFFCURVE",
"223 18 CURVE SMOOTH",
"146 18 OFFCURVE",
"97 64 OFFCURVE",
"97 144 CURVE SMOOTH",
"97 237 OFFCURVE",
"165 282 OFFCURVE",
"276 282 CURVE SMOOTH",
"393 282 LINE",
"393 310 LINE"
);
},
{
closed = 1;
nodes = (
"204 530 OFFCURVE",
"157 517 OFFCURVE",
"105 496 CURVE",
"114 470 LINE",
"164 490 OFFCURVE",
"210 502 OFFCURVE",
"256 502 CURVE",
"354 502 OFFCURVE",
"386 457 OFFCURVE",
"386 369 CURVE",
"386 256 LINE",
"416 256 LINE",
"416 372 LINE",
"416 476 OFFCURVE",
"368 530 OFFCURVE",
"256 530 CURVE"
);
}
);
width = 845;
},
{
anchors = (
{
name = top;
position = "{422, 527}";
}
);
background = {
paths = (
{
closed = 1;
nodes = (
"444 539 OFFCURVE",
"361 422 OFFCURVE",
"361 258 CURVE SMOOTH",
"361 91 OFFCURVE",
"447 -12 OFFCURVE",
"594 -12 CURVE SMOOTH",
"667 -12 OFFCURVE",
"726 13 OFFCURVE",
"778 54 CURVE",
"738 109 LINE",
"692 77 OFFCURVE",
"653 63 OFFCURVE",
"601 63 CURVE SMOOTH",
"518 63 OFFCURVE",
"458 118 OFFCURVE",
"458 265 CURVE SMOOTH",
"458 407 OFFCURVE",
"505 466 OFFCURVE",
"582 466 CURVE SMOOTH",
"665 466 OFFCURVE",
"706 409 OFFCURVE",
"706 306 CURVE SMOOTH",
"706 304 OFFCURVE",
"706 302 OFFCURVE",
"706 300 CURVE",
"443 300 LINE",
"443 232 LINE",
"795 232 LINE",
"796 244 OFFCURVE",
"797 261 OFFCURVE",
"797 279 CURVE SMOOTH",
"797 440 OFFCURVE",
"722 539 OFFCURVE",
"580 539 CURVE SMOOTH"
);
},
{
closed = 1;
nodes = (
"209 539 OFFCURVE",
"151 527 OFFCURVE",
"86 503 CURVE",
"109 436 LINE",
"163 454 OFFCURVE",
"212 464 OFFCURVE",
"251 464 CURVE SMOOTH",
"324 464 OFFCURVE",
"361 436 OFFCURVE",
"361 360 CURVE",
"361 123 LINE",
"368 86 LINE",
"381 20 OFFCURVE",
"417 -5 OFFCURVE",
"476 -12 CURVE",
"497 52 LINE",
"470 62 OFFCURVE",
"453 77 OFFCURVE",
"453 123 CURVE SMOOTH",
"453 364 LINE SMOOTH",
"453 474 OFFCURVE",
"395 539 OFFCURVE",
"268 539 CURVE SMOOTH"
);
},
{
closed = 1;
nodes = (
"280 321 LINE SMOOTH",
"133 321 OFFCURVE",
"45 260 OFFCURVE",
"45 147 CURVE SMOOTH",
"45 53 OFFCURVE",
"110 -12 OFFCURVE",
"216 -12 CURVE SMOOTH",
"286 -12 OFFCURVE",
"346 16 OFFCURVE",
"382 82 CURVE",
"370 157 LINE",
"339 90 OFFCURVE",
"297 57 OFFCURVE",
"237 57 CURVE SMOOTH",
"177 57 OFFCURVE",
"146 90 OFFCURVE",
"146 152 CURVE SMOOTH",
"146 224 OFFCURVE",
"195 260 OFFCURVE",
"292 260 CURVE SMOOTH",
"376 260 LINE",
"376 321 LINE"
);
}
);
};
layerId = "A11F629A-ECF3-413E-B2EC-6C6F8C33A243";
rightMetricsKey = e;
name = Regular;
paths = (
{
closed = 1;
nodes = (
"444 539 OFFCURVE",
"386 423 OFFCURVE",
"361 261 CURVE",
"361 257 LINE SMOOTH",
"362 89 OFFCURVE",
"448 -12 OFFCURVE",
"594 -12 CURVE SMOOTH",
"667 -12 OFFCURVE",
"726 13 OFFCURVE",
"778 54 CURVE",
"738 109 LINE",
"692 77 OFFCURVE",
"653 63 OFFCURVE",
"601 63 CURVE SMOOTH",
"518 63 OFFCURVE",
"458 118 OFFCURVE",
"458 265 CURVE SMOOTH",
"458 407 OFFCURVE",
"505 466 OFFCURVE",
"582 466 CURVE SMOOTH",
"665 466 OFFCURVE",
"706 409 OFFCURVE",
"706 306 CURVE SMOOTH",
"706 304 OFFCURVE",
"706 302 OFFCURVE",
"706 300 CURVE",
"443 300 LINE",
"443 232 LINE",
"795 232 LINE",
"796 244 OFFCURVE",
"797 261 OFFCURVE",
"797 279 CURVE SMOOTH",
"797 440 OFFCURVE",
"722 539 OFFCURVE",
"584 539 CURVE SMOOTH"
);
},
{
closed = 1;
nodes = (
"280 321 LINE SMOOTH",
"133 321 OFFCURVE",
"45 260 OFFCURVE",
"45 147 CURVE SMOOTH",
"45 53 OFFCURVE",
"110 -12 OFFCURVE",
"216 -12 CURVE SMOOTH",
"301 -12 OFFCURVE",
"361 17 OFFCURVE",
"412 96 CURVE",
"382 160 LINE",
"341 89 OFFCURVE",
"297 57 OFFCURVE",
"237 57 CURVE SMOOTH",
"177 57 OFFCURVE",
"146 90 OFFCURVE",
"146 152 CURVE SMOOTH",
"146 224 OFFCURVE",
"195 260 OFFCURVE",
"292 260 CURVE SMOOTH",
"376 260 LINE",
"376 321 LINE"
);
},
{
closed = 1;
nodes = (
"209 539 OFFCURVE",
"151 527 OFFCURVE",
"86 503 CURVE",
"109 436 LINE",
"163 454 OFFCURVE",
"212 464 OFFCURVE",
"251 464 CURVE SMOOTH",
"324 464 OFFCURVE",
"361 436 OFFCURVE",
"361 360 CURVE",
"361 261 LINE",
"453 262 LINE",
"453 364 LINE",
"437 464 OFFCURVE",
"395 539 OFFCURVE",
"268 539 CURVE SMOOTH"
);
}
);
width = 854;
}
);
leftKerningGroup = a;
leftMetricsKey = a;
rightKerningGroup = e;
rightMetricsKey = e;
unicode = 00E6;
},
{
color = 4;
glyphname = b;
lastChange = "2014-03-24 14:20:17 +0100";
layers = (
{
layerId = UUID0;
rightMetricsKey = "=o+5";
name = Bold;
paths = (
{
closed = 1;
nodes = (
"320 554 OFFCURVE",
"257 521 OFFCURVE",
"232 474 CURVE",
"229 340 LINE",
"251 392 OFFCURVE",
"280 412 OFFCURVE",
"311 412 CURVE SMOOTH",
"346 412 OFFCURVE",
"374 391 OFFCURVE",
"374 266 CURVE SMOOTH",
"374 154 OFFCURVE",
"345 121 OFFCURVE",
"305 121 CURVE SMOOTH",
"272 121 OFFCURVE",
"247 139 OFFCURVE",
"231 178 CURVE",
"215 61 LINE",
"245 11 OFFCURVE",
"297 -20 OFFCURVE",
"363 -20 CURVE SMOOTH",
"498 -20 OFFCURVE",
"577 103 OFFCURVE",
"577 266 CURVE SMOOTH",
"577 445 OFFCURVE",
"513 554 OFFCURVE",
"375 554 CURVE SMOOTH"
);
},
{
closed = 1;
nodes = (
"42 744 LINE",
"42 0 LINE",
"218 0 LINE",
"240 152 LINE",
"240 764 LINE"
);
}
);
width = 599;
},
{
layerId = "F257A41E-77B2-4FB8-8247-C188CBBE1401";
leftMetricsKey = n;
rightMetricsKey = "=o+5";
name = Light;
paths = (
{
closed = 1;
nodes = (
"222 527 OFFCURVE",
"169 481 OFFCURVE",
"126 420 CURVE",
"126 417 LINE",
"172 482 OFFCURVE",
"224 525 OFFCURVE",
"306 525 CURVE SMOOTH",
"420 525 OFFCURVE",
"480 429 OFFCURVE",
"480 264 CURVE SMOOTH",
"480 97 OFFCURVE",
"419 -7 OFFCURVE",
"302 -7 CURVE SMOOTH",
"223 -7 OFFCURVE",
"168 37 OFFCURVE",
"126 103 CURVE",
"126 100 LINE",
"166 36 OFFCURVE",
"222 -9 OFFCURVE",
"302 -9 CURVE SMOOTH",
"420 -9 OFFCURVE",
"482 95 OFFCURVE",
"482 264 CURVE SMOOTH",
"482 431 OFFCURVE",
"420 527 OFFCURVE",
"306 527 CURVE SMOOTH"
);
},
{
closed = 1;
nodes = (
"125 730 LINE",
"125 0 LINE",
"127 0 LINE",
"127 101 LINE",
"127 730 LINE"
);
}
);
width = 567;
},
{
layerId = "BCC09A48-EAE1-493E-95CB-92D2C26BC05D";
leftMetricsKey = n;
rightMetricsKey = "=o+5";
name = Regular;
paths = (
{
closed = 1;
nodes = (
"232 530 OFFCURVE",
"176 488 OFFCURVE",
"138 432 CURVE",
"139 398 LINE",
"185 460 OFFCURVE",
"230 502 OFFCURVE",
"309 502 CURVE SMOOTH",
"410 502 OFFCURVE",
"464 422 OFFCURVE",
"464 264 CURVE SMOOTH",
"464 105 OFFCURVE",
"407 18 OFFCURVE",
"302 18 CURVE SMOOTH",
"229 18 OFFCURVE",
"176 60 OFFCURVE",
"139 119 CURVE",
"137 84 LINE",
"167 36 OFFCURVE",
"224 -10 OFFCURVE",
"303 -10 CURVE SMOOTH",
"428 -10 OFFCURVE",
"495 94 OFFCURVE",
"495 264 CURVE SMOOTH",
"495 436 OFFCURVE",
"429 530 OFFCURVE",
"309 530 CURVE SMOOTH"
);
},
{
closed = 1;
nodes = (
"115 734 LINE",
"115 0 LINE",
"141 0 LINE",
"145 96 LINE",
"145 738 LINE"
);
}
);
width = 570;
},
{
layerId = "A11F629A-ECF3-413E-B2EC-6C6F8C33A243";
leftMetricsKey = n;
rightMetricsKey = "=o+5";
name = Regular;
paths = (
{
closed = 1;
nodes = (
"266 539 OFFCURVE",
"214 504 OFFCURVE",
"177 446 CURVE",
"179 371 LINE",
"206 417 OFFCURVE",
"246 466 OFFCURVE",
"310 466 CURVE SMOOTH",
"384 466 OFFCURVE",
"433 414 OFFCURVE",
"433 264 CURVE SMOOTH",
"433 120 OFFCURVE",
"380 61 OFFCURVE",
"303 61 CURVE SMOOTH",
"250 61 OFFCURVE",
"205 97 OFFCURVE",
"178 147 CURVE",
"172 75 LINE",
"209 21 OFFCURVE",
"260 -12 OFFCURVE",
"325 -12 CURVE SMOOTH",
"453 -12 OFFCURVE",
"532 99 OFFCURVE",
"532 264 CURVE SMOOTH",
"532 440 OFFCURVE",
"455 539 OFFCURVE",
"336 539 CURVE SMOOTH"
);
},
{
closed = 1;
nodes = (
"95 739 LINE",
"95 0 LINE",
"176 0 LINE",
"187 70 LINE",
"187 750 LINE SMOOTH"
);
}
);
width = 594;
}
);
leftKerningGroup = h;
leftMetricsKey = n;
rightKerningGroup = o;
rightMetricsKey = "=o+5";
unicode = 0062;
},
{
color = 4;
glyphname = c;
lastChange = "2014-04-01 10:27:25 +0100";
layers = (
{
anchors = (
{
name = bottom;
position = "{277, 0}";
},
{
name = top;
position = "{292, 534}";
}
);
layerId = UUID0;
leftMetricsKey = o;
name = Bold;
paths = (
{
closed = 1;
nodes = (
"126 554 OFFCURVE",
"17 432 OFFCURVE",
"17 263 CURVE SMOOTH",
"17 96 OFFCURVE",
"124 -20 OFFCURVE",
"300 -20 CURVE SMOOTH",
"380 -20 OFFCURVE",
"440 6 OFFCURVE",
"489 46 CURVE",
"401 170 LINE",
"367 144 OFFCURVE",
"344 133 OFFCURVE",
"311 133 CURVE SMOOTH",
"260 133 OFFCURVE",
"223 156 OFFCURVE",
"223 263 CURVE SMOOTH",
"223 371 OFFCURVE",
"255 405 OFFCURVE",
"313 405 CURVE SMOOTH",
"345 405 OFFCURVE",
"375 394 OFFCURVE",
"407 368 CURVE",
"489 483 LINE",
"438 528 OFFCURVE",
"377 554 OFFCURVE",
"295 554 CURVE SMOOTH"
);
}
);
width = 479;
},
{
anchors = (
{
name = bottom;
position = "{285, -1}";
},
{
name = top;
position = "{269, 517}";
}
);
layerId = "F257A41E-77B2-4FB8-8247-C188CBBE1401";
leftMetricsKey = o;
name = Light;
paths = (
{
closed = 1;
nodes = (
"156 527 OFFCURVE",
"80 426 OFFCURVE",
"80 256 CURVE SMOOTH",
"80 86 OFFCURVE",
"165 -9 OFFCURVE",
"280 -9 CURVE SMOOTH",
"341 -9 OFFCURVE",
"381 13 OFFCURVE",
"414 44 CURVE",
"412 45 LINE",
"379 14 OFFCURVE",
"339 -7 OFFCURVE",
"280 -7 CURVE SMOOTH",
"166 -7 OFFCURVE",
"82 88 OFFCURVE",
"82 256 CURVE SMOOTH",
"82 424 OFFCURVE",
"158 525 OFFCURVE",
"282 525 CURVE SMOOTH",
"333 525 OFFCURVE",
"373 509 OFFCURVE",
"408 476 CURVE",
"410 477 LINE",
"375 510 OFFCURVE",
"335 527 OFFCURVE",
"282 527 CURVE SMOOTH"
);
}
);
width = 469;
},
{
anchors = (
{
name = bottom;
position = "{283, 0}";
},
{
name = top;
position = "{282, 520}";
}
);
layerId = "BCC09A48-EAE1-493E-95CB-92D2C26BC05D";
leftMetricsKey = o;
name = Regular;
paths = (
{
closed = 1;
nodes = (
"156 530 OFFCURVE",
"70 426 OFFCURVE",
"70 257 CURVE SMOOTH",
"70 87 OFFCURVE",
"157 -10 OFFCURVE",
"286 -10 CURVE SMOOTH",
"343 -10 OFFCURVE",
"390 11 OFFCURVE",
"427 44 CURVE",
"410 66 LINE",
"376 36 OFFCURVE",
"336 18 OFFCURVE",
"284 18 CURVE SMOOTH",
"179 18 OFFCURVE",
"102 98 OFFCURVE",
"102 257 CURVE SMOOTH",
"102 419 OFFCURVE",
"180 502 OFFCURVE",
"285 502 CURVE SMOOTH",
"336 502 OFFCURVE",
"372 487 OFFCURVE",
"404 459 CURVE",
"421 480 LINE",
"380 515 OFFCURVE",
"340 530 OFFCURVE",
"284 530 CURVE SMOOTH"
);
}
);
width = 462;
},
{
anchors = (
{
name = bottom;
position = "{284, 0}";
},
{
name = top;
position = "{289, 527}";
}
);
layerId = "A11F629A-ECF3-413E-B2EC-6C6F8C33A243";
leftMetricsKey = o;
name = Regular;
paths = (
{
closed = 1;
nodes = (
"144 539 OFFCURVE",
"57 427 OFFCURVE",
"57 259 CURVE SMOOTH",
"57 89 OFFCURVE",
"145 -12 OFFCURVE",
"287 -12 CURVE SMOOTH",
"348 -12 OFFCURVE",
"401 8 OFFCURVE",
"448 46 CURVE",
"404 109 LINE",
"366 80 OFFCURVE",
"335 66 OFFCURVE",
"291 66 CURVE SMOOTH",
"208 66 OFFCURVE",
"156 123 OFFCURVE",
"156 261 CURVE SMOOTH",
"156 398 OFFCURVE",
"208 463 OFFCURVE",
"291 463 CURVE SMOOTH",
"335 463 OFFCURVE",
"368 450 OFFCURVE",
"403 422 CURVE",
"448 482 LINE",
"399 523 OFFCURVE",
"349 539 OFFCURVE",
"287 539 CURVE SMOOTH"
);
}
);
width = 478;
}
);
leftKerningGroup = o;
leftMetricsKey = o;
rightKerningGroup = c;
unicode = 0063;
},
{
color = 4;
glyphname = d;
lastChange = "2014-03-24 14:20:17 +0100";
layers = (
{
anchors = (
{
name = center;
position = "{301, 267}";
},
{
name = topright;
position = "{574, 744}";
}
);
layerId = UUID0;
leftMetricsKey = "=o+5";
rightMetricsKey = "=|n";
name = Bold;
paths = (
{
closed = 1;
nodes = (
"108 554 OFFCURVE",
"22 436 OFFCURVE",
"22 270 CURVE SMOOTH",
"22 94 OFFCURVE",
"86 -20 OFFCURVE",
"225 -20 CURVE SMOOTH",
"309 -20 OFFCURVE",
"356 25 OFFCURVE",
"383 66 CURVE",
"371 188 LINE",
"350 142 OFFCURVE",
"323 122 OFFCURVE",
"294 122 CURVE SMOOTH",
"256 122 OFFCURVE",
"225 140 OFFCURVE",
"225 268 CURVE SMOOTH",
"225 376 OFFCURVE",
"259 413 OFFCURVE",
"303 413 CURVE SMOOTH",
"333 413 OFFCURVE",
"350 396 OFFCURVE",
"374 368 CURVE",
"372 501 LINE",
"342 535 OFFCURVE",
"295 554 OFFCURVE",
"250 554 CURVE SMOOTH"
);
},
{
closed = 1;
nodes = (
"361 156 LINE",
"374 68 LINE",
"383 0 LINE",
"559 0 LINE",
"559 744 LINE",
"361 764 LINE"
);
}
);
width = 601;
},
{
anchors = (
{
name = center;
position = "{289, 259}";
},
{
name = topright;
position = "{497, 727}";
}
);
layerId = "F257A41E-77B2-4FB8-8247-C188CBBE1401";
leftMetricsKey = "=o+5";
rightMetricsKey = "=|n";
name = Light;
paths = (
{
closed = 1;
nodes = (
"156 527 OFFCURVE",
"85 417 OFFCURVE",
"85 257 CURVE SMOOTH",
"85 87 OFFCURVE",
"159 -9 OFFCURVE",
"273 -9 CURVE SMOOTH",
"364 -9 OFFCURVE",
"411 40 OFFCURVE",
"446 102 CURVE",
"446 106 LINE",
"411 42 OFFCURVE",
"364 -7 OFFCURVE",
"273 -7 CURVE SMOOTH",
"160 -7 OFFCURVE",
"87 89 OFFCURVE",
"87 257 CURVE SMOOTH",
"87 415 OFFCURVE",
"158 525 OFFCURVE",
"281 525 CURVE SMOOTH",
"367 525 OFFCURVE",
"420 471 OFFCURVE",
"446 419 CURVE",
"446 422 LINE",
"422 472 OFFCURVE",
"368 527 OFFCURVE",
"281 527 CURVE SMOOTH"
);
},
{
closed = 1;
nodes = (
"445 104 LINE SMOOTH",
"445 102 LINE",
"445 0 LINE",
"447 0 LINE",
"447 730 LINE",
"445 730 LINE"
);
}
);
width = 572;
},
{
anchors = (
{
name = center;
position = "{293, 260}";
},
{
name = topright;
position = "{490, 734}";
}
);
layerId = "BCC09A48-EAE1-493E-95CB-92D2C26BC05D";
leftMetricsKey = "=o+5";
rightMetricsKey = "=|n";
name = Regular;
paths = (
{
closed = 1;
nodes = (
"151 530 OFFCURVE",
"75 419 OFFCURVE",
"75 258 CURVE SMOOTH",
"75 90 OFFCURVE",
"152 -10 OFFCURVE",
"268 -10 CURVE SMOOTH",
"357 -10 OFFCURVE",
"406 39 OFFCURVE",
"433 91 CURVE",
"435 141 LINE",
"398 63 OFFCURVE",
"352 18 OFFCURVE",
"269 18 CURVE SMOOTH",
"170 18 OFFCURVE",
"107 106 OFFCURVE",
"106 258 CURVE SMOOTH",
"105 412 OFFCURVE",
"178 502 OFFCURVE",
"280 502 CURVE SMOOTH",
"360 502 OFFCURVE",
"407 454 OFFCURVE",
"437 403 CURVE",
"436 445 LINE",
"410 484 OFFCURVE",
"365 530 OFFCURVE",
"279 530 CURVE SMOOTH"
);
},
{
closed = 1;
nodes = (
"430 117 LINE",
"430 96 LINE",
"434 0 LINE",
"460 0 LINE",
"460 734 LINE",
"430 738 LINE"
);
}
);
width = 575.009;
},
{
anchors = (
{
name = center;
position = "{303, 264}";
},
{
name = topright;
position = "{523, 739}";
}
);
layerId = "A11F629A-ECF3-413E-B2EC-6C6F8C33A243";
rightMetricsKey = "=|n";
name = Regular;
paths = (
{
closed = 1;
nodes = (
"140 539 OFFCURVE",
"62 422 OFFCURVE",
"62 261 CURVE SMOOTH",
"62 97 OFFCURVE",
"133 -12 OFFCURVE",
"261 -12 CURVE SMOOTH",
"332 -12 OFFCURVE",
"389 26 OFFCURVE",
"422 88 CURVE",
"419 151 LINE",
"381 94 OFFCURVE",
"344 61 OFFCURVE",
"281 61 CURVE SMOOTH",
"205 61 OFFCURVE",
"161 124 OFFCURVE",
"161 263 CURVE SMOOTH",
"161 400 OFFCURVE",
"210 466 OFFCURVE",
"289 466 CURVE SMOOTH",
"346 466 OFFCURVE",
"385 434 OFFCURVE",
"420 385 CURVE",
"421 463 LINE",
"385 505 OFFCURVE",
"337 539 OFFCURVE",
"269 539 CURVE SMOOTH"
);
},
{
closed = 1;
nodes = (
"411 123 LINE",
"411 89 LINE",
"422 0 LINE",
"503 0 LINE",
"503 739 LINE",
"411 750 LINE"
);
}
);
width = 598;
}
);
leftKerningGroup = o;
leftMetricsKey = "=o+5";
rightKerningGroup = l;
rightMetricsKey = "=\\n";
unicode = 0064;
},
{
color = 4;
glyphname = eth;
lastChange = "2014-04-26 14:50:14 +0100";
layers = (
{
layerId = UUID0;
leftMetricsKey = o;
rightMetricsKey = "=o+5";
name = Bold;
paths = (
{
closed = 1;
nodes = (
"63 639 LINE",
"96 634 OFFCURVE",
"149 624 OFFCURVE",
"205 604 CURVE",
"299 548 OFFCURVE",
"332 504 OFFCURVE",
"357 434 CURVE",
"360 342 LINE",
"360 311 OFFCURVE",
"360 281 OFFCURVE",
"360 250 CURVE",
"360 161 OFFCURVE",
"345 121 OFFCURVE",
"290 121 CURVE SMOOTH",
"245 121 OFFCURVE",
"218 149 OFFCURVE",
"218 235 CURVE SMOOTH",
"218 310 OFFCURVE",
"241 348 OFFCURVE",
"289 348 CURVE SMOOTH",
"322 348 OFFCURVE",
"350 336 OFFCURVE",
"372 316 CURVE",
"365 438 LINE",
"326 466 OFFCURVE",
"286 482 OFFCURVE",
"229 482 CURVE SMOOTH",
"118 482 OFFCURVE",
"17 381 OFFCURVE",
"17 233 CURVE SMOOTH",
"17 74 OFFCURVE",
"133 -20 OFFCURVE",
"286 -20 CURVE SMOOTH",
"469 -20 OFFCURVE",
"562 122 OFFCURVE",
"562 284 CURVE SMOOTH",
"562 463 OFFCURVE",
"500 602 OFFCURVE",
"314 707 CURVE",
"212 744 OFFCURVE",
"160 755 OFFCURVE",
"101 763 CURVE"
);
},
{
closed = 1;
nodes = (
"234 721 LINE",
"150 635 LINE",
"94 576 LINE",
"216 521 LINE",
"271 577 LINE",
"358 666 LINE",
"417 726 LINE",
"320 811 LINE"
);
}
);
width = 584;
},
{
layerId = "F257A41E-77B2-4FB8-8247-C188CBBE1401";
leftMetricsKey = o;
rightMetricsKey = "=o+5";
name = Light;
paths = (
{
closed = 1;
nodes = (
"152 732 LINE",
"201 720 OFFCURVE",
"253 699 OFFCURVE",
"296 669 CURVE",
"395 598 OFFCURVE",
"450 491 OFFCURVE",
"453 335 CURVE",
"453 334 LINE",
"453 330 OFFCURVE",
"453 326 OFFCURVE",
"453 322 CURVE",
"453 93 OFFCURVE",
"386 -7 OFFCURVE",
"264 -7 CURVE SMOOTH",
"151 -7 OFFCURVE",
"82 88 OFFCURVE",
"82 228 CURVE SMOOTH",
"82 351 OFFCURVE",
"147 455 OFFCURVE",
"260 455 CURVE SMOOTH",
"344 455 OFFCURVE",
"406 405 OFFCURVE",
"454 332 CURVE",
"454 335 LINE",
"407 407 OFFCURVE",
"344 457 OFFCURVE",
"260 457 CURVE SMOOTH",
"145 457 OFFCURVE",
"80 351 OFFCURVE",
"80 228 CURVE SMOOTH",
"80 88 OFFCURVE",
"149 -9 OFFCURVE",
"264 -9 CURVE SMOOTH",
"388 -9 OFFCURVE",
"455 93 OFFCURVE",
"455 322 CURVE SMOOTH",
"455 486 OFFCURVE",
"400 598 OFFCURVE",
"298 670 CURVE",
"255 701 OFFCURVE",
"202 722 OFFCURVE",
"152 734 CURVE"
);
},
{
closed = 1;
nodes = (
"297 671 LINE",
"296 670 LINE",
"207 577 LINE",
"209 576 LINE",
"298 669 LINE",
"299 670 LINE",
"361 736 LINE",
"359 737 LINE"
);
}
);
width = 540;
},
{
layerId = "BCC09A48-EAE1-493E-95CB-92D2C26BC05D";
leftMetricsKey = o;
rightMetricsKey = "=o+15";
name = Regular;
paths = (
{
closed = 1;
nodes = (
"141 713 LINE",
"192 703 OFFCURVE",
"248 676 OFFCURVE",
"282 651 CURVE",
"381 576 OFFCURVE",
"429 478 OFFCURVE",
"437 350 CURVE",
"437 340 LINE",
"438 328 OFFCURVE",
"438 317 OFFCURVE",
"438 295 CURVE SMOOTH",
"438 113 OFFCURVE",
"376 18 OFFCURVE",
"269 18 CURVE SMOOTH",
"162 18 OFFCURVE",
"102 97 OFFCURVE",
"102 229 CURVE SMOOTH",
"102 345 OFFCURVE",
"161 435 OFFCURVE",
"262 435 CURVE SMOOTH",
"331 435 OFFCURVE",
"392 394 OFFCURVE",
"443 328 CURVE",
"443 361 LINE",
"394 424 OFFCURVE",
"336 463 OFFCURVE",
"260 463 CURVE SMOOTH",
"138 463 OFFCURVE",
"70 353 OFFCURVE",
"70 231 CURVE SMOOTH",
"70 85 OFFCURVE",
"140 -10 OFFCURVE",
"269 -10 CURVE SMOOTH",
"388 -10 OFFCURVE",
"469 84 OFFCURVE",
"469 292 CURVE SMOOTH",
"469 482 OFFCURVE",
"408 588 OFFCURVE",
"310 665 CURVE",
"259 702 OFFCURVE",
"202 728 OFFCURVE",
"148 739 CURVE"
);
},
{
closed = 1;
nodes = (
"281 670 LINE",
"272 660 LINE",
"185 571 LINE",
"210 562 LINE",
"291 645 LINE",
"301 655 LINE",
"378 733 LINE",
"358 750 LINE"
);
}
);
width = 554;
},
{
layerId = "A11F629A-ECF3-413E-B2EC-6C6F8C33A243";
name = Regular;
paths = (
{
closed = 1;
nodes = (
"112 680 LINE",
"164 670 OFFCURVE",
"204 657 OFFCURVE",
"257 628 CURVE",
"347 569 OFFCURVE",
"390 496 OFFCURVE",
"407 397 CURVE",
"411 347 LINE",
"413 321 OFFCURVE",
"415 296 OFFCURVE",
"415 266 CURVE SMOOTH",
"415 131 OFFCURVE",
"358 61 OFFCURVE",
"277 61 CURVE SMOOTH",
"202 61 OFFCURVE",
"151 122 OFFCURVE",
"151 239 CURVE SMOOTH",
"151 327 OFFCURVE",
"178 403 OFFCURVE",
"272 403 CURVE SMOOTH",
"340 403 OFFCURVE",
"387 371 OFFCURVE",
"421 311 CURVE",
"414 397 LINE",
"378 445 OFFCURVE",
"329 475 OFFCURVE",
"258 475 CURVE SMOOTH",
"121 475 OFFCURVE",
"57 353 OFFCURVE",
"57 235 CURVE SMOOTH",
"57 77 OFFCURVE",
"155 -12 OFFCURVE",
"278 -12 CURVE SMOOTH",
"414 -12 OFFCURVE",
"508 97 OFFCURVE",
"508 265 CURVE SMOOTH",
"508 462 OFFCURVE",
"458 593 OFFCURVE",
"305 689 CURVE",
"250 720 OFFCURVE",
"197 737 OFFCURVE",
"132 750 CURVE"
);
},
{
closed = 1;
nodes = (
"270 690 LINE",
"237 657 LINE",
"151 571 LINE",
"214 539 LINE",
"299 620 LINE",
"333 655 LINE",
"405 729 LINE",
"351 776 LINE"
);
}
);
width = 570;
}
);
leftKerningGroup = eth;
leftMetricsKey = o;
rightKerningGroup = eth;
rightMetricsKey = "=o+5";
unicode = 00F0;
},
{
color = 7;
glyphname = dcroat;
lastChange = "2014-03-24 14:20:17 +0100";
layers = (
{
components = (
{
disableAlignment = 1;
name = d;
transform = "{1, 0, 0, 1, 0, 0}";
}
);
layerId = UUID0;
leftMetricsKey = d;
rightMetricsKey = "=|hbar";
name = Bold;
paths = (
{
closed = 1;
nodes = (
"230 696 LINE",
"245 590 LINE",
"559 590 LINE",
"611 590 LINE",
"611 696 LINE"
);
}
);
width = 601;
},
{
components = (
{
disableAlignment = 1;
name = d;
transform = "{1, 0, 0, 1, 0, 0}";
}
);
layerId = "F257A41E-77B2-4FB8-8247-C188CBBE1401";
rightMetricsKey = "=|hbar";
name = Light;
paths = (
{
closed = 1;
nodes = (
"265 640 LINE",
"265 638 LINE",
"447 638 LINE",
"522 638 LINE",
"522 640 LINE"
);
}
);
width = 577;
},
{
components = (
{
disableAlignment = 1;
name = d;
transform = "{1, 0, 0, 1, 0, 0}";
}
);
layerId = "BCC09A48-EAE1-493E-95CB-92D2C26BC05D";
name = Regular;
paths = (
{
closed = 1;
nodes = (
"259 652 LINE",
"263 625 LINE",
"460 625 LINE",
"535 625 LINE",
"535 652 LINE"
);
}
);
width = 580;
},
{
components = (
{
disableAlignment = 1;
name = d;
transform = "{1, 0, 0, 1, 0, 0}";
}
);
layerId = "A11F629A-ECF3-413E-B2EC-6C6F8C33A243";
name = Regular;
paths = (
{
closed = 1;
nodes = (
"248 676 LINE",
"258 606 LINE",
"503 606 LINE",
"582 606 LINE",
"582 676 LINE"
);
}
);
width = 607;
}
);
leftKerningGroup = o;
leftMetricsKey = d;
rightKerningGroup = l;
rightMetricsKey = "=|hbar";
unicode = 0111;
},
{
color = 4;
glyphname = e;
lastChange = "2014-04-01 08:40:19 +0100";
layers = (
{
anchors = (
{
name = bottom;
position = "{294, 0}";
},
{
name = ogonek;
position = "{455, 11}";
},
{
name = top;
position = "{285, 534}";
}
);
layerId = UUID0;
leftMetricsKey = o;
rightMetricsKey = "=o-5";
name = Bold;
paths = (
{
closed = 1;
nodes = (
"106 554 OFFCURVE",
"17 422 OFFCURVE",
"17 266 CURVE SMOOTH",
"17 101 OFFCURVE",
"109 -20 OFFCURVE",
"305 -20 CURVE SMOOTH",
"398 -20 OFFCURVE",
"472 16 OFFCURVE",
"525 59 CURVE",
"445 167 LINE",
"399 135 OFFCURVE",
"362 120 OFFCURVE",
"324 120 CURVE SMOOTH",
"255 120 OFFCURVE",
"214 140 OFFCURVE",
"214 263 CURVE SMOOTH",
"214 393 OFFCURVE",
"236 429 OFFCURVE",
"287 429 CURVE SMOOTH",
"338 429 OFFCURVE",
"349 384 OFFCURVE",
"350 330 CURVE SMOOTH",
"350 328 OFFCURVE",
"350 325 OFFCURVE",
"350 323 CURVE",
"199 323 LINE",
"201 211 LINE",
"541 211 LINE",
"543 230 OFFCURVE",
"545 257 OFFCURVE",
"545 274 CURVE SMOOTH",
"545 453 OFFCURVE",
"441 554 OFFCURVE",
"283 554 CURVE SMOOTH"
);
}
);
width = 557;
},
{
anchors = (
{
name = bottom;
position = "{276, 0}";
},
{
name = ogonek;
position = "{364, 4}";
},
{
name = top;
position = "{276, 517}";
}
);
layerId = "F257A41E-77B2-4FB8-8247-C188CBBE1401";
leftMetricsKey = o;
rightMetricsKey = "=o-5";
name = Light;
paths = (
{
closed = 1;
nodes = (
"156 527 OFFCURVE",
"80 426 OFFCURVE",
"80 253 CURVE SMOOTH",
"80 85 OFFCURVE",
"157 -9 OFFCURVE",
"276 -9 CURVE SMOOTH",
"343 -9 OFFCURVE",
"385 13 OFFCURVE",
"430 50 CURVE",
"429 52 LINE",
"384 14 OFFCURVE",
"341 -7 OFFCURVE",
"276 -7 CURVE SMOOTH",
"159 -7 OFFCURVE",
"82 86 OFFCURVE",
"82 253 CURVE",
"82 424 OFFCURVE",
"157 525 OFFCURVE",
"276 525 CURVE SMOOTH",
"398 525 OFFCURVE",
"451 422 OFFCURVE",
"451 288 CURVE SMOOTH",
"451 275 OFFCURVE",
"451 267 OFFCURVE",
"450 254 CURVE",
"81 254 LINE",
"81 252 LINE",
"452 252 LINE",
"453 266 OFFCURVE",
"453 274 OFFCURVE",
"453 288 CURVE SMOOTH",
"453 424 OFFCURVE",
"399 527 OFFCURVE",
"276 527 CURVE SMOOTH"
);
}
);
width = 528;
},
{
anchors = (
{
name = bottom;
position = "{286, 0}";
},
{
name = ogonek;
position = "{375, 5}";
},
{
name = top;
position = "{274, 520}";
}
);
layerId = "BCC09A48-EAE1-493E-95CB-92D2C26BC05D";
leftMetricsKey = o;
rightMetricsKey = "=o-5";
name = Regular;
paths = (
{
closed = 1;
nodes = (
"150 530 OFFCURVE",
"70 426 OFFCURVE",
"70 256 CURVE SMOOTH",
"70 88 OFFCURVE",
"153 -10 OFFCURVE",
"282 -10 CURVE SMOOTH",
"349 -10 OFFCURVE",
"397 13 OFFCURVE",
"443 52 CURVE",
"426 74 LINE",
"381 38 OFFCURVE",
"343 18 OFFCURVE",
"282 18 CURVE SMOOTH",
"179 18 OFFCURVE",
"104 91 OFFCURVE",
"101 256 CURVE",
"101 428 OFFCURVE",
"180 502 OFFCURVE",
"273 502 CURVE SMOOTH",
"384 502 OFFCURVE",
"434 416 OFFCURVE",
"434 294 CURVE SMOOTH",
"434 280 OFFCURVE",
"434 276 OFFCURVE",
"434 270 CURVE",
"96 270 LINE",
"96 244 LINE",
"462 244 LINE",
"463 253 OFFCURVE",
"464 268 OFFCURVE",
"464 283 CURVE SMOOTH",
"464 431 OFFCURVE",
"401 530 OFFCURVE",
"271 530 CURVE SMOOTH"
);
}
);
width = 529;
},
{
anchors = (
{
name = bottom;
position = "{293, 0}";
},
{
name = ogonek;
position = "{399, 6}";
},
{
name = top;
position = "{279, 527}";
}
);
layerId = "A11F629A-ECF3-413E-B2EC-6C6F8C33A243";
name = Regular;
paths = (
{
closed = 1;
nodes = (
"140 539 OFFCURVE",
"57 422 OFFCURVE",
"57 258 CURVE SMOOTH",
"57 91 OFFCURVE",
"143 -12 OFFCURVE",
"290 -12 CURVE SMOOTH",
"363 -12 OFFCURVE",
"422 13 OFFCURVE",
"474 54 CURVE",
"434 109 LINE",
"388 77 OFFCURVE",
"349 63 OFFCURVE",
"297 63 CURVE SMOOTH",
"214 63 OFFCURVE",
"154 118 OFFCURVE",
"154 265 CURVE SMOOTH",
"154 407 OFFCURVE",
"201 466 OFFCURVE",
"278 466 CURVE SMOOTH",
"361 466 OFFCURVE",
"402 409 OFFCURVE",
"402 306 CURVE SMOOTH",
"402 304 OFFCURVE",
"402 302 OFFCURVE",
"402 300 CURVE",
"139 300 LINE",
"139 232 LINE",
"491 232 LINE",
"492 244 OFFCURVE",
"493 261 OFFCURVE",
"493 279 CURVE SMOOTH",
"493 440 OFFCURVE",
"418 539 OFFCURVE",
"276 539 CURVE SMOOTH"
);
}
);
width = 550;
}
);
leftKerningGroup = o;
leftMetricsKey = o;
rightKerningGroup = e;
rightMetricsKey = o;
unicode = 0065;
},
{
color = 4;
glyphname = f;
lastChange = "2014-04-25 16:46:17 +0100";
layers = (
{
layerId = UUID0;
name = Bold;
paths = (
{
closed = 1;
nodes = (
"143 764 OFFCURVE",
"70 675 OFFCURVE",
"70 565 CURVE SMOOTH",
"70 0 LINE",
"268 0 LINE",
"268 555 LINE SMOOTH",
"268 605 OFFCURVE",
"285 622 OFFCURVE",
"323 622 CURVE SMOOTH",
"345 622 OFFCURVE",
"373 617 OFFCURVE",
"401 602 CURVE",
"453 727 LINE",
"416 747 OFFCURVE",
"354 764 OFFCURVE",
"296 764 CURVE SMOOTH"
);
},
{
closed = 1;
nodes = (
"-2 534 LINE",
"-2 400 LINE",
"370 400 LINE",
"392 534 LINE"
);
}
);
width = 369;
},
{
layerId = "F257A41E-77B2-4FB8-8247-C188CBBE1401";
name = Light;
paths = (
{
closed = 1;
nodes = (
"174 733 OFFCURVE",
"127 694 OFFCURVE",
"127 618 CURVE SMOOTH",
"127 0 LINE",
"129 0 LINE",
"129 618 LINE SMOOTH",
"129 693 OFFCURVE",
"175 731 OFFCURVE",
"238 731 CURVE SMOOTH",
"282 731 OFFCURVE",
"318 717 OFFCURVE",
"348 698 CURVE",
"349 700 LINE",
"319 719 OFFCURVE",
"282 733 OFFCURVE",
"238 733 CURVE SMOOTH"
);
},
{
closed = 1;
nodes = (
"35 517 LINE",
"35 515 LINE",
"280 515 LINE",
"280 517 LINE"
);
}
);
width = 299;
},
{
layerId = "BCC09A48-EAE1-493E-95CB-92D2C26BC05D";
name = Regular;
paths = (
{
closed = 1;
nodes = (
"170 738 OFFCURVE",
"118 695 OFFCURVE",
"118 617 CURVE SMOOTH",
"118 0 LINE",
"148 0 LINE",
"148 613 LINE SMOOTH",
"148 683 OFFCURVE",
"188 710 OFFCURVE",
"249 710 CURVE SMOOTH",
"286 710 OFFCURVE",
"319 701 OFFCURVE",
"353 685 CURVE",
"365 709 LINE",
"330 727 OFFCURVE",
"288 738 OFFCURVE",
"247 738 CURVE SMOOTH"
);
},
{
closed = 1;
nodes = (
"30 520 LINE",
"30 493 LINE",
"289 493 LINE",
"294 520 LINE"
);
}
);
width = 310;
},
{
layerId = "A11F629A-ECF3-413E-B2EC-6C6F8C33A243";
name = Regular;
paths = (
{
closed = 1;
nodes = (
"162 750 OFFCURVE",
"104 687 OFFCURVE",
"104 599 CURVE SMOOTH",
"104 0 LINE",
"196 0 LINE",
"196 600 LINE SMOOTH",
"196 651 OFFCURVE",
"216 676 OFFCURVE",
"274 676 CURVE SMOOTH",
"301 676 OFFCURVE",
"332 671 OFFCURVE",
"366 656 CURVE",
"395 723 LINE",
"353 741 OFFCURVE",
"319 750 OFFCURVE",
"269 750 CURVE SMOOTH"
);
},
{
closed = 1;
nodes = (
"10 527 LINE",
"10 456 LINE",
"314 456 LINE",
"324 527 LINE"
);
}
);
width = 335;
}
);
leftKerningGroup = f;
rightKerningGroup = f;
unicode = 0066;
},
{
color = 4;
glyphname = g;
lastChange = "2014-03-28 11:16:47 +0100";
layers = (
{
anchors = (
{
name = top;
position = "{286, 534}";
}
);
layerId = UUID0;
name = Bold;
paths = (
{
closed = 1;
nodes = (
"461 591 OFFCURVE",
"382 550 OFFCURVE",
"271 554 CURVE",
"119 554 OFFCURVE",
"20 481 OFFCURVE",
"20 353 CURVE SMOOTH",
"20 284.257 OFFCURVE",
"46.6501 236.401 OFFCURVE",
"119.51 197.208 CURVE",
"80.7112 173.697 OFFCURVE",
"52 132.271 OFFCURVE",
"52 89.9999 CURVE SMOOTH",
"52 30.9999 OFFCURVE",
"102 -17 OFFCURVE",
"232 -17 CURVE SMOOTH",
"306 -17 LINE SMOOTH",
"350 -17 OFFCURVE",
"363 -37 OFFCURVE",
"363 -56 CURVE SMOOTH",
"363 -78 OFFCURVE",
"352 -102 OFFCURVE",
"272 -102 CURVE SMOOTH",
"188 -102 OFFCURVE",
"172 -88 OFFCURVE",
"172 -49 CURVE",
"-5 -49 LINE",
"-5 -153 OFFCURVE",
"47 -227 OFFCURVE",
"266 -227 CURVE SMOOTH",
"459 -227 OFFCURVE",
"562 -155 OFFCURVE",
"562 -42 CURVE SMOOTH",
"562 51 OFFCURVE",
"479 117 OFFCURVE",
"345 117 CURVE SMOOTH",
"268 117 LINE SMOOTH",
"219 117 OFFCURVE",
"216 132 OFFCURVE",
"216 142 CURVE SMOOTH",
"216 150 OFFCURVE",
"220 157 OFFCURVE",
"228 161 CURVE",
"246 158 OFFCURVE",
"263.732 158 OFFCURVE",
"285 158 CURVE SMOOTH",
"431 158 OFFCURVE",
"522 233 OFFCURVE",
"522 334 CURVE SMOOTH",
"522 408 OFFCURVE",
"488 445 OFFCURVE",
"418 474 CURVE",
"488 474 OFFCURVE",
"537 483 OFFCURVE",
"570 498 CURVE",
"527 636 LINE"
);
},
{
closed = 1;
nodes = (
"318 426 OFFCURVE",
"338 407 OFFCURVE",
"338 360 CURVE SMOOTH",
"338 308 OFFCURVE",
"317 284 OFFCURVE",
"277 284 CURVE SMOOTH",
"243 284 OFFCURVE",
"216 306 OFFCURVE",
"216 357 CURVE SMOOTH",
"216 403 OFFCURVE",
"242 426 OFFCURVE",
"277 426 CURVE SMOOTH"
);
}
);
width = 570;
},
{
anchors = (
{
name = bottom;
position = "{246, 0}";
},
{
name = top;
position = "{246, 517}";
}
);
layerId = "F257A41E-77B2-4FB8-8247-C188CBBE1401";
name = Light;
paths = (
{
closed = 1;
nodes = (
"424 534 OFFCURVE",
"397 527 OFFCURVE",
"241 527 CURVE SMOOTH",
"145 527 OFFCURVE",
"75 460 OFFCURVE",
"75 357 CURVE SMOOTH",
"75 286 OFFCURVE",
"112 241 OFFCURVE",
"162 215 CURVE",
"132 195 OFFCURVE",
"106 168 OFFCURVE",
"106 128 CURVE SMOOTH",
"106 82 OFFCURVE",
"143 54 OFFCURVE",
"217 54 CURVE SMOOTH",
"308 54 LINE SMOOTH",
"397 54 OFFCURVE",
"450 10 OFFCURVE",
"450 -59 CURVE SMOOTH",
"450 -145 OFFCURVE",
"385 -190 OFFCURVE",
"252 -190 CURVE SMOOTH",
"117 -190 OFFCURVE",
"57 -157 OFFCURVE",
"57 -60 CURVE",
"55 -60 LINE",
"55 -158 OFFCURVE",
"115 -192 OFFCURVE",
"252 -192 CURVE SMOOTH",
"387 -192 OFFCURVE",
"452 -146 OFFCURVE",
"452 -59 CURVE SMOOTH",
"452 10 OFFCURVE",
"400 56 OFFCURVE",
"308 56 CURVE SMOOTH",
"217 56 LINE SMOOTH",
"144 56 OFFCURVE",
"108 83 OFFCURVE",
"108 128 CURVE SMOOTH",
"108 165 OFFCURVE",
"132 194 OFFCURVE",
"164 214 CURVE",
"189 202 OFFCURVE",
"217 194 OFFCURVE",
"249 194 CURVE SMOOTH",
"351 194 OFFCURVE",
"419 252 OFFCURVE",
"419 356 CURVE SMOOTH",
"419 445 OFFCURVE",
"371 513 OFFCURVE",
"272 525 CURVE",
"378 525 OFFCURVE",
"428 532 OFFCURVE",
"462 542 CURVE",
"462 544 LINE"
);
},
{
closed = 1;
nodes = (
"329 525 OFFCURVE",
"417 481 OFFCURVE",
"417 356 CURVE SMOOTH",
"417 253 OFFCURVE",
"349 196 OFFCURVE",
"249 196 CURVE SMOOTH",
"167 196 OFFCURVE",
"77 250 OFFCURVE",
"77 357 CURVE SMOOTH",
"77 455 OFFCURVE",
"143 525 OFFCURVE",
"241 525 CURVE SMOOTH"
);
}
);
width = 487;
},
{
anchors = (
{
name = top;
position = "{248, 520}";
}
);
layerId = "BCC09A48-EAE1-493E-95CB-92D2C26BC05D";
name = Regular;
paths = (
{
closed = 1;
nodes = (
"421 538 OFFCURVE",
"392 529 OFFCURVE",
"244 530 CURVE SMOOTH",
"131 530 OFFCURVE",
"61.9999 461 OFFCURVE",
"61.9999 359 CURVE SMOOTH",
"61.9999 287.626 OFFCURVE",
"90.8388 240.44 OFFCURVE",
"149.414 210.262 CURVE",
"114.923 189.037 OFFCURVE",
"91.9999 160.839 OFFCURVE",
"91.9999 125 CURVE SMOOTH",
"91.9999 77 OFFCURVE",
"135 39 OFFCURVE",
"216 39 CURVE SMOOTH",
"302 39 LINE SMOOTH",
"383 39 OFFCURVE",
"430 3 OFFCURVE",
"430 -58 CURVE SMOOTH",
"430 -127 OFFCURVE",
"379 -171 OFFCURVE",
"251 -171 CURVE SMOOTH",
"118 -171 OFFCURVE",
"71.9999 -141 OFFCURVE",
"69.9999 -57 CURVE",
"39.9999 -57 LINE",
"39.9999 -159 OFFCURVE",
"104 -199 OFFCURVE",
"251 -199 CURVE SMOOTH",
"395 -199 OFFCURVE",
"461 -144 OFFCURVE",
"461 -56 CURVE SMOOTH",
"461 17 OFFCURVE",
"404 67 OFFCURVE",
"304 67 CURVE SMOOTH",
"218 67 LINE SMOOTH",
"148 67 OFFCURVE",
"123 94 OFFCURVE",
"123 130 CURVE SMOOTH",
"123 159.119 OFFCURVE",
"142.466 182.788 OFFCURVE",
"173.841 199.633 CURVE",
"193.482 192.972 OFFCURVE",
"217.39 189 OFFCURVE",
"243 189 CURVE SMOOTH",
"355 189 OFFCURVE",
"423 255 OFFCURVE",
"423 356 CURVE SMOOTH",
"423 437.055 OFFCURVE",
"386.519 481.63 OFFCURVE",
"337 506.133 CURVE",
"403 507 OFFCURVE",
"445 512 OFFCURVE",
"474 520 CURVE",
"464 553 LINE"
);
},
{
closed = 1;
nodes = (
"345 503 OFFCURVE",
"392 442 OFFCURVE",
"392 356 CURVE SMOOTH",
"392 267 OFFCURVE",
"338 216 OFFCURVE",
"243 216 CURVE SMOOTH",
"157 216 OFFCURVE",
"92.9999 264 OFFCURVE",
"92.9999 359 CURVE SMOOTH",
"92.9999 443 OFFCURVE",
"141 503 OFFCURVE",
"245 503 CURVE SMOOTH"
);
}
);
width = 489;
},
{
anchors = (
{
name = top;
position = "{257, 527}";
}
);
layerId = "A11F629A-ECF3-413E-B2EC-6C6F8C33A243";
name = Regular;
paths = (
{
closed = 1;
nodes = (
"431 558 OFFCURVE",
"383 536 OFFCURVE",
"252 539 CURVE SMOOTH",
"136 539 OFFCURVE",
"49 463 OFFCURVE",
"49 355 CURVE SMOOTH",
"49 287.005 OFFCURVE",
"76.763 240.699 OFFCURVE",
"137.945 208.81 CURVE",
"99.5455 184.186 OFFCURVE",
"80 150.484 OFFCURVE",
"80 116 CURVE SMOOTH",
"80 62.9999 OFFCURVE",
"122 15.9999 OFFCURVE",
"216 15.9999 CURVE SMOOTH",
"299 15.9999 LINE SMOOTH",
"365 15.9999 OFFCURVE",
"405 -9 OFFCURVE",
"405 -59 CURVE SMOOTH",
"405 -112 OFFCURVE",
"365 -141 OFFCURVE",
"251 -141 CURVE SMOOTH",
"135 -141 OFFCURVE",
"108 -113 OFFCURVE",
"108 -53 CURVE",
"25 -53 LINE",
"25 -160 OFFCURVE",
"79 -213 OFFCURVE",
"251 -213 CURVE SMOOTH",
"414 -213 OFFCURVE",
"498 -155 OFFCURVE",
"498 -53 CURVE SMOOTH",
"498 30.9999 OFFCURVE",
"426 92.9999 OFFCURVE",
"318 92.9999 CURVE SMOOTH",
"234 93 LINE SMOOTH",
"180 93 OFFCURVE",
"165 112 OFFCURVE",
"165 136 CURVE SMOOTH",
"165 155.484 OFFCURVE",
"175.545 174.309 OFFCURVE",
"191.285 184.984 CURVE",
"212.712 178.088 OFFCURVE",
"234.391 175 OFFCURVE",
"258 175 CURVE SMOOTH",
"384 175 OFFCURVE",
"459 250 OFFCURVE",
"459 354 CURVE SMOOTH",
"459 415 OFFCURVE",
"428 459 OFFCURVE",
"366 487 CURVE",
"426 487 OFFCURVE",
"476 489 OFFCURVE",
"520 503 CURVE",
"493 586 LINE"
);
},
{
closed = 1;
nodes = (
"327 473 OFFCURVE",
"365 433 OFFCURVE",
"365 356 CURVE SMOOTH",
"365 280 OFFCURVE",
"326 236 OFFCURVE",
"254 236 CURVE SMOOTH",
"182 236 OFFCURVE",
"143 285 OFFCURVE",
"143 355 CURVE SMOOTH",
"143 424 OFFCURVE",
"181 473 OFFCURVE",
"252 473 CURVE SMOOTH"
);
}
);
width = 520;
},
{
anchors = (
{
name = bottom;
position = "{246, 0}";
},
{
name = top;
position = "{246, 517}";
}
);
associatedMasterId = "F257A41E-77B2-4FB8-8247-C188CBBE1401";
layerId = "C8FFB09A-5D32-4327-BA4D-688EC8FD7749";
name = "Light Mar 18 14, 13:45";
paths = (
{
closed = 1;
nodes = (
"132 194 OFFCURVE",
"106 168 OFFCURVE",
"106 128 CURVE SMOOTH",
"106 82 OFFCURVE",
"143 54 OFFCURVE",
"217 54 CURVE SMOOTH",
"308 54 LINE SMOOTH",
"397 54 OFFCURVE",
"450 10 OFFCURVE",
"450 -59 CURVE SMOOTH",
"450 -145 OFFCURVE",
"385 -190 OFFCURVE",
"252 -190 CURVE SMOOTH",
"117 -190 OFFCURVE",
"57 -157 OFFCURVE",
"57 -60 CURVE",
"55 -60 LINE",
"55 -158 OFFCURVE",
"115 -192 OFFCURVE",
"252 -192 CURVE SMOOTH",
"387 -192 OFFCURVE",
"452 -146 OFFCURVE",
"452 -59 CURVE SMOOTH",
"452 10 OFFCURVE",
"400 56 OFFCURVE",
"308 56 CURVE SMOOTH",
"217 56 LINE SMOOTH",
"144 56 OFFCURVE",
"108 83 OFFCURVE",
"108 128 CURVE SMOOTH",
"108 166 OFFCURVE",
"134 194 OFFCURVE",
"167 214 CURVE",
"164 214 LINE"
);
},
{
closed = 1;
nodes = (
"145 527 OFFCURVE",
"75 460 OFFCURVE",
"75 357 CURVE SMOOTH",
"75 286 OFFCURVE",
"114 239 OFFCURVE",
"164 213 CURVE",
"188 201 OFFCURVE",
"217 194 OFFCURVE",
"249 194 CURVE SMOOTH",
"351 194 OFFCURVE",
"419 252 OFFCURVE",
"419 356 CURVE SMOOTH",
"419 447 OFFCURVE",
"368 517 OFFCURVE",
"264 526 CURVE",
"241 527 LINE"
);
},
{
closed = 1;
nodes = (
"424 534 OFFCURVE",
"397 527 OFFCURVE",
"241 527 CURVE",
"272 525 LINE",
"272 526 LINE",
"373 525 OFFCURVE",
"426 531 OFFCURVE",
"462 542 CURVE",
"462 544 LINE"
);
},
{
closed = 1;
nodes = (
"361 525 OFFCURVE",
"417 450 OFFCURVE",
"417 356 CURVE SMOOTH",
"417 253 OFFCURVE",
"349 196 OFFCURVE",
"249 196 CURVE SMOOTH",
"151 196 OFFCURVE",
"77 264 OFFCURVE",
"77 357 CURVE SMOOTH",
"77 455 OFFCURVE",
"143 525 OFFCURVE",
"241 525 CURVE"
);
}
);
width = 487;
},
{
anchors = (
{
name = top;
position = "{248, 520}";
}
);
associatedMasterId = "BCC09A48-EAE1-493E-95CB-92D2C26BC05D";
layerId = "BD31A8E7-F2D8-4FE7-8862-33B3DA3BD28F";
name = "Regular Mar 18 14, 13:45";
paths = (
{
closed = 1;
nodes = (
"122 197 OFFCURVE",
"92 166 OFFCURVE",
"92 125 CURVE SMOOTH",
"92 77 OFFCURVE",
"135 39 OFFCURVE",
"216 39 CURVE SMOOTH",
"302 39 LINE SMOOTH",
"383 39 OFFCURVE",
"430 3 OFFCURVE",
"430 -58 CURVE SMOOTH",
"430 -127 OFFCURVE",
"379 -171 OFFCURVE",
"251 -171 CURVE SMOOTH",
"118 -171 OFFCURVE",
"72 -141 OFFCURVE",
"70 -57 CURVE",
"40 -57 LINE",
"40 -159 OFFCURVE",
"104 -199 OFFCURVE",
"251 -199 CURVE SMOOTH",
"395 -199 OFFCURVE",
"461 -144 OFFCURVE",
"461 -56 CURVE SMOOTH",
"461 17 OFFCURVE",
"404 67 OFFCURVE",
"304 67 CURVE SMOOTH",
"218 67 LINE SMOOTH",
"148 67 OFFCURVE",
"123 94 OFFCURVE",
"123 130 CURVE SMOOTH",
"123 163 OFFCURVE",
"148 189 OFFCURVE",
"187 206 CURVE",
"165 219 LINE"
);
},
{
closed = 1;
nodes = (
"131 530 OFFCURVE",
"62 461 OFFCURVE",
"62 359 CURVE SMOOTH",
"62 285 OFFCURVE",
"93 237 OFFCURVE",
"156 207 CURVE",
"178 196 OFFCURVE",
"209 189 OFFCURVE",
"243 189 CURVE SMOOTH",
"355 189 OFFCURVE",
"423 255 OFFCURVE",
"423 356 CURVE SMOOTH",
"423 444 OFFCURVE",
"380 489 OFFCURVE",
"324 512 CURVE",
"244 530 LINE"
);
},
{
closed = 1;
nodes = (
"421 538 OFFCURVE",
"392 529 OFFCURVE",
"244 530 CURVE",
"337 503 LINE",
"337 507 LINE",
"403 507 OFFCURVE",
"445 512 OFFCURVE",
"474 520 CURVE",
"464 553 LINE"
);
},
{
closed = 1;
nodes = (
"345 503 OFFCURVE",
"392 442 OFFCURVE",
"392 356 CURVE SMOOTH",
"392 267 OFFCURVE",
"338 216 OFFCURVE",
"243 216 CURVE SMOOTH",
"157 216 OFFCURVE",
"93 264 OFFCURVE",
"93 359 CURVE SMOOTH",
"93 443 OFFCURVE",
"141 503 OFFCURVE",
"245 503 CURVE SMOOTH"
);
}
);
width = 489;
},
{
anchors = (
{
name = top;
position = "{257, 527}";
}
);
associatedMasterId = "A11F629A-ECF3-413E-B2EC-6C6F8C33A243";
layerId = "828DD08E-7B1A-4EEE-80A0-A07692626AE5";
name = "Regular Mar 18 14, 13:45";
paths = (
{
closed = 1;
nodes = (
"105 193 OFFCURVE",
"80 155 OFFCURVE",
"80 116 CURVE SMOOTH",
"80 63 OFFCURVE",
"122 16 OFFCURVE",
"216 16 CURVE SMOOTH",
"299 16 LINE SMOOTH",
"365 16 OFFCURVE",
"405 -9 OFFCURVE",
"405 -59 CURVE SMOOTH",
"405 -112 OFFCURVE",
"365 -141 OFFCURVE",
"251 -141 CURVE SMOOTH",
"135 -141 OFFCURVE",
"108 -113 OFFCURVE",
"108 -53 CURVE",
"25 -53 LINE",
"25 -160 OFFCURVE",
"79 -213 OFFCURVE",
"251 -213 CURVE SMOOTH",
"414 -213 OFFCURVE",
"498 -155 OFFCURVE",
"498 -53 CURVE SMOOTH",
"498 31 OFFCURVE",
"426 93 OFFCURVE",
"318 93 CURVE SMOOTH",
"234 93 LINE SMOOTH",
"180 93 OFFCURVE",
"165 112 OFFCURVE",
"165 136 CURVE SMOOTH",
"165 160 OFFCURVE",
"181 183 OFFCURVE",
"203 191 CURVE",
"154 218 LINE"
);
},
{
closed = 1;
nodes = (
"136 539 OFFCURVE",
"49 463 OFFCURVE",
"49 355 CURVE SMOOTH",
"49 282 OFFCURVE",
"81 234 OFFCURVE",
"152 202 CURVE",
"187 183 OFFCURVE",
"220 175 OFFCURVE",
"258 175 CURVE SMOOTH",
"384 175 OFFCURVE",
"459 250 OFFCURVE",
"459 354 CURVE SMOOTH",
"459 419 OFFCURVE",
"420 468 OFFCURVE",
"356 489 CURVE",
"252 539 LINE"
);
},
{
closed = 1;
nodes = (
"431 558 OFFCURVE",
"383 536 OFFCURVE",
"252 539 CURVE",
"372 467 LINE",
"372 487 LINE",
"426 487 OFFCURVE",
"476 489 OFFCURVE",
"520 503 CURVE",
"493 586 LINE"
);
},
{
closed = 1;
nodes = (
"327 473 OFFCURVE",
"365 433 OFFCURVE",
"365 356 CURVE SMOOTH",
"365 280 OFFCURVE",
"326 236 OFFCURVE",
"254 236 CURVE SMOOTH",
"182 236 OFFCURVE",
"143 285 OFFCURVE",
"143 355 CURVE SMOOTH",
"143 424 OFFCURVE",
"181 473 OFFCURVE",
"252 473 CURVE SMOOTH"
);
}
);
width = 520;
},
{
anchors = (
{
name = top;
position = "{286, 534}";
}
);
associatedMasterId = UUID0;
layerId = "CA433F45-E3AF-4A80-B8DD-ED7374114ECF";
name = "Bold Mar 18 14, 13:45";
paths = (
{
closed = 1;
nodes = (
"86 181 OFFCURVE",
"52 136 OFFCURVE",
"52 90 CURVE SMOOTH",
"52 31 OFFCURVE",
"102 -17 OFFCURVE",
"232 -17 CURVE SMOOTH",
"306 -17 LINE SMOOTH",
"350 -17 OFFCURVE",
"363 -37 OFFCURVE",
"363 -56 CURVE SMOOTH",
"363 -78 OFFCURVE",
"352 -102 OFFCURVE",
"272 -102 CURVE SMOOTH",
"188 -102 OFFCURVE",
"172 -88 OFFCURVE",
"172 -49 CURVE",
"-5 -49 LINE",
"-5 -153 OFFCURVE",
"47 -227 OFFCURVE",
"266 -227 CURVE SMOOTH",
"459 -227 OFFCURVE",
"562 -155 OFFCURVE",
"562 -42 CURVE SMOOTH",
"562 46 OFFCURVE",
"479 117 OFFCURVE",
"343 117 CURVE SMOOTH",
"272 117 LINE SMOOTH",
"219 117 OFFCURVE",
"216 132 OFFCURVE",
"216 145 CURVE SMOOTH",
"216 152 OFFCURVE",
"223 160 OFFCURVE",
"236 162 CURVE",
"130 203 LINE"
);
},
{
closed = 1;
nodes = (
"119 554 OFFCURVE",
"20 481 OFFCURVE",
"20 353 CURVE SMOOTH",
"20 272 OFFCURVE",
"57 220 OFFCURVE",
"163 177 CURVE",
"211 162 OFFCURVE",
"236 158 OFFCURVE",
"285 158 CURVE SMOOTH",
"431 158 OFFCURVE",
"522 233 OFFCURVE",
"522 334 CURVE SMOOTH",
"522 412 OFFCURVE",
"479 453 OFFCURVE",
"408 476 CURVE",
"271 554 LINE"
);
},
{
closed = 1;
nodes = (
"465 591 OFFCURVE",
"372 550 OFFCURVE",
"271 554 CURVE",
"425 454 LINE",
"425 474 LINE",
"488 474 OFFCURVE",
"544 480 OFFCURVE",
"580 497 CURVE",
"533 636 LINE"
);
},
{
closed = 1;
nodes = (
"316 423 OFFCURVE",
"334 404 OFFCURVE",
"334 359 CURVE SMOOTH",
"334 309 OFFCURVE",
"315 287 OFFCURVE",
"277 287 CURVE SMOOTH",
"244 287 OFFCURVE",
"219 308 OFFCURVE",
"219 357 CURVE SMOOTH",
"219 401 OFFCURVE",
"243 423 OFFCURVE",
"277 423 CURVE SMOOTH"
);
}
);
width = 570;
}
);
leftKerningGroup = g;
rightKerningGroup = g;
unicode = 0067;
},
{
color = 4;
glyphname = h;
lastChange = "2014-05-15 11:45:00 +0100";
layers = (
{
anchors = (
{
name = center;
position = "{286, 267}";
},
{
name = top;
position = "{286, 744}";
}
);
layerId = UUID0;
name = Bold;
paths = (
{
closed = 1;
nodes = (
"321 554 OFFCURVE",
"270 526 OFFCURVE",
"216 459 CURVE",
"240 357 LINE",
"263 393 OFFCURVE",
"286 410 OFFCURVE",
"307 410 CURVE SMOOTH",
"325 410 OFFCURVE",
"337 400 OFFCURVE",
"337 358 CURVE",
"337 0 LINE",
"535 0 LINE",
"535 394 LINE SMOOTH",
"535 496 OFFCURVE",
"480 554 OFFCURVE",
"391 554 CURVE SMOOTH"
);
},
{
closed = 1;
nodes = (
"42 744 LINE",
"42 0 LINE",
"240 0 LINE",
"240 764 LINE"
);
}
);
width = 572;
},
{
anchors = (
{
name = bottom;
position = "{285, 0}";
},
{
name = center;
position = "{281, 259}";
},
{
name = top;
position = "{285, 727}";
}
);
layerId = "F257A41E-77B2-4FB8-8247-C188CBBE1401";
leftMetricsKey = n;
rightMetricsKey = n;
name = Light;
paths = (
{
closed = 1;
nodes = (
"238 527 OFFCURVE",
"174 475 OFFCURVE",
"126 389 CURVE",
"127 387 LINE",
"175 473 OFFCURVE",
"239 525 OFFCURVE",
"326 525 CURVE SMOOTH",
"419 525 OFFCURVE",
"458 464 OFFCURVE",
"458 368 CURVE SMOOTH",
"458 0 LINE",
"460 0 LINE",
"460 368 LINE SMOOTH",
"460 465 OFFCURVE",
"420 527 OFFCURVE",
"326 527 CURVE SMOOTH"
);
},
{
closed = 1;
nodes = (
"125 730 LINE",
"125 0 LINE",
"127 0 LINE",
"127 730 LINE"
);
}
);
width = 580;
},
{
anchors = (
{
name = center;
position = "{296, 260}";
},
{
name = top;
position = "{296, 734}";
}
);
layerId = "BCC09A48-EAE1-493E-95CB-92D2C26BC05D";
leftMetricsKey = n;
rightMetricsKey = n;
name = Regular;
paths = (
{
closed = 1;
nodes = (
"246 530 OFFCURVE",
"184 480 OFFCURVE",
"136 408 CURVE",
"145 383 LINE",
"194 453 OFFCURVE",
"249 503 OFFCURVE",
"331 503 CURVE SMOOTH",
"405 503 OFFCURVE",
"442 457 OFFCURVE",
"442 366 CURVE SMOOTH",
"442 0 LINE",
"472 0 LINE",
"472 370 LINE SMOOTH",
"472 470 OFFCURVE",
"425 530 OFFCURVE",
"332 530 CURVE SMOOTH"
);
},
{
closed = 1;
nodes = (
"115 734 LINE",
"115 0 LINE",
"145 0 LINE",
"145 739 LINE"
);
}
);
width = 582;
},
{
anchors = (
{
name = center;
position = "{292, 264}";
},
{
name = top;
position = "{292, 739}";
}
);
layerId = "A11F629A-ECF3-413E-B2EC-6C6F8C33A243";
name = Regular;
paths = (
{
closed = 1;
nodes = (
"267 539 OFFCURVE",
"209 495 OFFCURVE",
"171 430 CURVE",
"187 375 LINE",
"222 430 OFFCURVE",
"263 467 OFFCURVE",
"320 467 CURVE SMOOTH",
"370 467 OFFCURVE",
"404 444 OFFCURVE",
"404 365 CURVE SMOOTH",
"404 0 LINE",
"496 0 LINE",
"496 378 LINE SMOOTH",
"496 477 OFFCURVE",
"439 539 OFFCURVE",
"343 539 CURVE SMOOTH"
);
},
{
closed = 1;
nodes = (
"95 738 LINE",
"95 0 LINE",
"187 0 LINE",
"187 748 LINE"
);
}
);
width = 586;
}
);
leftKerningGroup = h;
leftMetricsKey = n;
rightKerningGroup = n;
rightMetricsKey = n;
unicode = 0068;
},
{
color = 7;
glyphname = hbar;
lastChange = "2014-03-17 16:12:10 +0100";
layers = (
{
components = (
{
disableAlignment = 1;
name = h;
transform = "{1, 0, 0, 1, 0, 0}";
}
);
layerId = UUID0;
rightMetricsKey = n;
name = Bold;
paths = (
{
closed = 1;
nodes = (
"-10 696 LINE",
"-10 590 LINE",
"42 590 LINE",
"355 590 LINE",
"370 696 LINE"
);
}
);
width = 572;
},
{
components = (
{
disableAlignment = 1;
name = h;
transform = "{1, 0, 0, 1, 5, 0}";
}
);
layerId = "F257A41E-77B2-4FB8-8247-C188CBBE1401";
rightMetricsKey = n;
name = Light;
paths = (
{
closed = 1;
nodes = (
"55 640 LINE",
"55 638 LINE",
"130 638 LINE",
"323 638 LINE",
"323 640 LINE"
);
}
);
width = 585;
},
{
components = (
{
disableAlignment = 1;
name = h;
transform = "{1, 0, 0, 1, 5, 0}";
}
);
layerId = "BCC09A48-EAE1-493E-95CB-92D2C26BC05D";
rightMetricsKey = n;
name = Regular;
paths = (
{
closed = 1;
nodes = (
"45 652 LINE",
"45 625 LINE",
"120 625 LINE",
"326 625 LINE",
"332 652 LINE"
);
}
);
width = 587;
},
{
components = (
{
disableAlignment = 1;
name = h;
transform = "{1, 0, 0, 1, 6, 0}";
}
);
layerId = "A11F629A-ECF3-413E-B2EC-6C6F8C33A243";
rightMetricsKey = h;
name = Regular;
paths = (
{
closed = 1;
nodes = (
"25 676 LINE",
"25 606 LINE",
"104 606 LINE",
"339 606 LINE",
"349 676 LINE"
);
}
);
width = 592;
}
);
leftKerningGroup = h;
rightKerningGroup = n;
rightMetricsKey = h;
unicode = 0127;
},
{
color = 7;
glyphname = i;
lastChange = "2014-05-21 09:05:35 +0100";
layers = (
{
background = {
paths = (
{
closed = 1;
nodes = (
"206 617 OFFCURVE",
"253 663 OFFCURVE",
"253 723 CURVE SMOOTH",
"253 783 OFFCURVE",
"207 829 OFFCURVE",
"141 829 CURVE SMOOTH",
"76 829 OFFCURVE",
"29 783 OFFCURVE",
"29 723 CURVE SMOOTH",
"29 663 OFFCURVE",
"76 617 OFFCURVE",
"141 617 CURVE SMOOTH"
);
},
{
closed = 1;
nodes = (
"240 0 LINE",
"240 534 LINE",
"42 534 LINE",
"42 0 LINE"
);
}
);
};
components = (
{
name = dotlessi;
transform = "{1, 0, 0, 1, 0, 0}";
},
{
name = dotaccent;
transform = "{1, 0, 0, 1, 0, 0}";
}
);
layerId = UUID0;
name = Bold;
width = 282;
},
{
background = {
paths = (
{
closed = 1;
nodes = (
"96 517 LINE",
"96 0 LINE",
"98 0 LINE",
"98 517 LINE"
);
},
{
closed = 1;
nodes = (
"96 734 OFFCURVE",
"95 733 OFFCURVE",
"95 732 CURVE",
"95 731 OFFCURVE",
"96 730 OFFCURVE",
"97 730 CURVE SMOOTH",
"98 730 OFFCURVE",
"99 731 OFFCURVE",
"99 732 CURVE SMOOTH",
"99 733 OFFCURVE",
"98 734 OFFCURVE",
"97 734 CURVE SMOOTH"
);
}
);
};
components = (
{
name = dotlessi;
transform = "{1, 0, 0, 1, 0, 0}";
},
{
name = dotaccent;
transform = "{1, 0, 0, 1, 90, 0}";
}
);
layerId = "F257A41E-77B2-4FB8-8247-C188CBBE1401";
name = Light;
width = 252;
},
{
components = (
{
name = dotlessi;
transform = "{1, 0, 0, 1, 0, 0}";
},
{
name = dotaccent;
transform = "{1, 0, 0, 1, 74, 0}";
}
);
layerId = "BCC09A48-EAE1-493E-95CB-92D2C26BC05D";
name = Regular;
width = 260;
},
{
components = (
{
name = dotlessi;
transform = "{1, 0, 0, 1, 0, 0}";
},
{
name = dotaccent;
transform = "{1, 0, 0, 1, 46, 0}";
}
);
layerId = "A11F629A-ECF3-413E-B2EC-6C6F8C33A243";
name = Regular;
width = 282;
}
);
leftKerningGroup = i;
rightKerningGroup = dotlessi;
unicode = 0069;
},
{
color = 4;
glyphname = dotlessi;
lastChange = "2014-03-24 14:20:17 +0100";
layers = (
{
anchors = (
{
name = ogonek;
position = "{210, 0}";
},
{
name = top;
position = "{141, 534}";
}
);
layerId = UUID0;
name = Bold;
paths = (
{
closed = 1;
nodes = (
"42 534 LINE",
"42 0 LINE",
"240 0 LINE",
"240 534 LINE"
);
}
);
width = 282;
},
{
anchors = (
{
name = ogonek;
position = "{137, 0}";
},
{
name = top;
position = "{126, 517}";
}
);
layerId = "F257A41E-77B2-4FB8-8247-C188CBBE1401";
leftMetricsKey = n;
rightMetricsKey = "=|n";
name = Light;
paths = (
{
closed = 1;
nodes = (
"125 517 LINE",
"125 0 LINE",
"127 0 LINE",
"127 517 LINE"
);
}
);
width = 252;
},
{
anchors = (
{
name = ogonek;
position = "{155, 0}";
},
{
name = top;
position = "{130, 520}";
}
);
layerId = "BCC09A48-EAE1-493E-95CB-92D2C26BC05D";
leftMetricsKey = n;
rightMetricsKey = "=|n";
name = Regular;
paths = (
{
closed = 1;
nodes = (
"115 520 LINE",
"115 0 LINE",
"145 0 LINE",
"145 520 LINE"
);
}
);
width = 260;
},
{
anchors = (
{
name = ogonek;
position = "{197, 0}";
},
{
name = top;
position = "{141, 527}";
}
);
layerId = "A11F629A-ECF3-413E-B2EC-6C6F8C33A243";
leftMetricsKey = n;
rightMetricsKey = "=|n";
name = Regular;
paths = (
{
closed = 1;
nodes = (
"95 527 LINE",
"95 0 LINE",
"187 0 LINE",
"187 527 LINE"
);
}
);
width = 282;
}
);
leftKerningGroup = i;
leftMetricsKey = n;
rightKerningGroup = i;
rightMetricsKey = "=|n";
unicode = 0131;
},
{
color = 7;
glyphname = j;
lastChange = "2014-05-21 09:05:28 +0100";
layers = (
{
background = {
paths = (
{
closed = 1;
nodes = (
"206 617 OFFCURVE",
"253 663 OFFCURVE",
"253 723 CURVE SMOOTH",
"253 783 OFFCURVE",
"206 829 OFFCURVE",
"141 829 CURVE SMOOTH",
"76 829 OFFCURVE",
"29 783 OFFCURVE",
"29 723 CURVE SMOOTH",
"29 663 OFFCURVE",
"76 617 OFFCURVE",
"141 617 CURVE SMOOTH"
);
},
{
closed = 1;
nodes = (
"-2 -227 LINE",
"139 -173 OFFCURVE",
"240 -110 OFFCURVE",
"240 77 CURVE SMOOTH",
"240 534 LINE",
"42 534 LINE",
"42 65 LINE SMOOTH",
"42 -22 OFFCURVE",
"-2 -54 OFFCURVE",
"-70 -83 CURVE"
);
}
);
};
components = (
{
name = dotlessj;
transform = "{1, 0, 0, 1, 0, 0}";
},
{
name = dotaccent;
transform = "{1, 0, 0, 1, 0, 0}";
}
);
layerId = UUID0;
name = Bold;
width = 282;
},
{
background = {
paths = (
{
closed = 1;
nodes = (
"111 517 LINE",
"111 10 LINE SMOOTH",
"111 -115 OFFCURVE",
"72 -149 OFFCURVE",
"-8 -189 CURVE",
"-8 -191 LINE",
"74 -150 OFFCURVE",
"113 -116 OFFCURVE",
"113 10 CURVE SMOOTH",
"113 517 LINE"
);
},
{
closed = 1;
nodes = (
"110 731 OFFCURVE",
"111 730 OFFCURVE",
"112 730 CURVE SMOOTH",
"113 730 OFFCURVE",
"114 731 OFFCURVE",
"114 732 CURVE SMOOTH",
"114 733 OFFCURVE",
"113 734 OFFCURVE",
"112 734 CURVE SMOOTH",
"111 734 OFFCURVE",
"110 733 OFFCURVE",
"110 732 CURVE"
);
}
);
};
components = (
{
name = dotlessj;
transform = "{1, 0, 0, 1, 0, 0}";
},
{
name = dotaccent;
transform = "{1, 0, 0, 1, 90, 0}";
}
);
layerId = "F257A41E-77B2-4FB8-8247-C188CBBE1401";
name = Light;
width = 252;
},
{
components = (
{
name = dotlessj;
transform = "{1, 0, 0, 1, 0, 0}";
},
{
name = dotaccent;
transform = "{1, 0, 0, 1, 74, 0}";
}
);
layerId = "BCC09A48-EAE1-493E-95CB-92D2C26BC05D";
name = Regular;
width = 261;
},
{
components = (
{
name = dotlessj;
transform = "{1, 0, 0, 1, 0, 0}";
},
{
name = dotaccent;
transform = "{1, 0, 0, 1, 45, 0}";
}
);
layerId = "A11F629A-ECF3-413E-B2EC-6C6F8C33A243";
name = Regular;
width = 280;
}
);
leftKerningGroup = j;
rightKerningGroup = dotlessj;
unicode = 006A;
},
{
color = 4;
glyphname = dotlessj;
lastChange = "2014-03-03 17:56:36 +0100";
layers = (
{
anchors = (
{
name = top;
position = "{141, 534}";
}
);
layerId = UUID0;
name = Bold;
paths = (
{
closed = 1;
nodes = (
"42 534 LINE",
"42 65 LINE SMOOTH",
"42 -22 OFFCURVE",
"-3 -52 OFFCURVE",
"-70 -83 CURVE",
"-2 -227 LINE",
"130 -184 OFFCURVE",
"240 -111 OFFCURVE",
"240 77 CURVE SMOOTH",
"240 534 LINE"
);
}
);
width = 282;
},
{
anchors = (
{
name = top;
position = "{126, 517}";
}
);
layerId = "F257A41E-77B2-4FB8-8247-C188CBBE1401";
rightMetricsKey = "=|n";
name = Light;
paths = (
{
closed = 1;
nodes = (
"125 517 LINE",
"125 1 LINE SMOOTH",
"125 -117 OFFCURVE",
"96 -153 OFFCURVE",
"28 -189 CURVE",
"29 -191 LINE",
"98 -154 OFFCURVE",
"127 -118 OFFCURVE",
"127 1 CURVE SMOOTH",
"127 517 LINE"
);
}
);
width = 252;
},
{
anchors = (
{
name = top;
position = "{130, 520}";
}
);
layerId = "BCC09A48-EAE1-493E-95CB-92D2C26BC05D";
rightMetricsKey = "=|n";
name = Regular;
paths = (
{
closed = 1;
nodes = (
"116 520 LINE",
"116 9 LINE SMOOTH",
"116 -108 OFFCURVE",
"88 -138 OFFCURVE",
"19 -174 CURVE",
"28 -196 LINE",
"108 -156 OFFCURVE",
"146 -124 OFFCURVE",
"146 8 CURVE SMOOTH",
"146 520 LINE"
);
}
);
width = 261;
},
{
anchors = (
{
name = top;
position = "{140, 527}";
}
);
layerId = "A11F629A-ECF3-413E-B2EC-6C6F8C33A243";
rightMetricsKey = "=|n";
name = Regular;
paths = (
{
closed = 1;
nodes = (
"93 527 LINE",
"93 26 LINE SMOOTH",
"93 -87 OFFCURVE",
"60 -113 OFFCURVE",
"-9 -145 CURVE",
"18 -212 LINE",
"130 -162 OFFCURVE",
"185 -117 OFFCURVE",
"185 32 CURVE SMOOTH",
"185 527 LINE"
);
}
);
width = 280;
}
);
leftKerningGroup = j;
rightKerningGroup = j;
rightMetricsKey = "=|n";
unicode = 0237;
},
{
color = 4;
glyphname = k;
lastChange = "2014-03-24 14:20:17 +0100";
layers = (
{
anchors = (
{
name = bottom;
position = "{288, 0}";
}
);
layerId = UUID0;
name = Bold;
paths = (
{
closed = 1;
nodes = (
"387 534 LINE",
"244 292 LINE",
"372 0 LINE",
"591 0 LINE",
"442 300 LINE",
"583 534 LINE"
);
},
{
closed = 1;
nodes = (
"42 744 LINE",
"42 0 LINE",
"240 0 LINE",
"240 764 LINE"
);
}
);
width = 576;
},
{
anchors = (
{
name = bottom;
position = "{269, 0}";
}
);
layerId = "F257A41E-77B2-4FB8-8247-C188CBBE1401";
leftMetricsKey = n;
name = Light;
paths = (
{
closed = 1;
nodes = (
"393 517 LINE",
"133 283 LINE",
"420 0 LINE",
"423 0 LINE",
"136 283 LINE",
"396 517 LINE"
);
},
{
closed = 1;
nodes = (
"125 730 LINE",
"125 0 LINE",
"127 0 LINE",
"127 730 LINE"
);
}
);
width = 448;
},
{
anchors = (
{
name = bottom;
position = "{268, 0}";
}
);
layerId = "BCC09A48-EAE1-493E-95CB-92D2C26BC05D";
leftMetricsKey = n;
name = Regular;
paths = (
{
closed = 1;
nodes = (
"392 520 LINE",
"151 284 LINE",
"417 0 LINE",
"454 0 LINE",
"189 285 LINE",
"430 520 LINE"
);
},
{
closed = 1;
nodes = (
"115 734 LINE",
"115 0 LINE",
"145 0 LINE",
"145 738 LINE"
);
}
);
width = 469;
},
{
anchors = (
{
name = bottom;
position = "{255, 0}";
}
);
layerId = "A11F629A-ECF3-413E-B2EC-6C6F8C33A243";
leftMetricsKey = n;
name = Regular;
paths = (
{
closed = 1;
nodes = (
"387 527 LINE",
"193 288 LINE",
"402 0 LINE",
"512 0 LINE",
"296 294 LINE",
"490 527 LINE"
);
},
{
closed = 1;
nodes = (
"95 739 LINE",
"95 0 LINE",
"187 0 LINE",
"187 750 LINE"
);
}
);
width = 512;
}
);
leftKerningGroup = h;
leftMetricsKey = n;
rightKerningGroup = k;
unicode = 006B;
},
{
color = 4;
glyphname = kgreenlandic;
lastChange = "2014-03-24 14:20:17 +0100";
layers = (
{
layerId = UUID0;
rightMetricsKey = k;
name = Bold;
paths = (
{
closed = 1;
nodes = (
"387 534 LINE",
"244 282 LINE",
"372 0 LINE",
"591 0 LINE",
"442 290 LINE",
"583 534 LINE"
);
},
{
closed = 1;
nodes = (
"42 534 LINE",
"42 0 LINE",
"240 0 LINE",
"240 534 LINE"
);
}
);
width = 576;
},
{
background = {
paths = (
{
closed = 1;
nodes = (
"393 517 LINE",
"137 283 LINE",
"429 0 LINE",
"432 0 LINE",
"140 283 LINE",
"396 517 LINE"
);
},
{
closed = 1;
nodes = (
"129 730 LINE",
"129 0 LINE",
"131 0 LINE",
"131 730 LINE"
);
}
);
};
layerId = "F257A41E-77B2-4FB8-8247-C188CBBE1401";
leftMetricsKey = n;
rightMetricsKey = k;
name = Light;
paths = (
{
closed = 1;
nodes = (
"391 517 LINE",
"131 273 LINE",
"418 0 LINE",
"421 0 LINE",
"134 273 LINE",
"394 517 LINE"
);
},
{
closed = 1;
nodes = (
"125 517 LINE",
"125 0 LINE",
"127 0 LINE",
"127 517 LINE"
);
}
);
width = 446;
},
{
background = {
paths = (
{
closed = 1;
nodes = (
"384 520 LINE",
"155 277 LINE",
"417 0 LINE",
"458 0 LINE",
"192 276 LINE",
"428 520 LINE"
);
},
{
closed = 1;
nodes = (
"119 520 LINE",
"119 0 LINE",
"149 0 LINE",
"149 520 LINE"
);
}
);
};
layerId = "BCC09A48-EAE1-493E-95CB-92D2C26BC05D";
leftMetricsKey = n;
rightMetricsKey = k;
name = Regular;
paths = (
{
closed = 1;
nodes = (
"392 520 LINE",
"151 274 LINE",
"417 0 LINE",
"454 0 LINE",
"189 275 LINE",
"430 520 LINE"
);
},
{
closed = 1;
nodes = (
"115 520 LINE",
"115 0 LINE",
"145 0 LINE",
"145 520 LINE"
);
}
);
width = 469;
},
{
layerId = "A11F629A-ECF3-413E-B2EC-6C6F8C33A243";
rightMetricsKey = k;
name = Regular;
paths = (
{
closed = 1;
nodes = (
"384 527 LINE",
"190 278 LINE",
"399 0 LINE",
"509 0 LINE",
"293 284 LINE",
"487 527 LINE"
);
},
{
closed = 1;
nodes = (
"95 527 LINE",
"95 0 LINE",
"187 0 LINE",
"187 527 LINE"
);
}
);
width = 509;
}
);
leftKerningGroup = h;
leftMetricsKey = n;
rightKerningGroup = k;
rightMetricsKey = k;
unicode = 0138;
},
{
color = 4;
glyphname = l;
lastChange = "2014-03-24 14:20:17 +0100";
layers = (
{
anchors = (
{
name = bottom;
position = "{186, 0}";
},
{
name = center;
position = "{392, 373}";
},
{
name = top;
position = "{136, 744}";
},
{
name = topright;
position = "{255, 744}";
}
);
layerId = UUID0;
leftMetricsKey = "=n-5";
name = Bold;
paths = (
{
closed = 1;
nodes = (
"37 744 LINE",
"37 151 LINE SMOOTH",
"37 40 OFFCURVE",
"97 -20 OFFCURVE",
"199 -20 CURVE SMOOTH",
"242 -20 OFFCURVE",
"287 -12 OFFCURVE",
"315 -2 CURVE",
"280 139 LINE",
"274 137 OFFCURVE",
"264 135 OFFCURVE",
"258 135 CURVE SMOOTH",
"245 135 OFFCURVE",
"235 144 OFFCURVE",
"235 175 CURVE SMOOTH",
"235 764 LINE"
);
}
);
width = 300;
},
{
anchors = (
{
name = bottom;
position = "{174, 0}";
},
{
name = center;
position = "{256, 375}";
},
{
name = top;
position = "{121, 730}";
},
{
name = topright;
position = "{172, 727}";
}
);
layerId = "F257A41E-77B2-4FB8-8247-C188CBBE1401";
leftMetricsKey = "=n-5";
name = Light;
paths = (
{
closed = 1;
nodes = (
"120 730 LINE",
"120 64 LINE SMOOTH",
"120 19 OFFCURVE",
"139 -9 OFFCURVE",
"179 -9 CURVE SMOOTH",
"194 -9 OFFCURVE",
"208 -6 OFFCURVE",
"220 -1 CURVE",
"220 1 LINE",
"208 -4 OFFCURVE",
"194 -7 OFFCURVE",
"179 -7 CURVE SMOOTH",
"140 -7 OFFCURVE",
"122 21 OFFCURVE",
"122 64 CURVE SMOOTH",
"122 730 LINE"
);
}
);
width = 275;
},
{
anchors = (
{
name = bottom;
position = "{129, 0}";
},
{
name = center;
position = "{260, 375}";
},
{
name = topright;
position = "{170, 734}";
}
);
layerId = "BCC09A48-EAE1-493E-95CB-92D2C26BC05D";
leftMetricsKey = "=n-5";
name = Regular;
paths = (
{
closed = 1;
nodes = (
"110 734 LINE",
"110 78 LINE SMOOTH",
"110 16 OFFCURVE",
"140 -10 OFFCURVE",
"188 -10 CURVE SMOOTH",
"206 -10 OFFCURVE",
"224 -5 OFFCURVE",
"237 1 CURVE",
"228 26 LINE",
"216 21 OFFCURVE",
"203 18 OFFCURVE",
"191 18 CURVE SMOOTH",
"154 18 OFFCURVE",
"140 37 OFFCURVE",
"140 77 CURVE SMOOTH",
"140 738 LINE"
);
}
);
width = 277;
},
{
anchors = (
{
name = bottom;
position = "{147, 0}";
},
{
name = center;
position = "{297, 380}";
},
{
name = top;
position = "{136, 739}";
},
{
name = topright;
position = "{207, 739}";
}
);
layerId = "A11F629A-ECF3-413E-B2EC-6C6F8C33A243";
leftMetricsKey = "=n-5";
name = Regular;
paths = (
{
closed = 1;
nodes = (
"90 739 LINE",
"90 104 LINE SMOOTH",
"90 28 OFFCURVE",
"128 -12 OFFCURVE",
"195 -12 CURVE SMOOTH",
"222 -12 OFFCURVE",
"248 -6 OFFCURVE",
"273 6 CURVE",
"249 70 LINE",
"239 66 OFFCURVE",
"228 64 OFFCURVE",
"215 64 CURVE SMOOTH",
"191 64 OFFCURVE",
"182 78 OFFCURVE",
"182 106 CURVE SMOOTH",
"182 750 LINE"
);
}
);
width = 293;
}
);
leftKerningGroup = h;
leftMetricsKey = "=n-5";
rightKerningGroup = l;
unicode = 006C;
},
{
color = 7;
glyphname = lacute;
lastChange = "2014-03-03 17:56:36 +0100";
layers = (
{
background = {
paths = (
{
closed = 1;
nodes = (
"41 794 LINE",
"296 906 LINE",
"213 1048 LINE",
"-18 893 LINE"
);
}
);
};
components = (
{
name = l;
transform = "{1, 0, 0, 1, 0, 0}";
},
{
name = acute.case;
transform = "{1, 0, 0, 1, -51, 48}";
}
);
layerId = UUID0;
name = Bold;
width = 300;
},
{
components = (
{
name = l;
transform = "{1, 0, 0, 1, 0, 0}";
},
{
name = acute.case;
transform = "{1, 0, 0, 1, 14, 50}";
}
);
layerId = "F257A41E-77B2-4FB8-8247-C188CBBE1401";
name = Light;
width = 275;
},
{
components = (
{
name = l;
transform = "{1, 0, 0, 1, 0, 0}";
},
{
name = acute.case;
transform = "{1, 0, 0, 1, 3, 50}";
}
);
layerId = "BCC09A48-EAE1-493E-95CB-92D2C26BC05D";
name = Regular;
width = 277;
},
{
components = (
{
name = l;
transform = "{1, 0, 0, 1, 0, 0}";
},
{
name = acute.case;
transform = "{1, 0, 0, 1, -12, 50}";
}
);
layerId = "A11F629A-ECF3-413E-B2EC-6C6F8C33A243";
name = Regular;
width = 293;
}
);
leftKerningGroup = h;
rightKerningGroup = l;
unicode = 013A;
},
{
color = 7;
glyphname = ldot;
lastChange = "2014-03-03 17:56:36 +0100";
layers = (
{
background = {
paths = (
{
closed = 1;
nodes = (
"457 268 OFFCURVE",
"503 314 OFFCURVE",
"503 374 CURVE SMOOTH",
"503 434 OFFCURVE",
"457 480 OFFCURVE",
"392 480 CURVE SMOOTH",
"327 480 OFFCURVE",
"281 434 OFFCURVE",
"281 374 CURVE SMOOTH",
"281 314 OFFCURVE",
"327 268 OFFCURVE",
"392 268 CURVE SMOOTH"
);
}
);
};
components = (
{
disableAlignment = 1;
name = l;
transform = "{1, 0, 0, 1, 0, 0}";
},
{
name = dotaccent;
transform = "{1, 0, 0, 1, 251, -350}";
}
);
layerId = UUID0;
name = Bold;
width = 513;
},
{
components = (
{
disableAlignment = 1;
name = l;
transform = "{1, 0, 0, 1, 0, 0}";
},
{
anchor = center;
name = dotaccent;
transform = "{1, 0, 0, 1, 220, -325}";
}
);
layerId = "F257A41E-77B2-4FB8-8247-C188CBBE1401";
name = Light;
width = 275;
},
{
components = (
{
disableAlignment = 1;
name = l;
transform = "{1, 0, 0, 1, 0, 0}";
},
{
anchor = center;
name = dotaccent;
transform = "{1, 0, 0, 1, 204, -331}";
}
);
layerId = "BCC09A48-EAE1-493E-95CB-92D2C26BC05D";
name = Regular;
width = 276;
},
{
components = (
{
disableAlignment = 1;
name = l;
transform = "{1, 0, 0, 1, 0, 0}";
},
{
anchor = center;
name = dotaccent;
transform = "{1, 0, 0, 1, 203, -340}";
}
);
layerId = "A11F629A-ECF3-413E-B2EC-6C6F8C33A243";
name = Regular;
width = 337;
}
);
leftKerningGroup = h;
rightKerningGroup = l;
unicode = 0140;
},
{
color = 7;
glyphname = lslash;
lastChange = "2014-03-20 17:16:08 +0100";
layers = (
{
background = {
paths = (
{
closed = 1;
nodes = (
"317 139 LINE",
"311 137 OFFCURVE",
"301 135 OFFCURVE",
"295 135 CURVE SMOOTH",
"282 135 OFFCURVE",
"272 144 OFFCURVE",
"272 175 CURVE SMOOTH",
"272 352 LINE",
"391 425 LINE",
"324 532 LINE",
"272 500 LINE",
"272 764 LINE",
"74 744 LINE",
"74 379 LINE",
"-25 319 LINE",
"42 212 LINE",
"74 231 LINE",
"74 151 LINE SMOOTH",
"74 40 OFFCURVE",
"134 -20 OFFCURVE",
"236 -20 CURVE SMOOTH",
"279 -20 OFFCURVE",
"324 -12 OFFCURVE",
"352 -2 CURVE"
);
}
);
};
components = (
{
disableAlignment = 1;
name = l;
transform = "{1, 0, 0, 1, 37, 0}";
}
);
layerId = UUID0;
name = Bold;
paths = (
{
closed = 1;
nodes = (
"-13 343 LINE",
"32 227 LINE",
"371 435 LINE",
"329 554 LINE"
);
}
);
width = 371;
},
{
components = (
{
disableAlignment = 1;
name = l;
transform = "{1, 0, 0, 1, 3, 0}";
}
);
layerId = "F257A41E-77B2-4FB8-8247-C188CBBE1401";
name = Light;
paths = (
{
closed = 1;
nodes = (
"52 329 LINE",
"53 327 LINE",
"235 442 LINE",
"234 444 LINE"
);
}
);
width = 275;
},
{
components = (
{
disableAlignment = 1;
name = l;
transform = "{1, 0, 0, 1, 6, 0}";
}
);
layerId = "BCC09A48-EAE1-493E-95CB-92D2C26BC05D";
name = Regular;
paths = (
{
closed = 1;
nodes = (
"39 333 LINE",
"53 311 LINE",
"263 440 LINE",
"249 463 LINE"
);
}
);
width = 283;
},
{
components = (
{
disableAlignment = 1;
name = l;
transform = "{1, 0, 0, 1, 7, 0}";
}
);
layerId = "A11F629A-ECF3-413E-B2EC-6C6F8C33A243";
name = Regular;
paths = (
{
closed = 1;
nodes = (
"14 341 LINE",
"45 275 LINE",
"290 425 LINE",
"259 491 LINE"
);
}
);
width = 302;
}
);
leftKerningGroup = lslash;
rightKerningGroup = lslash;
unicode = 0142;
},
{
color = 4;
glyphname = m;
lastChange = "2014-03-24 14:20:17 +0100";
layers = (
{
background = {
paths = (
{
closed = 1;
nodes = (
"608 554 OFFCURVE",
"556 533 OFFCURVE",
"504 478 CURVE",
"483 527 OFFCURVE",
"440 554 OFFCURVE",
"380 554 CURVE SMOOTH",
"325 554 OFFCURVE",
"278 532 OFFCURVE",
"229 478 CURVE",
"215 534 LINE",
"42 534 LINE",
"42 0 LINE",
"240 0 LINE",
"240 362 LINE",
"263 399 OFFCURVE",
"282 410 OFFCURVE",
"297 410 CURVE SMOOTH",
"313 410 OFFCURVE",
"322 399 OFFCURVE",
"322 359 CURVE SMOOTH",
"322 0 LINE",
"520 0 LINE",
"520 362 LINE",
"543 399 OFFCURVE",
"562 410 OFFCURVE",
"577 410 CURVE SMOOTH",
"592 410 OFFCURVE",
"602 400 OFFCURVE",
"602 367 CURVE SMOOTH",
"602 0 LINE",
"800 0 LINE",
"800 394 LINE SMOOTH",
"800 496 OFFCURVE",
"749 554 OFFCURVE",
"660 554 CURVE SMOOTH"
);
}
);
};
layerId = UUID0;
leftMetricsKey = n;
rightMetricsKey = n;
name = Bold;
paths = (
{
closed = 1;
nodes = (
"314 554 OFFCURVE",
"263 527 OFFCURVE",
"216 464 CURVE",
"240 357 LINE",
"256 393 OFFCURVE",
"276 410 OFFCURVE",
"295 410 CURVE SMOOTH",
"310 410 OFFCURVE",
"322 400 OFFCURVE",
"322 358 CURVE",
"322 0 LINE",
"520 0 LINE",
"520 394 LINE",
"514 447 LINE",
"498 516 OFFCURVE",
"449 554 OFFCURVE",
"384 554 CURVE SMOOTH"
);
},
{
closed = 1;
nodes = (
"42 534 LINE",
"42 0 LINE",
"240 0 LINE",
"240 435 LINE",
"215 534 LINE"
);
},
{
closed = 1;
nodes = (
"594 554 OFFCURVE",
"543 528 OFFCURVE",
"496 466 CURVE",
"520 357 LINE",
"536 393 OFFCURVE",
"556 410 OFFCURVE",
"575 410 CURVE SMOOTH",
"590 410 OFFCURVE",
"602 400 OFFCURVE",
"602 358 CURVE",
"602 0 LINE",
"800 0 LINE",
"800 394 LINE SMOOTH",
"800 496 OFFCURVE",
"744 554 OFFCURVE",
"664 554 CURVE SMOOTH"
);
}
);
width = 837;
},
{
background = {
paths = (
{
closed = 1;
nodes = (
"525 527 OFFCURVE",
"467 481 OFFCURVE",
"426 399 CURVE",
"425 477 OFFCURVE",
"385 527 OFFCURVE",
"307 527 CURVE SMOOTH",
"227 527 OFFCURVE",
"171 474 OFFCURVE",
"127 400 CURVE",
"127 517 LINE",
"125 517 LINE",
"125 0 LINE",
"127 0 LINE",
"127 397 LINE",
"171 472 OFFCURVE",
"228 525 OFFCURVE",
"307 525 CURVE SMOOTH",
"385 525 OFFCURVE",
"424 474 OFFCURVE",
"424 395 CURVE SMOOTH",
"424 0 LINE",
"426 0 LINE",
"426 395 LINE",
"466 478 OFFCURVE",
"525 525 OFFCURVE",
"604 525 CURVE SMOOTH",
"693 525 OFFCURVE",
"723 471 OFFCURVE",
"723 372 CURVE SMOOTH",
"723 0 LINE",
"725 0 LINE",
"725 372 LINE SMOOTH",
"725 472 OFFCURVE",
"694 527 OFFCURVE",
"604 527 CURVE SMOOTH"
);
}
);
};
layerId = "F257A41E-77B2-4FB8-8247-C188CBBE1401";
leftMetricsKey = n;
rightMetricsKey = n;
name = Light;
paths = (
{
closed = 1;
nodes = (
"223 527 OFFCURVE",
"168 475 OFFCURVE",
"126 389 CURVE",
"127 387 LINE",
"169 473 OFFCURVE",
"224 525 OFFCURVE",
"301 525 CURVE SMOOTH",
"385 525 OFFCURVE",
"424 464 OFFCURVE",
"424 378 CURVE SMOOTH",
"424 0 LINE",
"426 0 LINE",
"426 388 LINE",
"426 389 LINE",
"423 473 OFFCURVE",
"380 527 OFFCURVE",
"301 527 CURVE SMOOTH"
);
},
{
closed = 1;
nodes = (
"125 517 LINE",
"125 0 LINE",
"127 0 LINE",
"127 389 LINE",
"127 517 LINE"
);
},
{
closed = 1;
nodes = (
"522 527 OFFCURVE",
"467 475 OFFCURVE",
"425 389 CURVE",
"426 387 LINE",
"468 473 OFFCURVE",
"523 525 OFFCURVE",
"600 525 CURVE SMOOTH",
"684 525 OFFCURVE",
"723 464 OFFCURVE",
"723 368 CURVE SMOOTH",
"723 0 LINE",
"725 0 LINE",
"725 368 LINE SMOOTH",
"725 465 OFFCURVE",
"685 527 OFFCURVE",
"600 527 CURVE SMOOTH"
);
}
);
width = 845;
},
{
background = {
paths = (
{
closed = 1;
nodes = (
"537 530 OFFCURVE",
"488 492 OFFCURVE",
"438 426 CURVE",
"426 488 OFFCURVE",
"382 530 OFFCURVE",
"312 530 CURVE SMOOTH",
"240 530 OFFCURVE",
"195 489 OFFCURVE",
"143 428 CURVE",
"141 520 LINE SMOOTH",
"115 520 LINE SMOOTH",
"115 0 LINE",
"145 0 LINE",
"145 389 LINE",
"192 450 OFFCURVE",
"241 502 OFFCURVE",
"309 502 CURVE SMOOTH",
"375 502 OFFCURVE",
"412 458 OFFCURVE",
"412 376 CURVE SMOOTH",
"412 0 LINE",
"442 0 LINE",
"442 389 LINE",
"485 448 OFFCURVE",
"538 502 OFFCURVE",
"606 502 CURVE SMOOTH",
"674 502 OFFCURVE",
"709 463 OFFCURVE",
"709 373 CURVE SMOOTH",
"709 0 LINE",
"739 0 LINE",
"739 379 LINE SMOOTH",
"739 476 OFFCURVE",
"695 530 OFFCURVE",
"607 530 CURVE SMOOTH"
);
}
);
};
layerId = "BCC09A48-EAE1-493E-95CB-92D2C26BC05D";
leftMetricsKey = n;
rightMetricsKey = n;
name = Regular;
paths = (
{
closed = 1;
nodes = (
"241 530 OFFCURVE",
"178 480 OFFCURVE",
"136 409 CURVE",
"145 383 LINE",
"188 453 OFFCURVE",
"243 503 OFFCURVE",
"311 503 CURVE SMOOTH",
"377 503 OFFCURVE",
"412 457 OFFCURVE",
"412 366 CURVE SMOOTH",
"412 0 LINE",
"442 0 LINE",
"442 389 LINE",
"440 406 LINE",
"430 484 OFFCURVE",
"385 530 OFFCURVE",
"312 530 CURVE SMOOTH"
);
},
{
closed = 1;
nodes = (
"115 520 LINE",
"115 0 LINE",
"145 0 LINE",
"145 389 LINE",
"141 520 LINE"
);
},
{
closed = 1;
nodes = (
"538 530 OFFCURVE",
"475 480 OFFCURVE",
"433 409 CURVE",
"442 383 LINE",
"485 453 OFFCURVE",
"540 503 OFFCURVE",
"608 503 CURVE SMOOTH",
"673 503 OFFCURVE",
"709 457 OFFCURVE",
"709 366 CURVE SMOOTH",
"709 0 LINE",
"739 0 LINE",
"739 370 LINE SMOOTH",
"739 470 OFFCURVE",
"692 530 OFFCURVE",
"609 530 CURVE SMOOTH"
);
}
);
width = 849;
},
{
background = {
paths = (
{
closed = 1;
nodes = (
"568 539 OFFCURVE",
"509 506 OFFCURVE",
"467 455 CURVE",
"450 509 OFFCURVE",
"409 539 OFFCURVE",
"337 539 CURVE SMOOTH",
"279 539 OFFCURVE",
"223 509 OFFCURVE",
"181 455 CURVE",
"174 527 LINE",
"95 527 LINE",
"95 0 LINE",
"187 0 LINE",
"187 382 LINE",
"215 425 OFFCURVE",
"258 467 OFFCURVE",
"307 467 CURVE SMOOTH",
"358 467 OFFCURVE",
"385 439 OFFCURVE",
"385 368 CURVE SMOOTH",
"385 0 LINE",
"477 0 LINE",
"477 382 LINE",
"505 425 OFFCURVE",
"552 467 OFFCURVE",
"602 467 CURVE SMOOTH",
"656 467 OFFCURVE",
"675 439 OFFCURVE",
"675 371 CURVE SMOOTH",
"675 0 LINE",
"767 0 LINE",
"767 383 LINE SMOOTH",
"767 481 OFFCURVE",
"728 539 OFFCURVE",
"627 539 CURVE SMOOTH"
);
}
);
};
layerId = "A11F629A-ECF3-413E-B2EC-6C6F8C33A243";
leftMetricsKey = n;
rightMetricsKey = n;
name = Regular;
paths = (
{
closed = 1;
nodes = (
"258 539 OFFCURVE",
"207 495 OFFCURVE",
"171 432 CURVE",
"187 374 LINE",
"222 430 OFFCURVE",
"254 467 OFFCURVE",
"311 467 CURVE SMOOTH",
"351 467 OFFCURVE",
"385 444 OFFCURVE",
"385 365 CURVE SMOOTH",
"385 0 LINE",
"477 0 LINE",
"477 378 LINE",
"475 407 LINE",
"465 489 OFFCURVE",
"411 539 OFFCURVE",
"334 539 CURVE SMOOTH"
);
},
{
closed = 1;
nodes = (
"95 527 LINE",
"95 0 LINE",
"187 0 LINE",
"187 398 LINE",
"174 527 LINE"
);
},
{
closed = 1;
nodes = (
"548 539 OFFCURVE",
"498 495 OFFCURVE",
"459 432 CURVE",
"477 374 LINE",
"513 430 OFFCURVE",
"544 467 OFFCURVE",
"601 467 CURVE SMOOTH",
"641 467 OFFCURVE",
"675 444 OFFCURVE",
"675 365 CURVE SMOOTH",
"675 0 LINE",
"767 0 LINE",
"767 378 LINE SMOOTH",
"767 477 OFFCURVE",
"710 539 OFFCURVE",
"624 539 CURVE SMOOTH"
);
}
);
width = 857;
}
);
leftKerningGroup = n;
leftMetricsKey = n;
rightKerningGroup = n;
rightMetricsKey = n;
unicode = 006D;
},
{
color = 4;
glyphname = n;
lastChange = "2014-03-28 10:58:41 +0100";
layers = (
{
anchors = (
{
name = bottom;
position = "{286, 0}";
},
{
name = top;
position = "{291, 534}";
}
);
layerId = UUID0;
name = Bold;
paths = (
{
closed = 1;
nodes = (
"321 554 OFFCURVE",
"270 527 OFFCURVE",
"216 464 CURVE",
"240 357 LINE",
"263 393 OFFCURVE",
"286 410 OFFCURVE",
"307 410 CURVE SMOOTH",
"325 410 OFFCURVE",
"337 400 OFFCURVE",
"337 358 CURVE",
"337 0 LINE",
"535 0 LINE",
"535 394 LINE SMOOTH",
"535 496 OFFCURVE",
"480 554 OFFCURVE",
"391 554 CURVE SMOOTH"
);
},
{
closed = 1;
nodes = (
"42 534 LINE",
"42 0 LINE",
"240 0 LINE",
"240 435 LINE",
"215 534 LINE"
);
}
);
width = 572;
},
{
anchors = (
{
name = bottom;
position = "{287, 0}";
},
{
name = top;
position = "{295, 517}";
},
{
name = topleft;
position = "{115, 517}";
}
);
layerId = "F257A41E-77B2-4FB8-8247-C188CBBE1401";
name = Light;
paths = (
{
closed = 1;
nodes = (
"238 527 OFFCURVE",
"174 475 OFFCURVE",
"126 389 CURVE",
"127 387 LINE",
"175 473 OFFCURVE",
"239 525 OFFCURVE",
"326 525 CURVE SMOOTH",
"420 525 OFFCURVE",
"458 466 OFFCURVE",
"458 368 CURVE SMOOTH",
"458 0 LINE",
"460 0 LINE",
"460 368 LINE SMOOTH",
"460 467 OFFCURVE",
"421 527 OFFCURVE",
"326 527 CURVE SMOOTH"
);
},
{
closed = 1;
nodes = (
"125 517 LINE",
"125 0 LINE",
"127 0 LINE",
"127 389 LINE",
"127 517 LINE"
);
}
);
width = 580;
},
{
anchors = (
{
name = bottom;
position = "{289, 0}";
},
{
name = top;
position = "{297, 520}";
},
{
name = topleft;
position = "{105, 520}";
}
);
layerId = "BCC09A48-EAE1-493E-95CB-92D2C26BC05D";
name = Regular;
paths = (
{
closed = 1;
nodes = (
"246 530 OFFCURVE",
"183 480 OFFCURVE",
"136 409 CURVE",
"145 383 LINE",
"194 453 OFFCURVE",
"249 503 OFFCURVE",
"331 503 CURVE SMOOTH",
"405 503 OFFCURVE",
"442 459 OFFCURVE",
"442 366 CURVE SMOOTH",
"442 0 LINE",
"472 0 LINE",
"472 370 LINE SMOOTH",
"472 472 OFFCURVE",
"426 530 OFFCURVE",
"332 530 CURVE SMOOTH"
);
},
{
closed = 1;
nodes = (
"115 520 LINE",
"115 0 LINE",
"145 0 LINE",
"145 389 LINE",
"141 520 LINE"
);
}
);
width = 582;
},
{
anchors = (
{
name = bottom;
position = "{293, 0}";
},
{
name = top;
position = "{298, 527}";
},
{
name = topleft;
position = "{85, 527}";
}
);
layerId = "A11F629A-ECF3-413E-B2EC-6C6F8C33A243";
name = Regular;
paths = (
{
closed = 1;
nodes = (
"267 539 OFFCURVE",
"207 495 OFFCURVE",
"171 432 CURVE",
"187 374 LINE",
"222 430 OFFCURVE",
"262 467 OFFCURVE",
"321 467 CURVE SMOOTH",
"372 467 OFFCURVE",
"404 444 OFFCURVE",
"404 365 CURVE SMOOTH",
"404 0 LINE",
"496 0 LINE",
"496 378 LINE SMOOTH",
"496 478 OFFCURVE",
"440 539 OFFCURVE",
"343 539 CURVE SMOOTH"
);
},
{
closed = 1;
nodes = (
"95 527 LINE",
"95 0 LINE",
"187 0 LINE",
"187 398 LINE",
"174 527 LINE"
);
}
);
width = 586;
}
);
leftKerningGroup = n;
rightKerningGroup = n;
unicode = 006E;
},
{
color = 4;
glyphname = eng;
lastChange = "2014-04-25 15:22:58 +0100";
layers = (
{
layerId = UUID0;
rightMetricsKey = n;
name = Bold;
paths = (
{
closed = 1;
nodes = (
"321 554 OFFCURVE",
"270 527 OFFCURVE",
"216 464 CURVE",
"240 357 LINE",
"263 393 OFFCURVE",
"286 410 OFFCURVE",
"307 410 CURVE SMOOTH",
"325 410 OFFCURVE",
"337 400 OFFCURVE",
"337 358 CURVE",
"337 120 LINE",
"535 120 LINE",
"535 394 LINE SMOOTH",
"535 496 OFFCURVE",
"480 554 OFFCURVE",
"391 554 CURVE SMOOTH"
);
},
{
closed = 1;
nodes = (
"42 534 LINE",
"42 0 LINE",
"240 0 LINE",
"240 435 LINE",
"215 534 LINE"
);
},
{
closed = 1;
nodes = (
"337 134 LINE",
"337 65 LINE SMOOTH",
"337 -22 OFFCURVE",
"292 -52 OFFCURVE",
"225 -83 CURVE",
"293 -227 LINE",
"425 -184 OFFCURVE",
"535 -111 OFFCURVE",
"535 77 CURVE SMOOTH",
"535 134 LINE"
);
}
);
width = 572;
},
{
layerId = "F257A41E-77B2-4FB8-8247-C188CBBE1401";
rightMetricsKey = n;
name = Light;
paths = (
{
closed = 1;
nodes = (
"238 527 OFFCURVE",
"174 475 OFFCURVE",
"126 389 CURVE",
"127 387 LINE",
"175 473 OFFCURVE",
"239 525 OFFCURVE",
"326 525 CURVE SMOOTH",
"419 525 OFFCURVE",
"458 464 OFFCURVE",
"458 368 CURVE SMOOTH",
"458 10 LINE",
"460 10 LINE",
"460 368 LINE SMOOTH",
"460 465 OFFCURVE",
"420 527 OFFCURVE",
"326 527 CURVE SMOOTH"
);
},
{
closed = 1;
nodes = (
"125 517 LINE",
"125 0 LINE",
"127 0 LINE",
"127 389 LINE",
"127 517 LINE"
);
},
{
closed = 1;
nodes = (
"458 17 LINE",
"458 1 LINE SMOOTH",
"458 -117 OFFCURVE",
"429 -153 OFFCURVE",
"361 -189 CURVE",
"362 -191 LINE",
"431 -154 OFFCURVE",
"460 -118 OFFCURVE",
"460 1 CURVE SMOOTH",
"460 17 LINE"
);
}
);
width = 580;
},
{
anchors = (
{
name = bottom;
position = "{289, 0}";
},
{
name = top;
position = "{289, 520}";
}
);
layerId = "BCC09A48-EAE1-493E-95CB-92D2C26BC05D";
leftMetricsKey = n;
rightMetricsKey = n;
name = Regular;
paths = (
{
closed = 1;
nodes = (
"246 530 OFFCURVE",
"183 480 OFFCURVE",
"136 409 CURVE",
"145 383 LINE",
"194 453 OFFCURVE",
"249 503 OFFCURVE",
"331 503 CURVE SMOOTH",
"405 503 OFFCURVE",
"442 457 OFFCURVE",
"442 366 CURVE SMOOTH",
"442 90 LINE",
"472 90 LINE",
"472 370 LINE SMOOTH",
"472 470 OFFCURVE",
"425 530 OFFCURVE",
"332 530 CURVE SMOOTH"
);
},
{
closed = 1;
nodes = (
"115 520 LINE",
"115 0 LINE",
"145 0 LINE",
"145 389 LINE",
"141 520 LINE"
);
},
{
closed = 1;
nodes = (
"442 100 LINE",
"442 9 LINE SMOOTH",
"442 -108 OFFCURVE",
"414 -138 OFFCURVE",
"345 -174 CURVE",
"354 -196 LINE",
"434 -156 OFFCURVE",
"472 -124 OFFCURVE",
"472 8 CURVE SMOOTH",
"472 100 LINE"
);
}
);
width = 582;
},
{
layerId = "A11F629A-ECF3-413E-B2EC-6C6F8C33A243";
rightMetricsKey = n;
name = Regular;
paths = (
{
closed = 1;
nodes = (
"267 539 OFFCURVE",
"207 495 OFFCURVE",
"171 432 CURVE",
"187 374 LINE",
"222 430 OFFCURVE",
"262 467 OFFCURVE",
"320 467 CURVE SMOOTH",
"370 467 OFFCURVE",
"404 444 OFFCURVE",
"404 365 CURVE SMOOTH",
"404 90 LINE",
"496 90 LINE",
"496 378 LINE SMOOTH",
"496 477 OFFCURVE",
"439 539 OFFCURVE",
"343 539 CURVE SMOOTH"
);
},
{
closed = 1;
nodes = (
"95 527 LINE",
"95 0 LINE",
"187 0 LINE",
"187 398 LINE",
"174 527 LINE"
);
},
{
closed = 1;
nodes = (
"404 97 LINE",
"404 26 LINE SMOOTH",
"404 -87 OFFCURVE",
"371 -113 OFFCURVE",
"302 -145 CURVE",
"329 -212 LINE",
"441 -162 OFFCURVE",
"496 -117 OFFCURVE",
"496 32 CURVE SMOOTH",
"496 97 LINE"
);
}
);
width = 586;
}
);
leftKerningGroup = n;
leftMetricsKey = n;
rightKerningGroup = n;
rightMetricsKey = j;
unicode = 014B;
},
{
color = 4;
glyphname = o;
lastChange = "2014-04-03 15:30:10 +0100";
layers = (
{
anchors = (
{
name = top;
position = "{292, 534}";
}
);
background = {
paths = (
{
closed = 1;
nodes = (
"122 554 OFFCURVE",
"17 440 OFFCURVE",
"17 268 CURVE SMOOTH",
"17 82 OFFCURVE",
"122 -20 OFFCURVE",
"291 -20 CURVE SMOOTH",
"460 -20 OFFCURVE",
"565 82 OFFCURVE",
"565 268 CURVE SMOOTH",
"565 440 OFFCURVE",
"460 554 OFFCURVE",
"291 554 CURVE SMOOTH"
);
},
{
closed = 1;
nodes = (
"340 412 OFFCURVE",
"362 369 OFFCURVE",
"362 268 CURVE SMOOTH",
"362 162 OFFCURVE",
"340 122 OFFCURVE",
"291 122 CURVE SMOOTH",
"242 122 OFFCURVE",
"220 162 OFFCURVE",
"220 268 CURVE SMOOTH",
"220 369 OFFCURVE",
"242 412 OFFCURVE",
"291 412 CURVE SMOOTH"
);
}
);
};
layerId = UUID0;
name = Bold;
paths = (
{
closed = 1;
nodes = (
"122 554 OFFCURVE",
"17 442 OFFCURVE",
"17 268 CURVE SMOOTH",
"17 82 OFFCURVE",
"124 -20 OFFCURVE",
"292 -20 CURVE",
"462 -20 OFFCURVE",
"567 92 OFFCURVE",
"567 266 CURVE SMOOTH",
"567 452 OFFCURVE",
"460 554 OFFCURVE",
"292 554 CURVE"
);
},
{
closed = 1;
nodes = (
"342 412 OFFCURVE",
"364 372 OFFCURVE",
"364 266 CURVE SMOOTH",
"364 165 OFFCURVE",
"342 122 OFFCURVE",
"292 122 CURVE",
"242 122 OFFCURVE",
"220 162 OFFCURVE",
"220 268 CURVE SMOOTH",
"220 369 OFFCURVE",
"242 412 OFFCURVE",
"292 412 CURVE"
);
}
);
width = 584;
},
{
anchors = (
{
name = top;
position = "{280, 517}";
}
);
layerId = "F257A41E-77B2-4FB8-8247-C188CBBE1401";
name = Light;
paths = (
{
closed = 1;
nodes = (
"160 527 OFFCURVE",
"80 431 OFFCURVE",
"80 258 CURVE SMOOTH",
"80 91 OFFCURVE",
"155 -9 OFFCURVE",
"279 -9 CURVE SMOOTH",
"402 -9 OFFCURVE",
"479 89 OFFCURVE",
"479 262 CURVE SMOOTH",
"479 429 OFFCURVE",
"403 527 OFFCURVE",
"281 527 CURVE SMOOTH"
);
},
{
closed = 1;
nodes = (
"402 525 OFFCURVE",
"477 427 OFFCURVE",
"477 262 CURVE SMOOTH",
"477 91 OFFCURVE",
"401 -7 OFFCURVE",
"279 -7 CURVE SMOOTH",
"156 -7 OFFCURVE",
"82 93 OFFCURVE",
"82 258 CURVE SMOOTH",
"82 429 OFFCURVE",
"161 525 OFFCURVE",
"281 525 CURVE SMOOTH"
);
}
);
width = 559;
},
{
anchors = (
{
name = top;
position = "{281, 520}";
}
);
background = {
paths = (
{
closed = 1;
nodes = (
"155 530 OFFCURVE",
"71 431 OFFCURVE",
"71 259 CURVE SMOOTH",
"71 91 OFFCURVE",
"151 -10 OFFCURVE",
"279 -10 CURVE SMOOTH",
"409 -10 OFFCURVE",
"491 92 OFFCURVE",
"491 262 CURVE SMOOTH",
"491 431 OFFCURVE",
"411 530 OFFCURVE",
"284 530 CURVE SMOOTH"
);
},
{
closed = 1;
nodes = (
"393 502 OFFCURVE",
"460 417 OFFCURVE",
"460 262 CURVE SMOOTH",
"460 103 OFFCURVE",
"391 18 OFFCURVE",
"280 18 CURVE SMOOTH",
"170 18 OFFCURVE",
"103 105 OFFCURVE",
"103 259 CURVE SMOOTH",
"103 419 OFFCURVE",
"173 502 OFFCURVE",
"284 502 CURVE SMOOTH"
);
}
);
};
layerId = "BCC09A48-EAE1-493E-95CB-92D2C26BC05D";
name = Regular;
paths = (
{
closed = 1;
nodes = (
"154 530 OFFCURVE",
"70 431 OFFCURVE",
"70 259 CURVE SMOOTH",
"70 91 OFFCURVE",
"150 -10 OFFCURVE",
"280 -10 CURVE SMOOTH",
"408 -10 OFFCURVE",
"491 89 OFFCURVE",
"491 262 CURVE SMOOTH",
"491 436 OFFCURVE",
"410 530 OFFCURVE",
"281 530 CURVE SMOOTH"
);
},
{
closed = 1;
nodes = (
"393 502 OFFCURVE",
"460 418 OFFCURVE",
"460 262 CURVE SMOOTH",
"460 103 OFFCURVE",
"390 18 OFFCURVE",
"280 18 CURVE SMOOTH",
"169 18 OFFCURVE",
"101 105 OFFCURVE",
"101 259 CURVE SMOOTH",
"101 419 OFFCURVE",
"172 502 OFFCURVE",
"281 502 CURVE SMOOTH"
);
}
);
width = 561;
},
{
anchors = (
{
name = top;
position = "{292, 527}";
}
);
layerId = "A11F629A-ECF3-413E-B2EC-6C6F8C33A243";
name = Regular;
paths = (
{
closed = 1;
nodes = (
"143 539 OFFCURVE",
"57 426 OFFCURVE",
"57 263 CURVE SMOOTH",
"57 96 OFFCURVE",
"142 -12 OFFCURVE",
"292 -12 CURVE SMOOTH",
"441 -12 OFFCURVE",
"527 101 OFFCURVE",
"527 264 CURVE SMOOTH",
"527 431 OFFCURVE",
"443 539 OFFCURVE",
"293 539 CURVE SMOOTH"
);
},
{
closed = 1;
nodes = (
"380 465 OFFCURVE",
"428 401 OFFCURVE",
"428 264 CURVE SMOOTH",
"428 126 OFFCURVE",
"380 62 OFFCURVE",
"292 62 CURVE SMOOTH",
"204 62 OFFCURVE",
"156 126 OFFCURVE",
"156 263 CURVE SMOOTH",
"156 401 OFFCURVE",
"205 465 OFFCURVE",
"293 465 CURVE SMOOTH"
);
}
);
width = 584;
}
);
leftKerningGroup = o;
rightKerningGroup = o;
unicode = 006F;
},
